<?xml version="1.0" encoding="utf-8"?>
<!-- Generator: Adobe Illustrator 16.0.0, SVG Export Plug-In . SVG Version: 6.00 Build 0)  -->
<!DOCTYPE svg PUBLIC "-//W3C//DTD SVG 1.1//EN" "http://www.w3.org/Graphics/SVG/1.1/DTD/svg11.dtd">
<svg version="1.1" id="Layer_1" xmlns="http://www.w3.org/2000/svg" xmlns:xlink="http://www.w3.org/1999/xlink" x="0px" y="0px"
	 width="657px" height="452px" viewBox="0 0 657 452" enable-background="new 0 0 657 452" xml:space="preserve">
<line fill="none" stroke="#008848" stroke-width="2" stroke-miterlimit="10" x1="0" y1="327" x2="657" y2="327"/>
<line fill="none" stroke="#008848" stroke-width="2" stroke-miterlimit="10" x1="0" y1="388" x2="657" y2="388"/>
<rect x="356" y="178.951" fill="#FFFFFF" width="40.264" height="46"/>
<line fill="none" stroke="#008848" stroke-width="2" stroke-miterlimit="10" x1="363" y1="225" x2="0" y2="225"/>
<line fill="none" stroke="#008848" stroke-width="2" stroke-miterlimit="10" x1="364" y1="177" x2="0" y2="177"/>
<g>
	<g>
		<path fill="#04703A" d="M582.678,106.063c-0.503,0-0.994-0.088-1.474-0.264s-0.883-0.427-1.209-0.753
			c-0.442-0.447-0.776-0.945-1.002-1.496c-0.227-0.55-0.339-1.234-0.339-2.053v-1.8H575v-2.893h11.219v4.761
			c0,0.713-0.063,1.315-0.185,1.805c-0.124,0.49-0.309,0.923-0.555,1.299c-0.296,0.452-0.675,0.797-1.137,1.036
			C583.88,105.944,583.325,106.063,582.678,106.063z M582.613,103.072c0.315,0,0.587-0.085,0.815-0.256
			c0.228-0.171,0.387-0.369,0.478-0.595c0.12-0.301,0.187-0.595,0.199-0.882c0.012-0.286,0.019-0.668,0.019-1.145v-0.497h-3.353
			v0.829c0,0.492,0.029,0.898,0.09,1.217s0.181,0.586,0.36,0.802c0.161,0.186,0.353,0.32,0.575,0.403
			C582.021,103.03,582.292,103.072,582.613,103.072z"/>
		<path fill="#04703A" d="M575,118.479v-2.988l2.268-0.781v-4.151L575,109.777v-2.916l11.219,4.144v3.33L575,118.479z
			 M579.324,114.015l4.02-1.38l-4.02-1.38V114.015z"/>
		<path fill="#04703A" d="M575,130.896v-3.534l4.113-3.052v-1.34H575v-2.878h11.219v4.852c0,0.663-0.038,1.233-0.113,1.71
			s-0.239,0.924-0.49,1.341c-0.251,0.422-0.576,0.757-0.976,1.005c-0.399,0.249-0.9,0.373-1.503,0.373
			c-0.829,0-1.504-0.192-2.026-0.576s-0.957-0.933-1.304-1.646L575,130.896z M582.783,126.383c0.281,0,0.521-0.058,0.723-0.173
			c0.201-0.116,0.359-0.314,0.475-0.595c0.08-0.196,0.13-0.425,0.147-0.686c0.018-0.261,0.026-0.565,0.026-0.912v-1.047h-3.021
			v0.889c0,0.462,0.022,0.849,0.067,1.16c0.046,0.311,0.148,0.572,0.31,0.784c0.155,0.201,0.327,0.348,0.516,0.44
			S582.467,126.383,582.783,126.383z"/>
		<path fill="#04703A" d="M575,142.633v-3.555l4.49-3.354l-0.83-0.671H575v-2.893h11.219v2.893h-5.083l5.083,4.007v3.354
			l-5.191-4.385L575,142.633z"/>
		<path fill="#04703A" d="M575,150.123v-6.57h1.989v1.838h7.24v-1.838h1.989v6.57h-1.989v-1.838h-7.24v1.838H575z"/>
		<path fill="#04703A" d="M575,162.682v-2.788l7.7-4.762H575v-2.652h11.219v3.458l-6.427,4.091h6.427v2.652H575z"/>
		<path fill="#04703A" d="M575.641,175.467c-0.196-0.502-0.391-1.168-0.584-1.997s-0.29-1.655-0.29-2.479
			c0-1.909,0.519-3.403,1.556-4.482c1.037-1.08,2.47-1.62,4.298-1.62c1.743,0,3.148,0.545,4.216,1.635
			c1.067,1.09,1.601,2.609,1.601,4.558c0,0.738-0.066,1.441-0.199,2.109c-0.134,0.668-0.398,1.411-0.795,2.23h-2.63v-0.324
			c0.105-0.141,0.255-0.347,0.448-0.618c0.193-0.271,0.358-0.533,0.494-0.784c0.16-0.292,0.299-0.632,0.414-1.021
			s0.174-0.802,0.174-1.239c0-0.512-0.076-0.977-0.227-1.394s-0.382-0.791-0.693-1.123c-0.301-0.316-0.685-0.566-1.148-0.75
			c-0.465-0.184-1.001-0.275-1.608-0.275c-1.241,0-2.19,0.329-2.849,0.987c-0.657,0.658-0.986,1.63-0.986,2.916
			c0,0.111,0.002,0.232,0.007,0.366c0.006,0.133,0.013,0.255,0.023,0.365h2.199v-2.238h2.117v5.176H575.641z"/>
	</g>
</g>
<g>
	<g>
		<path fill="#ED1C24" d="M147.18,259.659h-5.898v2.385h5.467v2.479h-5.467V270h-3.29v-12.821h9.188V259.659z"/>
		<path fill="#ED1C24" d="M158.735,270h-9.273v-12.821h9.273v2.48h-5.984v2.213h5.554v2.479h-5.554v3.169h5.984V270z"/>
		<path fill="#04703A" d="M171.648,270.219c-0.834,0-1.604-0.123-2.309-0.369c-0.706-0.246-1.313-0.613-1.82-1.101
			c-0.507-0.486-0.9-1.095-1.179-1.823c-0.279-0.728-0.418-1.569-0.418-2.523c0-0.89,0.133-1.695,0.399-2.419
			c0.266-0.723,0.653-1.343,1.16-1.86c0.487-0.497,1.091-0.882,1.812-1.153c0.721-0.271,1.508-0.406,2.362-0.406
			c0.472,0,0.898,0.026,1.277,0.079c0.379,0.053,0.729,0.121,1.051,0.207c0.336,0.096,0.642,0.202,0.916,0.32
			s0.514,0.228,0.72,0.327v2.72h-0.332c-0.141-0.119-0.318-0.262-0.531-0.427c-0.214-0.165-0.456-0.327-0.727-0.487
			c-0.276-0.16-0.575-0.295-0.896-0.404c-0.322-0.11-0.666-0.165-1.032-0.165c-0.407,0-0.794,0.063-1.16,0.191
			c-0.367,0.128-0.706,0.34-1.017,0.636c-0.297,0.285-0.537,0.664-0.72,1.135c-0.184,0.472-0.275,1.043-0.275,1.715
			c0,0.701,0.099,1.288,0.297,1.759c0.199,0.472,0.448,0.842,0.75,1.112c0.306,0.276,0.648,0.473,1.024,0.591
			c0.377,0.118,0.749,0.177,1.115,0.177c0.352,0,0.699-0.053,1.043-0.157c0.344-0.105,0.662-0.248,0.953-0.428
			c0.246-0.145,0.475-0.3,0.686-0.465s0.384-0.307,0.52-0.427h0.302v2.682c-0.282,0.126-0.55,0.244-0.806,0.354
			c-0.256,0.11-0.525,0.206-0.806,0.286c-0.367,0.105-0.711,0.186-1.032,0.241C172.652,270.19,172.21,270.219,171.648,270.219z"/>
		<path fill="#04703A" d="M188.547,270h-3.534l-3.052-4.113h-1.34V270h-2.878v-11.219h4.852c0.663,0,1.233,0.038,1.71,0.113
			s0.924,0.239,1.341,0.49c0.422,0.251,0.757,0.576,1.005,0.976c0.249,0.399,0.373,0.9,0.373,1.503c0,0.829-0.192,1.504-0.576,2.026
			s-0.933,0.957-1.646,1.304L188.547,270z M184.034,262.217c0-0.281-0.058-0.521-0.173-0.723c-0.116-0.201-0.314-0.359-0.595-0.475
			c-0.196-0.08-0.425-0.13-0.686-0.147c-0.261-0.018-0.565-0.026-0.912-0.026h-1.047v3.021h0.889c0.462,0,0.849-0.022,1.16-0.067
			c0.311-0.046,0.572-0.148,0.784-0.31c0.201-0.155,0.348-0.327,0.44-0.516S184.034,262.533,184.034,262.217z"/>
		<path fill="#04703A" d="M197.927,270h-8.114v-11.219h8.114v2.17h-5.236v1.937h4.859v2.17h-4.859v2.772h5.236V270z"/>
		<path fill="#04703A" d="M210.954,264.402c0,1.045-0.239,1.98-0.716,2.807c-0.478,0.826-1.08,1.46-1.809,1.902
			c-0.547,0.331-1.147,0.563-1.8,0.692c-0.653,0.131-1.427,0.196-2.321,0.196h-3.955v-11.219h4.068c0.914,0,1.703,0.077,2.366,0.23
			s1.22,0.37,1.672,0.651c0.773,0.473,1.383,1.109,1.827,1.91S210.954,263.317,210.954,264.402z M207.962,264.38
			c0-0.738-0.134-1.37-0.403-1.896c-0.269-0.524-0.694-0.936-1.277-1.231c-0.296-0.146-0.599-0.245-0.908-0.298
			c-0.309-0.053-0.775-0.079-1.398-0.079h-0.73v7.022h0.73c0.688,0,1.193-0.032,1.515-0.095c0.321-0.063,0.635-0.177,0.942-0.343
			c0.527-0.302,0.914-0.704,1.16-1.209S207.962,265.123,207.962,264.38z"/>
		<path fill="#04703A" d="M219.226,270h-6.57v-1.989h1.838v-7.24h-1.838v-1.989h6.57v1.989h-1.838v7.24h1.838V270z"/>
		<path fill="#04703A" d="M230.361,260.951h-3.503V270h-2.893v-9.049h-3.503v-2.17h9.899V260.951z"/>
		<path fill="#04703A" d="M127.339,289.839h-7.489v-1.959h2.366v-5.93h-2.366v-1.83c0.362,0,0.708-0.021,1.04-0.064
			c0.332-0.042,0.607-0.116,0.829-0.222c0.261-0.126,0.457-0.289,0.587-0.49c0.131-0.201,0.206-0.452,0.226-0.753h2.494v9.289h2.313
			V289.839z"/>
		<path fill="#04703A" d="M139.175,287.255h-1.529v2.614h-2.765v-2.614h-5.432v-2.125l5.251-6.51h2.946v6.585h1.529V287.255z
			 M134.881,285.205v-4.061l-3.267,4.061H134.881z"/>
		<path fill="#04703A" d="M150.145,287.255h-1.529v2.614h-2.765v-2.614h-5.432v-2.125l5.251-6.51h2.946v6.585h1.529V287.255z
			 M145.851,285.205v-4.061l-3.267,4.061H145.851z"/>
		<path fill="#04703A" d="M162.531,290.058c-0.834,0-1.604-0.123-2.309-0.369c-0.706-0.246-1.313-0.613-1.82-1.101
			c-0.507-0.486-0.9-1.095-1.179-1.823c-0.279-0.728-0.418-1.569-0.418-2.523c0-0.89,0.133-1.695,0.399-2.419
			c0.266-0.723,0.653-1.343,1.16-1.86c0.487-0.497,1.091-0.882,1.812-1.153c0.721-0.271,1.508-0.406,2.362-0.406
			c0.472,0,0.898,0.026,1.277,0.079c0.379,0.053,0.729,0.121,1.051,0.207c0.336,0.096,0.642,0.202,0.916,0.32
			s0.514,0.228,0.72,0.327v2.72h-0.332c-0.141-0.119-0.318-0.262-0.531-0.427c-0.214-0.165-0.456-0.327-0.727-0.487
			c-0.276-0.16-0.575-0.295-0.896-0.404c-0.322-0.11-0.666-0.165-1.032-0.165c-0.407,0-0.794,0.063-1.16,0.191
			c-0.367,0.128-0.706,0.34-1.017,0.636c-0.297,0.285-0.537,0.664-0.72,1.135c-0.184,0.472-0.275,1.043-0.275,1.715
			c0,0.701,0.099,1.288,0.297,1.759c0.199,0.472,0.448,0.842,0.75,1.112c0.306,0.276,0.648,0.473,1.024,0.591
			c0.377,0.118,0.749,0.177,1.115,0.177c0.352,0,0.699-0.053,1.043-0.157c0.344-0.105,0.662-0.248,0.953-0.428
			c0.246-0.145,0.475-0.3,0.686-0.465s0.384-0.307,0.52-0.427h0.302v2.682c-0.282,0.126-0.55,0.244-0.806,0.354
			c-0.256,0.11-0.525,0.206-0.806,0.286c-0.367,0.105-0.711,0.186-1.032,0.241C163.536,290.029,163.094,290.058,162.531,290.058z"/>
		<path fill="#04703A" d="M179.536,284.233c0,1.788-0.512,3.208-1.537,4.261c-1.024,1.052-2.441,1.578-4.249,1.578
			c-1.803,0-3.217-0.526-4.242-1.578c-1.024-1.053-1.537-2.473-1.537-4.261c0-1.803,0.513-3.229,1.537-4.275
			c1.024-1.048,2.438-1.571,4.242-1.571c1.798,0,3.212,0.523,4.242,1.571C179.021,281.005,179.536,282.431,179.536,284.233z
			 M175.701,287.074c0.281-0.342,0.49-0.745,0.625-1.21c0.136-0.464,0.204-1.011,0.204-1.639c0-0.673-0.078-1.245-0.234-1.718
			c-0.156-0.472-0.359-0.854-0.61-1.145c-0.256-0.302-0.551-0.521-0.885-0.656c-0.334-0.135-0.682-0.203-1.043-0.203
			c-0.367,0-0.712,0.065-1.036,0.196c-0.324,0.131-0.622,0.347-0.893,0.647c-0.251,0.281-0.456,0.67-0.614,1.164
			c-0.158,0.495-0.237,1.069-0.237,1.722c0,0.668,0.077,1.237,0.229,1.707c0.153,0.469,0.355,0.853,0.607,1.148
			c0.251,0.297,0.545,0.515,0.881,0.655s0.69,0.211,1.062,0.211c0.372,0,0.726-0.071,1.063-0.215
			C175.156,287.598,175.45,287.375,175.701,287.074z"/>
		<path fill="#04703A" d="M191.944,289.839h-2.788l-4.762-7.7v7.7h-2.652V278.62h3.458l4.091,6.427v-6.427h2.652V289.839z"/>
		<path fill="#04703A" d="M204.729,289.198c-0.502,0.196-1.168,0.391-1.997,0.584s-1.655,0.29-2.479,0.29
			c-1.909,0-3.403-0.519-4.482-1.556c-1.08-1.037-1.62-2.47-1.62-4.298c0-1.743,0.545-3.148,1.635-4.216
			c1.09-1.067,2.609-1.601,4.558-1.601c0.738,0,1.441,0.066,2.109,0.199c0.668,0.134,1.411,0.398,2.23,0.795v2.63h-0.324
			c-0.141-0.105-0.347-0.255-0.618-0.448c-0.271-0.193-0.533-0.358-0.784-0.494c-0.292-0.16-0.632-0.299-1.021-0.414
			s-0.802-0.174-1.239-0.174c-0.512,0-0.977,0.076-1.394,0.227s-0.791,0.382-1.123,0.693c-0.316,0.301-0.566,0.685-0.75,1.148
			c-0.184,0.465-0.275,1.001-0.275,1.608c0,1.241,0.329,2.19,0.987,2.849c0.658,0.657,1.63,0.986,2.916,0.986
			c0.111,0,0.232-0.002,0.366-0.007c0.133-0.006,0.255-0.013,0.365-0.023v-2.199h-2.238v-2.117h5.176V289.198z"/>
		<path fill="#04703A" d="M222.653,289.839h-2.894v-4.942h-4.271v4.942h-2.893V278.62h2.893v4.106h4.271v-4.106h2.894V289.839z"/>
		<path fill="#04703A" d="M236.426,284.233c0,1.788-0.512,3.208-1.537,4.261c-1.024,1.052-2.441,1.578-4.249,1.578
			c-1.803,0-3.217-0.526-4.242-1.578c-1.024-1.053-1.537-2.473-1.537-4.261c0-1.803,0.513-3.229,1.537-4.275
			c1.024-1.048,2.438-1.571,4.242-1.571c1.798,0,3.212,0.523,4.242,1.571C235.911,281.005,236.426,282.431,236.426,284.233z
			 M232.591,287.074c0.281-0.342,0.49-0.745,0.625-1.21c0.136-0.464,0.204-1.011,0.204-1.639c0-0.673-0.078-1.245-0.234-1.718
			c-0.156-0.472-0.359-0.854-0.61-1.145c-0.256-0.302-0.551-0.521-0.885-0.656c-0.334-0.135-0.682-0.203-1.043-0.203
			c-0.367,0-0.712,0.065-1.036,0.196c-0.324,0.131-0.622,0.347-0.893,0.647c-0.251,0.281-0.456,0.67-0.614,1.164
			c-0.158,0.495-0.237,1.069-0.237,1.722c0,0.668,0.077,1.237,0.229,1.707c0.153,0.469,0.355,0.853,0.607,1.148
			c0.251,0.297,0.545,0.515,0.881,0.655s0.69,0.211,1.062,0.211c0.372,0,0.726-0.071,1.063-0.215
			C232.046,287.598,232.34,287.375,232.591,287.074z"/>
		<path fill="#04703A" d="M249,289.839h-2.988l-0.781-2.268h-4.151l-0.782,2.268h-2.916l4.144-11.219h3.33L249,289.839z
			 M244.536,285.515l-1.38-4.02l-1.38,4.02H244.536z"/>
	</g>
</g>
<g>
	<path fill="#ED1C24" d="M142.148,28.071h-5.898v2.385h5.467v2.48h-5.467v5.476h-3.29V25.591h9.188V28.071z"/>
	<path fill="#ED1C24" d="M153.703,38.412h-9.273V25.591h9.273v2.479h-5.984v2.213h5.554v2.48h-5.554v3.168h5.984V38.412z"/>
	<path fill="#04703A" d="M168.298,38.662c-0.953,0-1.833-0.141-2.639-0.422c-0.806-0.281-1.5-0.7-2.079-1.257
		c-0.58-0.557-1.029-1.251-1.348-2.084c-0.318-0.832-0.478-1.793-0.478-2.884c0-1.016,0.152-1.938,0.457-2.764
		s0.746-1.535,1.326-2.126c0.557-0.568,1.247-1.008,2.071-1.317c0.823-0.31,1.723-0.465,2.699-0.465c0.54,0,1.026,0.03,1.459,0.091
		c0.433,0.06,0.833,0.139,1.201,0.236c0.384,0.109,0.733,0.231,1.046,0.366c0.313,0.135,0.587,0.26,0.822,0.375v3.108h-0.378
		c-0.161-0.137-0.363-0.3-0.607-0.488c-0.244-0.188-0.521-0.374-0.831-0.557c-0.316-0.183-0.658-0.337-1.025-0.462
		s-0.761-0.188-1.18-0.188c-0.465,0-0.907,0.073-1.326,0.219c-0.419,0.146-0.807,0.388-1.163,0.726
		c-0.339,0.327-0.613,0.759-0.822,1.297s-0.314,1.191-0.314,1.959c0,0.802,0.113,1.473,0.34,2.011
		c0.227,0.539,0.512,0.962,0.856,1.272c0.35,0.315,0.741,0.54,1.171,0.674c0.43,0.135,0.855,0.202,1.274,0.202
		c0.401,0,0.799-0.06,1.192-0.18c0.393-0.12,0.756-0.283,1.089-0.488c0.281-0.166,0.542-0.342,0.783-0.531
		c0.241-0.188,0.439-0.352,0.594-0.489h0.344v3.065c-0.321,0.144-0.628,0.279-0.921,0.405c-0.293,0.126-0.6,0.235-0.921,0.327
		c-0.419,0.121-0.813,0.212-1.18,0.275C169.446,38.63,168.941,38.662,168.298,38.662z"/>
	<path fill="#04703A" d="M187.611,38.412h-4.039l-3.488-4.701h-1.532v4.701h-3.29V25.591h5.545c0.758,0,1.409,0.043,1.955,0.129
		c0.545,0.086,1.056,0.273,1.533,0.56c0.482,0.287,0.865,0.659,1.149,1.115c0.284,0.457,0.426,1.029,0.426,1.718
		c0,0.947-0.22,1.719-0.659,2.316c-0.439,0.597-1.066,1.093-1.881,1.489L187.611,38.412z M182.454,29.518
		c0-0.321-0.066-0.597-0.198-0.827c-0.132-0.229-0.358-0.41-0.68-0.542c-0.224-0.092-0.485-0.147-0.783-0.168
		c-0.299-0.02-0.646-0.03-1.042-0.03h-1.197v3.453h1.016c0.528,0,0.97-0.026,1.326-0.078s0.654-0.169,0.896-0.353
		c0.229-0.178,0.397-0.375,0.504-0.59C182.4,30.167,182.454,29.879,182.454,29.518z"/>
	<path fill="#04703A" d="M198.331,38.412h-9.273V25.591h9.273v2.479h-5.984v2.213h5.554v2.48h-5.554v3.168h5.984V38.412z"/>
	<path fill="#04703A" d="M213.219,32.015c0,1.194-0.273,2.263-0.818,3.208s-1.234,1.669-2.066,2.174
		c-0.625,0.379-1.312,0.643-2.058,0.792c-0.747,0.149-1.63,0.224-2.652,0.224h-4.521V25.591h4.65c1.044,0,1.946,0.087,2.704,0.263
		c0.758,0.175,1.395,0.423,1.912,0.745c0.884,0.54,1.58,1.267,2.088,2.183C212.965,29.697,213.219,30.775,213.219,32.015z
		 M209.8,31.989c0-0.844-0.154-1.565-0.46-2.166c-0.308-0.6-0.794-1.069-1.459-1.408c-0.339-0.167-0.685-0.28-1.038-0.34
		c-0.353-0.06-0.886-0.09-1.597-0.09h-0.835v8.025h0.835c0.786,0,1.363-0.036,1.73-0.107c0.367-0.072,0.726-0.203,1.076-0.392
		c0.603-0.344,1.045-0.805,1.326-1.382C209.66,33.552,209.8,32.838,209.8,31.989z"/>
	<path fill="#04703A" d="M222.673,38.412h-7.508v-2.273h2.101v-8.275h-2.101v-2.273h7.508v2.273h-2.101v8.275h2.101V38.412z"/>
	<path fill="#04703A" d="M235.399,28.071h-4.004v10.341h-3.306V28.071h-4.004v-2.479h11.314V28.071z"/>
	<path fill="#04703A" d="M101.933,52.318h-4.004v10.341h-3.306V52.318h-4.004v-2.479h11.314V52.318z"/>
	<path fill="#04703A" d="M116.269,62.659h-4.039l-3.488-4.701h-1.532v4.701h-3.29V49.838h5.545c0.758,0,1.409,0.043,1.955,0.129
		c0.545,0.086,1.056,0.273,1.533,0.56c0.482,0.287,0.865,0.659,1.149,1.115c0.284,0.457,0.426,1.029,0.426,1.718
		c0,0.947-0.22,1.719-0.659,2.316c-0.439,0.597-1.066,1.093-1.881,1.489L116.269,62.659z M111.111,53.765
		c0-0.321-0.066-0.597-0.198-0.827c-0.132-0.229-0.358-0.41-0.68-0.542c-0.224-0.092-0.485-0.147-0.783-0.168
		c-0.299-0.02-0.646-0.03-1.042-0.03h-1.197v3.453h1.016c0.528,0,0.97-0.026,1.326-0.078s0.654-0.169,0.896-0.353
		c0.229-0.178,0.397-0.375,0.504-0.59C111.058,54.415,111.111,54.126,111.111,53.765z"/>
	<path fill="#04703A" d="M129.563,62.659h-3.415l-0.893-2.592h-4.745l-0.893,2.592h-3.332l4.736-12.821h3.806L129.563,62.659z
		 M124.461,57.717l-1.577-4.593l-1.578,4.593H124.461z"/>
	<path fill="#04703A" d="M138.337,62.659h-7.508v-2.273h2.101v-8.275h-2.101v-2.273h7.508v2.273h-2.101v8.275h2.101V62.659z"/>
	<path fill="#04703A" d="M152.691,62.659h-3.186l-5.441-8.8v8.8h-3.031V49.838h3.953l4.675,7.345v-7.345h3.031V62.659z"/>
	<path fill="#04703A" d="M162.895,62.659h-7.508v-2.273h2.101v-8.275h-2.101v-2.273h7.508v2.273h-2.101v8.275h2.101V62.659z"/>
	<path fill="#04703A" d="M177.248,62.659h-3.186l-5.441-8.8v8.8h-3.031V49.838h3.953l4.675,7.345v-7.345h3.031V62.659z"/>
	<path fill="#04703A" d="M191.86,61.927c-0.574,0.224-1.335,0.446-2.282,0.667c-0.947,0.221-1.892,0.332-2.833,0.332
		c-2.182,0-3.889-0.593-5.123-1.778c-1.234-1.185-1.852-2.823-1.852-4.912c0-1.992,0.623-3.598,1.869-4.817s2.982-1.83,5.209-1.83
		c0.844,0,1.647,0.076,2.411,0.229c0.764,0.152,1.613,0.455,2.549,0.908v3.005h-0.37c-0.161-0.12-0.396-0.291-0.706-0.512
		c-0.31-0.221-0.609-0.409-0.896-0.564c-0.333-0.184-0.722-0.341-1.167-0.474c-0.445-0.132-0.917-0.198-1.417-0.198
		c-0.585,0-1.116,0.086-1.593,0.258c-0.477,0.172-0.904,0.436-1.283,0.792c-0.362,0.344-0.647,0.782-0.857,1.313
		c-0.209,0.531-0.314,1.144-0.314,1.838c0,1.418,0.376,2.503,1.128,3.255s1.863,1.128,3.333,1.128c0.126,0,0.265-0.003,0.417-0.009
		c0.152-0.005,0.292-0.014,0.417-0.026v-2.514h-2.557v-2.419h5.916V61.927z"/>
	<path fill="#04703A" d="M206.644,62.909c-0.953,0-1.833-0.141-2.639-0.422c-0.806-0.281-1.5-0.7-2.079-1.257
		c-0.58-0.557-1.029-1.251-1.348-2.084c-0.318-0.832-0.478-1.793-0.478-2.884c0-1.016,0.152-1.938,0.457-2.764
		s0.746-1.535,1.326-2.126c0.557-0.568,1.247-1.008,2.071-1.317c0.823-0.31,1.723-0.465,2.699-0.465c0.54,0,1.026,0.03,1.459,0.091
		c0.433,0.06,0.833,0.139,1.201,0.236c0.384,0.109,0.733,0.231,1.046,0.366c0.313,0.135,0.587,0.26,0.822,0.375v3.108h-0.378
		c-0.161-0.137-0.363-0.3-0.607-0.488c-0.244-0.188-0.521-0.374-0.831-0.557c-0.316-0.183-0.658-0.337-1.025-0.462
		s-0.761-0.188-1.18-0.188c-0.465,0-0.907,0.073-1.326,0.219c-0.419,0.146-0.807,0.388-1.163,0.726
		c-0.339,0.327-0.613,0.759-0.822,1.297s-0.314,1.191-0.314,1.959c0,0.802,0.113,1.473,0.34,2.011
		c0.227,0.539,0.512,0.962,0.856,1.272c0.35,0.315,0.741,0.54,1.171,0.674c0.43,0.135,0.855,0.202,1.274,0.202
		c0.401,0,0.799-0.06,1.192-0.18c0.393-0.12,0.756-0.283,1.089-0.488c0.281-0.166,0.542-0.342,0.783-0.531
		c0.241-0.188,0.439-0.352,0.594-0.489h0.344v3.065c-0.321,0.144-0.628,0.279-0.921,0.405c-0.293,0.126-0.6,0.235-0.921,0.327
		c-0.419,0.121-0.813,0.212-1.18,0.275C207.792,62.877,207.287,62.909,206.644,62.909z"/>
	<path fill="#04703A" d="M222.883,62.659h-9.273V49.838h9.273v2.479h-5.984v2.213h5.554v2.48h-5.554v3.168h5.984V62.659z"/>
	<path fill="#04703A" d="M237.314,62.659h-3.186l-5.441-8.8v8.8h-3.031V49.838h3.953l4.675,7.345v-7.345h3.031V62.659z"/>
	<path fill="#04703A" d="M250.617,52.318h-4.004v10.341h-3.306V52.318h-4.004v-2.479h11.314V52.318z"/>
	<path fill="#04703A" d="M261.88,62.659h-9.273V49.838h9.273v2.479h-5.984v2.213h5.554v2.48h-5.554v3.168h5.984V62.659z"/>
	<path fill="#04703A" d="M277,62.659h-4.039l-3.488-4.701h-1.532v4.701h-3.29V49.838h5.545c0.758,0,1.409,0.043,1.955,0.129
		c0.545,0.086,1.056,0.273,1.533,0.56c0.482,0.287,0.865,0.659,1.149,1.115c0.284,0.457,0.426,1.029,0.426,1.718
		c0,0.947-0.22,1.719-0.659,2.316c-0.439,0.597-1.066,1.093-1.881,1.489L277,62.659z M271.842,53.765
		c0-0.321-0.066-0.597-0.198-0.827c-0.132-0.229-0.358-0.41-0.68-0.542c-0.224-0.092-0.485-0.147-0.783-0.168
		c-0.299-0.02-0.646-0.03-1.042-0.03h-1.197v3.453h1.016c0.528,0,0.97-0.026,1.326-0.078s0.654-0.169,0.896-0.353
		c0.229-0.178,0.397-0.375,0.504-0.59C271.789,54.415,271.842,54.126,271.842,53.765z"/>
	<path fill="#04703A" d="M104.339,87.124c-0.834,0-1.604-0.123-2.309-0.369c-0.706-0.246-1.313-0.612-1.82-1.1
		s-0.9-1.095-1.179-1.823c-0.279-0.729-0.418-1.57-0.418-2.524c0-0.889,0.133-1.695,0.399-2.418c0.266-0.724,0.653-1.344,1.16-1.861
		c0.487-0.497,1.091-0.881,1.812-1.152c0.721-0.271,1.508-0.407,2.362-0.407c0.472,0,0.898,0.026,1.277,0.079
		c0.379,0.053,0.729,0.122,1.051,0.208c0.336,0.095,0.642,0.202,0.916,0.32c0.274,0.118,0.514,0.227,0.72,0.328v2.72h-0.332
		c-0.141-0.12-0.318-0.262-0.531-0.427c-0.214-0.165-0.456-0.327-0.727-0.487c-0.276-0.16-0.575-0.295-0.896-0.405
		c-0.322-0.11-0.666-0.165-1.032-0.165c-0.407,0-0.794,0.064-1.16,0.192c-0.367,0.128-0.706,0.34-1.017,0.635
		c-0.297,0.286-0.537,0.664-0.72,1.135c-0.184,0.471-0.275,1.042-0.275,1.714c0,0.702,0.099,1.288,0.297,1.759
		c0.199,0.471,0.448,0.842,0.75,1.113c0.306,0.276,0.648,0.473,1.024,0.59c0.377,0.118,0.749,0.177,1.115,0.177
		c0.352,0,0.699-0.053,1.043-0.158c0.344-0.104,0.662-0.247,0.953-0.427c0.246-0.145,0.475-0.3,0.686-0.464
		c0.211-0.165,0.384-0.308,0.52-0.428h0.302v2.682c-0.282,0.126-0.55,0.244-0.806,0.354c-0.256,0.11-0.525,0.206-0.806,0.286
		c-0.367,0.105-0.711,0.186-1.032,0.241C105.344,87.097,104.902,87.124,104.339,87.124z"/>
	<path fill="#04703A" d="M121.344,81.3c0,1.788-0.512,3.208-1.537,4.261c-1.024,1.052-2.441,1.578-4.249,1.578
		c-1.803,0-3.217-0.526-4.242-1.578s-1.537-2.473-1.537-4.261c0-1.803,0.513-3.229,1.537-4.275c1.024-1.047,2.438-1.571,4.242-1.571
		c1.798,0,3.212,0.523,4.242,1.571C120.829,78.072,121.344,79.497,121.344,81.3z M117.509,84.141
		c0.281-0.341,0.49-0.745,0.625-1.209c0.136-0.465,0.204-1.011,0.204-1.639c0-0.673-0.078-1.246-0.234-1.718
		s-0.359-0.854-0.61-1.146c-0.256-0.301-0.551-0.52-0.885-0.655s-0.682-0.204-1.043-0.204c-0.367,0-0.712,0.065-1.036,0.196
		c-0.324,0.13-0.622,0.346-0.893,0.648c-0.251,0.281-0.456,0.669-0.614,1.164c-0.158,0.495-0.237,1.069-0.237,1.722
		c0,0.668,0.077,1.237,0.229,1.707c0.153,0.47,0.355,0.853,0.607,1.149c0.251,0.296,0.545,0.515,0.881,0.655
		c0.336,0.141,0.69,0.211,1.062,0.211c0.372,0,0.726-0.072,1.063-0.215S117.258,84.442,117.509,84.141z"/>
	<path fill="#04703A" d="M133.752,86.906h-2.788l-4.762-7.7v7.7h-2.652V75.688h3.458l4.091,6.427v-6.427h2.652V86.906z"/>
	<path fill="#04703A" d="M146.538,86.265c-0.502,0.196-1.168,0.391-1.997,0.584s-1.655,0.29-2.479,0.29
		c-1.909,0-3.403-0.519-4.482-1.556c-1.08-1.037-1.62-2.47-1.62-4.298c0-1.743,0.545-3.148,1.635-4.215
		c1.09-1.067,2.609-1.601,4.558-1.601c0.738,0,1.441,0.067,2.109,0.2c0.668,0.133,1.411,0.398,2.23,0.795v2.629h-0.324
		c-0.141-0.105-0.347-0.255-0.618-0.448c-0.271-0.193-0.533-0.358-0.784-0.494c-0.292-0.161-0.632-0.298-1.021-0.414
		s-0.802-0.173-1.239-0.173c-0.512,0-0.977,0.075-1.394,0.226c-0.417,0.15-0.791,0.382-1.123,0.693
		c-0.316,0.302-0.566,0.685-0.75,1.149c-0.184,0.465-0.275,1.001-0.275,1.609c0,1.241,0.329,2.19,0.987,2.848
		c0.658,0.658,1.63,0.987,2.916,0.987c0.111,0,0.232-0.003,0.366-0.008c0.133-0.005,0.255-0.012,0.365-0.022v-2.2h-2.238v-2.117
		h5.176V86.265z"/>
	<path fill="#04703A" d="M164.462,86.906h-2.894v-4.942h-4.271v4.942h-2.893V75.688h2.893v4.106h4.271v-4.106h2.894V86.906z"/>
	<path fill="#04703A" d="M178.234,81.3c0,1.788-0.512,3.208-1.537,4.261c-1.024,1.052-2.441,1.578-4.249,1.578
		c-1.803,0-3.217-0.526-4.242-1.578s-1.537-2.473-1.537-4.261c0-1.803,0.513-3.229,1.537-4.275c1.024-1.047,2.438-1.571,4.242-1.571
		c1.798,0,3.212,0.523,4.242,1.571C177.719,78.072,178.234,79.497,178.234,81.3z M174.399,84.141
		c0.281-0.341,0.49-0.745,0.625-1.209c0.136-0.465,0.204-1.011,0.204-1.639c0-0.673-0.078-1.246-0.234-1.718
		s-0.359-0.854-0.61-1.146c-0.256-0.301-0.551-0.52-0.885-0.655s-0.682-0.204-1.043-0.204c-0.367,0-0.712,0.065-1.036,0.196
		c-0.324,0.13-0.622,0.346-0.893,0.648c-0.251,0.281-0.456,0.669-0.614,1.164c-0.158,0.495-0.237,1.069-0.237,1.722
		c0,0.668,0.077,1.237,0.229,1.707c0.153,0.47,0.355,0.853,0.607,1.149c0.251,0.296,0.545,0.515,0.881,0.655
		c0.336,0.141,0.69,0.211,1.062,0.211c0.372,0,0.726-0.072,1.063-0.215S174.148,84.442,174.399,84.141z"/>
	<path fill="#04703A" d="M190.808,86.906h-2.988l-0.781-2.268h-4.151l-0.782,2.268h-2.916l4.144-11.218h3.33L190.808,86.906z
		 M186.344,82.581l-1.38-4.019l-1.38,4.019H186.344z"/>
	<path fill="#04703A" d="M207.617,86.265c-0.502,0.196-1.168,0.391-1.997,0.584s-1.655,0.29-2.479,0.29
		c-1.909,0-3.403-0.519-4.482-1.556c-1.08-1.037-1.62-2.47-1.62-4.298c0-1.743,0.545-3.148,1.635-4.215
		c1.09-1.067,2.609-1.601,4.558-1.601c0.738,0,1.441,0.067,2.109,0.2c0.668,0.133,1.411,0.398,2.23,0.795v2.629h-0.324
		c-0.141-0.105-0.347-0.255-0.618-0.448c-0.271-0.193-0.533-0.358-0.784-0.494c-0.292-0.161-0.632-0.298-1.021-0.414
		s-0.802-0.173-1.239-0.173c-0.512,0-0.977,0.075-1.394,0.226c-0.417,0.15-0.791,0.382-1.123,0.693
		c-0.316,0.302-0.566,0.685-0.75,1.149c-0.184,0.465-0.275,1.001-0.275,1.609c0,1.241,0.329,2.19,0.987,2.848
		c0.658,0.658,1.63,0.987,2.916,0.987c0.111,0,0.232-0.003,0.366-0.008c0.133-0.005,0.255-0.012,0.365-0.022v-2.2h-2.238v-2.117
		h5.176V86.265z"/>
	<path fill="#04703A" d="M220.576,86.906h-2.988l-0.781-2.268h-4.151l-0.782,2.268h-2.916l4.144-11.218h3.33L220.576,86.906z
		 M216.111,82.581l-1.38-4.019l-1.38,4.019H216.111z"/>
	<path fill="#04703A" d="M232.992,86.906h-3.534l-3.052-4.114h-1.34v4.114h-2.878V75.688h4.852c0.663,0,1.233,0.038,1.71,0.113
		c0.477,0.076,0.924,0.239,1.341,0.49c0.422,0.251,0.757,0.577,1.005,0.976c0.249,0.399,0.373,0.9,0.373,1.503
		c0,0.829-0.192,1.504-0.576,2.026c-0.384,0.522-0.933,0.957-1.646,1.304L232.992,86.906z M228.479,79.123
		c0-0.281-0.058-0.522-0.173-0.723c-0.116-0.201-0.314-0.359-0.595-0.475c-0.196-0.081-0.425-0.129-0.686-0.147
		c-0.261-0.018-0.565-0.026-0.912-0.026h-1.047v3.021h0.889c0.462,0,0.849-0.022,1.16-0.068c0.311-0.045,0.572-0.148,0.784-0.309
		c0.201-0.156,0.348-0.328,0.44-0.516C228.432,79.692,228.479,79.439,228.479,79.123z"/>
	<path fill="#04703A" d="M244.858,81.308c0,1.044-0.239,1.98-0.716,2.806c-0.478,0.826-1.08,1.46-1.809,1.902
		c-0.547,0.332-1.147,0.563-1.8,0.693c-0.653,0.13-1.427,0.196-2.321,0.196h-3.955V75.688h4.068c0.914,0,1.703,0.077,2.366,0.23
		c0.663,0.153,1.22,0.37,1.672,0.651c0.773,0.472,1.383,1.109,1.827,1.91S244.858,80.223,244.858,81.308z M241.867,81.285
		c0-0.738-0.134-1.37-0.403-1.895c-0.269-0.525-0.694-0.936-1.277-1.232c-0.296-0.146-0.599-0.245-0.908-0.298
		c-0.309-0.053-0.775-0.079-1.398-0.079h-0.73v7.022h0.73c0.688,0,1.193-0.031,1.515-0.094c0.321-0.063,0.635-0.177,0.942-0.343
		c0.527-0.301,0.914-0.705,1.16-1.209C241.744,82.653,241.867,82.029,241.867,81.285z"/>
	<path fill="#04703A" d="M255.18,86.906h-8.114V75.688h8.114v2.17h-5.236v1.936h4.859v2.17h-4.859v2.772h5.236V86.906z"/>
	<path fill="#04703A" d="M267.807,86.906h-2.788l-4.762-7.7v7.7h-2.652V75.688h3.458l4.091,6.427v-6.427h2.652V86.906z"/>
</g>
<rect x="173.514" y="312" fill="#008848" width="20" height="9"/>
<rect x="324" y="394" fill="#008848" width="20" height="9"/>
<rect x="543" y="126" fill="#008848" width="9" height="20"/>
<g>
	<g>
		<path fill="#04703A" d="M292.159,425.322c0,0.503-0.088,0.994-0.264,1.474s-0.427,0.883-0.753,1.209
			c-0.447,0.442-0.945,0.776-1.496,1.002c-0.55,0.227-1.234,0.339-2.053,0.339h-1.8V433H282.9v-11.219h4.761
			c0.713,0,1.315,0.063,1.805,0.185c0.49,0.124,0.923,0.309,1.299,0.555c0.452,0.296,0.797,0.675,1.036,1.137
			C292.04,424.12,292.159,424.675,292.159,425.322z M289.168,425.387c0-0.315-0.085-0.587-0.256-0.815
			c-0.171-0.228-0.369-0.387-0.595-0.478c-0.301-0.12-0.595-0.187-0.882-0.199c-0.286-0.012-0.668-0.019-1.145-0.019h-0.497v3.353
			h0.829c0.492,0,0.898-0.029,1.217-0.09s0.586-0.181,0.802-0.36c0.186-0.161,0.32-0.353,0.403-0.575
			C289.126,425.979,289.168,425.708,289.168,425.387z"/>
		<path fill="#04703A" d="M300.273,433h-6.57v-1.989h1.838v-7.24h-1.838v-1.989h6.57v1.989h-1.838v7.24h1.838V433z"/>
		<path fill="#04703A" d="M307.702,433.219c-0.834,0-1.604-0.123-2.309-0.369c-0.706-0.246-1.313-0.613-1.82-1.101
			c-0.507-0.486-0.9-1.095-1.179-1.823c-0.279-0.728-0.418-1.569-0.418-2.523c0-0.89,0.133-1.695,0.399-2.419
			c0.266-0.723,0.653-1.343,1.16-1.86c0.487-0.497,1.091-0.882,1.812-1.153c0.721-0.271,1.508-0.406,2.362-0.406
			c0.472,0,0.898,0.026,1.277,0.079c0.379,0.053,0.729,0.121,1.051,0.207c0.336,0.096,0.642,0.202,0.916,0.32
			s0.514,0.228,0.72,0.327v2.72h-0.332c-0.141-0.119-0.318-0.262-0.531-0.427c-0.214-0.165-0.456-0.327-0.727-0.487
			c-0.276-0.16-0.575-0.295-0.896-0.404c-0.322-0.11-0.666-0.165-1.032-0.165c-0.407,0-0.794,0.063-1.16,0.191
			c-0.367,0.128-0.706,0.34-1.017,0.636c-0.297,0.285-0.537,0.664-0.72,1.135c-0.184,0.472-0.275,1.043-0.275,1.715
			c0,0.701,0.099,1.288,0.297,1.759c0.199,0.472,0.448,0.842,0.75,1.112c0.306,0.276,0.648,0.473,1.024,0.591
			c0.377,0.118,0.749,0.177,1.115,0.177c0.352,0,0.699-0.053,1.043-0.157c0.344-0.105,0.662-0.248,0.953-0.428
			c0.246-0.145,0.475-0.3,0.686-0.465s0.384-0.307,0.52-0.427h0.302v2.682c-0.282,0.126-0.55,0.244-0.806,0.354
			c-0.256,0.11-0.525,0.206-0.806,0.286c-0.367,0.105-0.711,0.186-1.032,0.241C308.707,433.19,308.265,433.219,307.702,433.219z"/>
		<path fill="#04703A" d="M324.707,427.395c0,1.788-0.512,3.208-1.537,4.261c-1.024,1.052-2.441,1.578-4.249,1.578
			c-1.803,0-3.217-0.526-4.242-1.578c-1.024-1.053-1.537-2.473-1.537-4.261c0-1.803,0.513-3.229,1.537-4.275
			c1.024-1.048,2.438-1.571,4.242-1.571c1.798,0,3.212,0.523,4.242,1.571C324.192,424.166,324.707,425.592,324.707,427.395z
			 M320.872,430.235c0.281-0.342,0.49-0.745,0.625-1.21c0.136-0.464,0.204-1.011,0.204-1.639c0-0.673-0.078-1.245-0.234-1.718
			c-0.156-0.472-0.359-0.854-0.61-1.145c-0.256-0.302-0.551-0.521-0.885-0.656c-0.334-0.135-0.682-0.203-1.043-0.203
			c-0.367,0-0.712,0.065-1.036,0.196c-0.324,0.131-0.622,0.347-0.893,0.647c-0.251,0.281-0.456,0.67-0.614,1.164
			c-0.158,0.495-0.237,1.069-0.237,1.722c0,0.668,0.077,1.237,0.229,1.707c0.153,0.469,0.355,0.853,0.607,1.148
			c0.251,0.297,0.545,0.515,0.881,0.655s0.69,0.211,1.062,0.211c0.372,0,0.726-0.071,1.063-0.215
			C320.327,430.759,320.621,430.536,320.872,430.235z"/>
		<path fill="#04703A" d="M341.447,425.322c0,0.503-0.088,0.994-0.264,1.474s-0.427,0.883-0.754,1.209
			c-0.447,0.442-0.945,0.776-1.495,1.002c-0.55,0.227-1.234,0.339-2.054,0.339h-1.8V433h-2.894v-11.219h4.762
			c0.713,0,1.314,0.063,1.805,0.185c0.489,0.124,0.923,0.309,1.299,0.555c0.452,0.296,0.798,0.675,1.036,1.137
			C341.328,424.12,341.447,424.675,341.447,425.322z M338.456,425.387c0-0.315-0.086-0.587-0.256-0.815
			c-0.171-0.228-0.369-0.387-0.596-0.478c-0.301-0.12-0.595-0.187-0.882-0.199c-0.286-0.012-0.668-0.019-1.145-0.019h-0.497v3.353
			h0.828c0.492,0,0.898-0.029,1.217-0.09c0.319-0.061,0.587-0.181,0.803-0.36c0.186-0.161,0.32-0.353,0.403-0.575
			C338.414,425.979,338.456,425.708,338.456,425.387z"/>
		<path fill="#04703A" d="M351.588,433h-8.092v-11.219h2.894v9.049h5.198V433z"/>
		<path fill="#04703A" d="M363.696,433h-2.988l-0.781-2.268h-4.151L354.994,433h-2.916l4.144-11.219h3.33L363.696,433z
			 M359.231,428.676l-1.381-4.02l-1.38,4.02H359.231z"/>
		<path fill="#04703A" d="M373.979,433h-9.426v-2.102l5.59-6.947h-5.318v-2.17h8.853v2.141l-5.588,6.908h5.89V433z"/>
		<path fill="#04703A" d="M386.352,433h-2.988l-0.781-2.268h-4.151L377.649,433h-2.916l4.144-11.219h3.33L386.352,433z
			 M381.887,428.676l-1.381-4.02l-1.38,4.02H381.887z"/>
	</g>
</g>
<g>
	
		<rect x="163.435" y="114.152" fill="none" stroke="#008848" stroke-width="2" stroke-miterlimit="10" width="40.053" height="51.899"/>
	<line fill="none" stroke="#008848" stroke-width="2" stroke-miterlimit="10" x1="154.973" y1="169" x2="210.538" y2="169"/>
	<line fill="none" stroke="#008848" stroke-width="3" stroke-miterlimit="10" x1="162.538" y1="109" x2="204.538" y2="109"/>
	<rect x="169.64" y="119.511" fill="#008848" width="8.744" height="11"/>
	<rect x="178.384" y="148.282" fill="none" stroke="#008848" stroke-miterlimit="10" width="10.718" height="17.205"/>
	<rect x="188.256" y="119.511" fill="#008848" width="8.743" height="11"/>
	<rect x="169.64" y="134.46" fill="#008848" width="8.744" height="11"/>
	<rect x="188.256" y="134.46" fill="#008848" width="8.743" height="11"/>
</g>
<rect x="222.206" y="167.641" fill="#FFFFFF" width="46.257" height="3.103"/>
<line fill="none" stroke="#008848" stroke-width="2" stroke-miterlimit="10" x1="536" y1="326" x2="536" y2="0"/>
<line fill="none" stroke="#008848" stroke-width="2" stroke-miterlimit="10" x1="363" y1="177" x2="363" y2="0"/>
<g>
	<polygon fill="#008848" points="568,359.049 572.246,356.598 576.492,354.146 576.492,359.049 576.492,363.951 572.246,361.5 	"/>
</g>
<g>
	<rect x="163.087" y="174" fill="#FFFFFF" width="40.264" height="13"/>
	<polygon fill="#008848" points="183.253,179 185.704,183.245 188.155,187.491 183.253,187.491 178.351,187.491 180.802,183.245 	
		"/>
</g>
<polygon fill="#008848" points="345,203.2 349.246,200.749 353.492,198.298 353.492,203.2 353.492,208.103 349.246,205.651 "/>
<line fill="none" stroke="#008848" stroke-width="2" stroke-miterlimit="10" x1="363" y1="224" x2="363" y2="328"/>
<g>
	<g>
		
			<rect x="388.179" y="265.434" fill="none" stroke="#008848" stroke-width="3" stroke-miterlimit="10" width="122.028" height="52.077"/>
		<rect x="506.775" y="292" fill="#008848" width="6.225" height="25.815"/>
		<rect x="385" y="292" fill="#008848" width="6.225" height="25.815"/>
		
			<rect x="376.102" y="241" fill="none" stroke="#008848" stroke-width="3" stroke-miterlimit="10" width="147.066" height="24.257"/>
		<g>
			<path fill="#04703A" d="M390.607,256.513c-0.621,0-1.195-0.092-1.721-0.275c-0.527-0.184-0.979-0.457-1.357-0.82
				c-0.377-0.362-0.67-0.815-0.879-1.358c-0.207-0.543-0.311-1.17-0.311-1.881c0-0.663,0.1-1.264,0.297-1.803
				c0.199-0.539,0.486-1.001,0.865-1.387c0.363-0.371,0.813-0.657,1.35-0.859s1.125-0.304,1.762-0.304
				c0.352,0,0.668,0.021,0.951,0.06s0.543,0.091,0.783,0.154c0.252,0.071,0.479,0.15,0.682,0.238
				c0.205,0.088,0.383,0.17,0.537,0.244v2.027h-0.246c-0.105-0.089-0.238-0.195-0.396-0.318c-0.16-0.123-0.34-0.244-0.543-0.363
				c-0.205-0.119-0.428-0.22-0.668-0.302c-0.238-0.082-0.496-0.123-0.77-0.123c-0.303,0-0.59,0.048-0.863,0.144
				c-0.273,0.095-0.527,0.253-0.758,0.474c-0.223,0.213-0.4,0.495-0.537,0.846c-0.137,0.352-0.205,0.777-0.205,1.277
				c0,0.523,0.074,0.961,0.223,1.312c0.146,0.352,0.334,0.628,0.559,0.829c0.229,0.206,0.482,0.353,0.764,0.44
				c0.279,0.088,0.557,0.132,0.83,0.132c0.262,0,0.521-0.039,0.777-0.117c0.258-0.078,0.494-0.185,0.711-0.319
				c0.184-0.107,0.354-0.223,0.512-0.346c0.156-0.123,0.285-0.229,0.387-0.318h0.225v1.999c-0.209,0.094-0.41,0.182-0.602,0.264
				c-0.189,0.082-0.391,0.153-0.6,0.213c-0.273,0.079-0.529,0.139-0.77,0.181C391.355,256.492,391.027,256.513,390.607,256.513z"/>
			<path fill="#04703A" d="M403.281,252.172c0,1.333-0.381,2.392-1.145,3.176s-1.82,1.176-3.168,1.176
				c-1.344,0-2.398-0.392-3.162-1.176s-1.145-1.843-1.145-3.176c0-1.344,0.381-2.406,1.145-3.187s1.818-1.171,3.162-1.171
				c1.34,0,2.395,0.391,3.162,1.171S403.281,250.828,403.281,252.172z M400.424,254.289c0.209-0.255,0.365-0.556,0.465-0.901
				c0.102-0.347,0.152-0.754,0.152-1.222c0-0.501-0.059-0.928-0.174-1.28c-0.117-0.352-0.268-0.636-0.455-0.854
				c-0.191-0.225-0.41-0.388-0.66-0.488c-0.248-0.102-0.508-0.151-0.777-0.151c-0.273,0-0.531,0.049-0.771,0.146
				c-0.242,0.098-0.465,0.259-0.666,0.483c-0.188,0.209-0.34,0.499-0.457,0.867c-0.119,0.369-0.178,0.797-0.178,1.283
				c0,0.498,0.057,0.922,0.172,1.271c0.113,0.351,0.264,0.636,0.451,0.856s0.406,0.384,0.658,0.488
				c0.25,0.105,0.514,0.157,0.791,0.157s0.541-0.053,0.791-0.159C400.018,254.679,400.236,254.514,400.424,254.289z"/>
			<path fill="#04703A" d="M412.529,256.35h-2.078l-3.549-5.739v5.739h-1.977v-8.361h2.578l3.049,4.79v-4.79h1.977V256.35z"/>
			<path fill="#04703A" d="M422.059,255.872c-0.375,0.146-0.871,0.291-1.488,0.436c-0.617,0.144-1.234,0.216-1.848,0.216
				c-1.422,0-2.535-0.387-3.34-1.159c-0.807-0.773-1.209-1.841-1.209-3.204c0-1.299,0.406-2.346,1.219-3.142
				c0.813-0.795,1.945-1.193,3.398-1.193c0.549,0,1.074,0.05,1.572,0.149c0.498,0.099,1.051,0.297,1.662,0.592v1.96h-0.242
				c-0.105-0.078-0.258-0.189-0.461-0.334c-0.201-0.144-0.396-0.267-0.584-0.368c-0.217-0.119-0.471-0.223-0.76-0.309
				c-0.291-0.086-0.598-0.129-0.924-0.129c-0.383,0-0.729,0.056-1.039,0.168s-0.59,0.285-0.836,0.517
				c-0.236,0.225-0.424,0.511-0.561,0.856c-0.137,0.347-0.203,0.746-0.203,1.199c0,0.925,0.244,1.632,0.734,2.122
				c0.49,0.491,1.215,0.736,2.174,0.736c0.082,0,0.172-0.002,0.271-0.006s0.189-0.01,0.273-0.017v-1.64h-1.668v-1.578h3.857V255.872
				z"/>
			<path fill="#04703A" d="M435.418,256.35h-2.156v-3.684h-3.184v3.684h-2.156v-8.361h2.156v3.061h3.184v-3.061h2.156V256.35z"/>
			<path fill="#04703A" d="M445.682,252.172c0,1.333-0.381,2.392-1.145,3.176s-1.82,1.176-3.168,1.176
				c-1.344,0-2.398-0.392-3.162-1.176s-1.145-1.843-1.145-3.176c0-1.344,0.381-2.406,1.145-3.187s1.818-1.171,3.162-1.171
				c1.34,0,2.395,0.391,3.162,1.171S445.682,250.828,445.682,252.172z M442.824,254.289c0.209-0.255,0.365-0.556,0.465-0.901
				c0.102-0.347,0.152-0.754,0.152-1.222c0-0.501-0.059-0.928-0.174-1.28c-0.117-0.352-0.268-0.636-0.455-0.854
				c-0.191-0.225-0.41-0.388-0.66-0.488c-0.248-0.102-0.508-0.151-0.777-0.151c-0.273,0-0.531,0.049-0.771,0.146
				c-0.242,0.098-0.465,0.259-0.666,0.483c-0.188,0.209-0.34,0.499-0.457,0.867c-0.119,0.369-0.178,0.797-0.178,1.283
				c0,0.498,0.057,0.922,0.172,1.271c0.113,0.351,0.264,0.636,0.451,0.856s0.406,0.384,0.658,0.488
				c0.25,0.105,0.514,0.157,0.791,0.157s0.541-0.053,0.791-0.159C442.418,254.679,442.637,254.514,442.824,254.289z"/>
			<path fill="#04703A" d="M455.055,256.35h-2.229l-0.582-1.69h-3.094l-0.582,1.69h-2.174l3.09-8.361h2.48L455.055,256.35z
				 M451.727,253.126l-1.029-2.995l-1.029,2.995H451.727z"/>
			<path fill="#04703A" d="M467.58,255.872c-0.373,0.146-0.869,0.291-1.486,0.436c-0.619,0.144-1.234,0.216-1.848,0.216
				c-1.424,0-2.537-0.387-3.342-1.159c-0.805-0.773-1.207-1.841-1.207-3.204c0-1.299,0.406-2.346,1.219-3.142
				c0.813-0.795,1.943-1.193,3.396-1.193c0.551,0,1.074,0.05,1.572,0.149c0.498,0.099,1.053,0.297,1.662,0.592v1.96h-0.24
				c-0.105-0.078-0.26-0.189-0.461-0.334c-0.203-0.144-0.396-0.267-0.584-0.368c-0.217-0.119-0.471-0.223-0.762-0.309
				c-0.289-0.086-0.598-0.129-0.924-0.129c-0.381,0-0.729,0.056-1.039,0.168s-0.588,0.285-0.836,0.517
				c-0.236,0.225-0.422,0.511-0.559,0.856c-0.137,0.347-0.205,0.746-0.205,1.199c0,0.925,0.246,1.632,0.736,2.122
				c0.49,0.491,1.215,0.736,2.172,0.736c0.082,0,0.174-0.002,0.273-0.006c0.098-0.004,0.189-0.01,0.271-0.017v-1.64h-1.668v-1.578
				h3.857V255.872z"/>
			<path fill="#04703A" d="M477.24,256.35h-2.229l-0.582-1.69h-3.094l-0.582,1.69h-2.174l3.09-8.361h2.48L477.24,256.35z
				 M473.912,253.126l-1.029-2.995l-1.029,2.995H473.912z"/>
			<path fill="#04703A" d="M486.494,256.35h-2.635l-2.273-3.066h-1v3.066h-2.145v-8.361h3.617c0.494,0,0.918,0.028,1.273,0.084
				c0.355,0.057,0.689,0.179,1,0.365c0.314,0.188,0.564,0.43,0.75,0.728s0.277,0.671,0.277,1.12c0,0.617-0.143,1.121-0.43,1.511
				c-0.287,0.389-0.695,0.713-1.227,0.971L486.494,256.35z M483.131,250.549c0-0.209-0.043-0.389-0.129-0.539
				c-0.088-0.149-0.234-0.268-0.445-0.354c-0.145-0.06-0.316-0.097-0.51-0.109c-0.195-0.014-0.422-0.02-0.68-0.02h-0.781v2.251
				h0.664c0.344,0,0.631-0.017,0.863-0.05c0.232-0.034,0.428-0.11,0.584-0.23c0.15-0.116,0.26-0.244,0.328-0.385
				C483.096,250.973,483.131,250.785,483.131,250.549z"/>
			<path fill="#04703A" d="M495.338,252.178c0,0.778-0.178,1.476-0.533,2.092c-0.357,0.615-0.807,1.088-1.348,1.417
				c-0.408,0.247-0.855,0.42-1.344,0.517c-0.486,0.098-1.063,0.146-1.729,0.146h-2.947v-8.361h3.031c0.682,0,1.27,0.058,1.764,0.172
				s0.91,0.275,1.246,0.485c0.576,0.352,1.031,0.826,1.361,1.424C495.172,250.666,495.338,251.369,495.338,252.178z M493.107,252.16
				c0-0.55-0.1-1.021-0.301-1.412c-0.199-0.391-0.518-0.697-0.951-0.918c-0.221-0.108-0.445-0.183-0.676-0.222
				s-0.578-0.059-1.043-0.059h-0.543v5.233h0.543c0.514,0,0.891-0.023,1.129-0.07c0.24-0.047,0.475-0.132,0.703-0.256
				c0.393-0.225,0.68-0.524,0.863-0.901C493.016,253.18,493.107,252.715,493.107,252.16z"/>
			<path fill="#04703A" d="M503.029,256.35h-6.047v-8.361h6.047v1.617h-3.902v1.443h3.623v1.617h-3.623v2.066h3.902V256.35z"/>
			<path fill="#04703A" d="M512.441,256.35h-2.076l-3.549-5.739v5.739h-1.977v-8.361h2.576l3.049,4.79v-4.79h1.977V256.35z"/>
		</g>
	</g>
	<rect x="368" y="315" fill="#FFFFFF" width="166.264" height="35"/>
</g>
<rect x="364" y="322" fill="#FFFFFF" width="6" height="11"/>
<rect x="529" y="322" fill="#FFFFFF" width="6" height="11"/>
<g>
	<g>
		<path fill="#04703A" d="M373.238,363.639c-0.835,0-1.604-0.123-2.31-0.369c-0.706-0.246-1.313-0.613-1.82-1.101
			c-0.507-0.486-0.899-1.095-1.178-1.823c-0.279-0.728-0.419-1.569-0.419-2.523c0-0.89,0.134-1.695,0.399-2.419
			c0.266-0.723,0.652-1.343,1.16-1.86c0.487-0.497,1.091-0.882,1.813-1.153c0.721-0.271,1.508-0.406,2.361-0.406
			c0.473,0,0.897,0.026,1.277,0.079c0.379,0.053,0.729,0.121,1.051,0.207c0.337,0.096,0.642,0.202,0.915,0.32
			c0.274,0.118,0.514,0.228,0.72,0.327v2.72h-0.331c-0.141-0.119-0.318-0.262-0.531-0.427c-0.214-0.165-0.456-0.327-0.728-0.487
			c-0.276-0.16-0.575-0.295-0.896-0.404c-0.321-0.11-0.665-0.165-1.032-0.165c-0.406,0-0.793,0.063-1.16,0.191
			c-0.366,0.128-0.706,0.34-1.017,0.636c-0.297,0.285-0.537,0.664-0.72,1.135c-0.184,0.472-0.275,1.043-0.275,1.715
			c0,0.701,0.1,1.288,0.298,1.759c0.199,0.472,0.448,0.842,0.75,1.112c0.307,0.276,0.648,0.473,1.024,0.591
			c0.377,0.118,0.748,0.177,1.115,0.177c0.352,0,0.699-0.053,1.043-0.157c0.345-0.105,0.662-0.248,0.953-0.428
			c0.246-0.145,0.475-0.3,0.686-0.465s0.385-0.307,0.521-0.427h0.301v2.682c-0.281,0.126-0.55,0.244-0.806,0.354
			c-0.257,0.11-0.525,0.206-0.807,0.286c-0.366,0.105-0.711,0.186-1.032,0.241C374.242,363.61,373.8,363.639,373.238,363.639z"/>
		<path fill="#04703A" d="M390.242,357.814c0,1.788-0.513,3.208-1.537,4.261c-1.024,1.052-2.44,1.578-4.249,1.578
			c-1.804,0-3.217-0.526-4.242-1.578c-1.024-1.053-1.536-2.473-1.536-4.261c0-1.803,0.512-3.229,1.536-4.275
			c1.025-1.048,2.438-1.571,4.242-1.571c1.798,0,3.212,0.523,4.242,1.571C389.728,354.586,390.242,356.012,390.242,357.814z
			 M386.407,360.655c0.281-0.342,0.49-0.745,0.626-1.21c0.135-0.464,0.203-1.011,0.203-1.639c0-0.673-0.078-1.245-0.233-1.718
			c-0.156-0.472-0.359-0.854-0.61-1.145c-0.257-0.302-0.552-0.521-0.886-0.656c-0.334-0.135-0.682-0.203-1.043-0.203
			c-0.367,0-0.712,0.065-1.036,0.196s-0.622,0.347-0.893,0.647c-0.252,0.281-0.456,0.67-0.614,1.164
			c-0.158,0.495-0.237,1.069-0.237,1.722c0,0.668,0.076,1.237,0.229,1.707c0.153,0.469,0.355,0.853,0.606,1.148
			c0.251,0.297,0.545,0.515,0.882,0.655c0.336,0.141,0.69,0.211,1.063,0.211c0.371,0,0.726-0.071,1.063-0.215
			C385.862,361.179,386.156,360.956,386.407,360.655z"/>
		<path fill="#04703A" d="M402.651,363.42h-2.788l-4.762-7.7v7.7h-2.651v-11.219h3.458l4.091,6.427v-6.427h2.652V363.42z"/>
		<path fill="#04703A" d="M415.436,362.779c-0.502,0.196-1.167,0.391-1.996,0.584s-1.655,0.29-2.479,0.29
			c-1.909,0-3.403-0.519-4.483-1.556s-1.619-2.47-1.619-4.298c0-1.743,0.545-3.148,1.635-4.216s2.609-1.601,4.558-1.601
			c0.738,0,1.441,0.066,2.109,0.199c0.668,0.134,1.412,0.398,2.23,0.795v2.63h-0.324c-0.141-0.105-0.347-0.255-0.617-0.448
			c-0.271-0.193-0.532-0.358-0.784-0.494c-0.291-0.16-0.631-0.299-1.021-0.414s-0.803-0.174-1.239-0.174
			c-0.513,0-0.977,0.076-1.394,0.227s-0.791,0.382-1.123,0.693c-0.316,0.301-0.566,0.685-0.75,1.148
			c-0.183,0.465-0.274,1.001-0.274,1.608c0,1.241,0.329,2.19,0.987,2.849c0.657,0.657,1.63,0.986,2.915,0.986
			c0.11,0,0.232-0.002,0.365-0.007c0.134-0.006,0.255-0.013,0.366-0.023v-2.199h-2.238v-2.117h5.176V362.779z"/>
		<path fill="#04703A" d="M433.359,363.42h-2.893v-4.942h-4.272v4.942h-2.893v-11.219h2.893v4.106h4.272v-4.106h2.893V363.42z"/>
		<path fill="#04703A" d="M447.133,357.814c0,1.788-0.513,3.208-1.537,4.261c-1.024,1.052-2.44,1.578-4.249,1.578
			c-1.804,0-3.217-0.526-4.242-1.578c-1.024-1.053-1.536-2.473-1.536-4.261c0-1.803,0.512-3.229,1.536-4.275
			c1.025-1.048,2.438-1.571,4.242-1.571c1.798,0,3.212,0.523,4.242,1.571C446.618,354.586,447.133,356.012,447.133,357.814z
			 M443.298,360.655c0.281-0.342,0.49-0.745,0.626-1.21c0.135-0.464,0.203-1.011,0.203-1.639c0-0.673-0.078-1.245-0.233-1.718
			c-0.156-0.472-0.359-0.854-0.61-1.145c-0.257-0.302-0.552-0.521-0.886-0.656c-0.334-0.135-0.682-0.203-1.043-0.203
			c-0.367,0-0.712,0.065-1.036,0.196s-0.622,0.347-0.893,0.647c-0.252,0.281-0.456,0.67-0.614,1.164
			c-0.158,0.495-0.237,1.069-0.237,1.722c0,0.668,0.076,1.237,0.229,1.707c0.153,0.469,0.355,0.853,0.606,1.148
			c0.251,0.297,0.545,0.515,0.882,0.655c0.336,0.141,0.69,0.211,1.063,0.211c0.371,0,0.726-0.071,1.063-0.215
			C442.753,361.179,443.047,360.956,443.298,360.655z"/>
		<path fill="#04703A" d="M459.707,363.42h-2.988l-0.781-2.268h-4.151l-0.781,2.268h-2.916l4.144-11.219h3.33L459.707,363.42z
			 M455.242,359.096l-1.381-4.02l-1.38,4.02H455.242z"/>
		<path fill="#04703A" d="M475.573,359.894c0,1.105-0.469,2.003-1.405,2.693c-0.937,0.691-2.209,1.036-3.815,1.036
			c-0.93,0-1.739-0.081-2.43-0.244c-0.691-0.164-1.338-0.371-1.94-0.622v-2.689h0.316c0.598,0.478,1.267,0.844,2.008,1.1
			c0.741,0.257,1.453,0.385,2.136,0.385c0.176,0,0.407-0.016,0.693-0.046c0.286-0.029,0.52-0.08,0.7-0.15
			c0.222-0.09,0.403-0.203,0.547-0.339c0.143-0.136,0.215-0.337,0.215-0.603c0-0.246-0.104-0.459-0.313-0.637
			c-0.208-0.179-0.513-0.315-0.915-0.411c-0.422-0.1-0.867-0.194-1.337-0.282s-0.911-0.199-1.322-0.335
			c-0.944-0.307-1.624-0.723-2.038-1.247s-0.622-1.177-0.622-1.955c0-1.045,0.469-1.897,1.405-2.558
			c0.937-0.661,2.141-0.991,3.613-0.991c0.738,0,1.468,0.071,2.188,0.215s1.345,0.323,1.872,0.539v2.584h-0.309
			c-0.452-0.361-1.006-0.664-1.662-0.908c-0.655-0.243-1.324-0.365-2.008-0.365c-0.241,0-0.48,0.017-0.719,0.049
			c-0.239,0.033-0.469,0.095-0.689,0.185c-0.196,0.075-0.364,0.189-0.505,0.343s-0.211,0.328-0.211,0.523
			c0,0.297,0.112,0.524,0.339,0.683c0.226,0.158,0.652,0.303,1.28,0.433c0.412,0.086,0.808,0.169,1.188,0.249
			c0.379,0.08,0.787,0.19,1.224,0.331c0.859,0.281,1.493,0.665,1.902,1.149S475.573,359.12,475.573,359.894z"/>
		<path fill="#04703A" d="M486.333,354.371h-3.504v9.049h-2.893v-9.049h-3.504v-2.17h9.9V354.371z"/>
		<path fill="#04703A" d="M498.877,363.42h-3.533l-3.053-4.113h-1.34v4.113h-2.878v-11.219h4.852c0.663,0,1.233,0.038,1.711,0.113
			c0.477,0.075,0.924,0.239,1.341,0.49c0.422,0.251,0.757,0.576,1.006,0.976c0.248,0.399,0.373,0.9,0.373,1.503
			c0,0.829-0.192,1.504-0.577,2.026c-0.384,0.522-0.933,0.957-1.646,1.304L498.877,363.42z M494.364,355.637
			c0-0.281-0.058-0.521-0.174-0.723c-0.115-0.201-0.313-0.359-0.595-0.475c-0.196-0.08-0.425-0.13-0.686-0.147
			c-0.262-0.018-0.565-0.026-0.912-0.026h-1.047v3.021h0.889c0.462,0,0.849-0.022,1.16-0.067c0.312-0.046,0.573-0.148,0.784-0.31
			c0.2-0.155,0.348-0.327,0.44-0.516S494.364,355.953,494.364,355.637z"/>
		<path fill="#04703A" d="M508.257,363.42h-8.114v-11.219h8.114v2.17h-5.236v1.937h4.859v2.17h-4.859v2.772h5.236V363.42z"/>
		<path fill="#04703A" d="M518.797,363.42h-8.114v-11.219h8.114v2.17h-5.236v1.937h4.859v2.17h-4.859v2.772h5.236V363.42z"/>
		<path fill="#04703A" d="M530,354.371h-3.504v9.049h-2.893v-9.049H520.1v-2.17h9.9V354.371z"/>
	</g>
</g>
<polygon fill="#008848" points="449.049,291 451.5,295.246 453.951,299.492 449.049,299.492 444.146,299.492 446.598,295.246 "/>
<g>
	<rect x="448.049" y="302" fill="#008848" width="2" height="7"/>
	<rect x="448.049" y="312" fill="#008848" width="2" height="7"/>
	<rect x="448.049" y="322" fill="#008848" width="2" height="7"/>
</g>
<g>
	<rect x="579" y="358.049" fill="#008848" width="7" height="2"/>
	<rect x="589" y="358.049" fill="#008848" width="7" height="2"/>
	<rect x="599" y="358.049" fill="#008848" width="7" height="2"/>
</g>
<g>
	<rect x="356" y="202.2" fill="#008848" width="7" height="2"/>
	<rect x="366" y="202.2" fill="#008848" width="7" height="2"/>
	<rect x="376" y="202.2" fill="#008848" width="7" height="2"/>
</g>
<g>
	<g>
		<rect x="182" y="202" fill="#008848" width="5" height="2"/>
		<rect x="190" y="202" fill="#008848" width="7" height="2"/>
		<rect x="200" y="202" fill="#008848" width="7" height="2"/>
	</g>
	<g>
		<rect x="182" y="189" fill="#008848" width="2" height="7"/>
		<rect x="182" y="199" fill="#008848" width="2" height="5"/>
	</g>
</g>
</svg>
