<?xml version="1.0" encoding="utf-8"?>
<!-- Generator: Adobe Illustrator 23.0.6, SVG Export Plug-In . SVG Version: 6.00 Build 0)  -->
<svg version="1.1" id="Layer_1" xmlns="http://www.w3.org/2000/svg" xmlns:xlink="http://www.w3.org/1999/xlink" x="0px" y="0px"
	 viewBox="0 0 2892 1300" style="enable-background:new 0 0 2892 1300;" xml:space="preserve">
<style type="text/css">
	.st0{fill:#f4f7f8;}
	.st1{fill:#2A9766;}
</style>
<rect x="-0.2" y="-1" class="st0" width="2892" height="1300"/>
<g>
	<g>
		<g>
			<path class="st1" d="M1994.2,745.7c-1.1,0-2.1-0.4-2.9-1.2c-0.2-0.2-0.3-0.3-0.4-0.5l-0.1-0.1l-0.3-0.6c-0.4-0.7-1-1.6-1.5-2.6
				c-1.8-3-3.1-5.1-3.2-6.2c-0.2-1.5,0.2-3.8,0.6-6.1s0.8-4.6,0.6-6c-0.4-2.4-4.6-11.3-6.1-14.5l-2.6-5.4l24.6,24.6
				c2.5,2.5,6.2,3,8.1,1l1.4,1.4l-15,15C1996.3,745.3,1995.2,745.7,1994.2,745.7z M1992.4,742.8c0.1,0.1,0.1,0.2,0.2,0.2
				c0.8,0.8,2.2,0.8,3.1,0l11.8-11.8c-2.2,0-4.5-1-6.3-2.8l-16.3-16.3c1.7,3.6,3.6,8,3.8,9.9c0.3,1.7-0.2,4.2-0.6,6.7
				c-0.4,2.1-0.7,4.3-0.6,5.5c0.1,0.9,1.8,3.6,3,5.5c0.6,1,1.2,1.9,1.6,2.6L1992.4,742.8z"/>
		</g>
		<g>
			<path class="st1" d="M2020.1,721.5l-1.4-1.4c2-2,1.5-5.6-1-8.1l-24.6-24.6l5.4,2.6c3.2,1.6,12.1,5.8,14.5,6.1
				c1.4,0.2,3.8-0.2,6-0.6c2.4-0.4,4.6-0.8,6.1-0.6c1.2,0.2,3.2,1.4,6.2,3.2c1,0.6,1.9,1.1,2.6,1.5l0.7,0.4c0.2,0.1,0.4,0.3,0.5,0.4
				c1.6,1.6,1.6,4.3,0,5.9L2020.1,721.5z M2002.8,694.3l16.3,16.3c1.8,1.8,2.8,4.1,2.8,6.3l11.8-11.8c0.8-0.8,0.8-2.2,0-3
				c-0.1-0.1-0.2-0.1-0.2-0.2l-0.5-0.3c-0.7-0.4-1.7-1-2.6-1.6c-1.8-1.1-4.6-2.8-5.5-3c-1.2-0.2-3.4,0.2-5.5,0.6
				c-2.4,0.4-4.9,0.8-6.7,0.6C2010.8,697.8,2006.4,695.9,2002.8,694.3z"/>
		</g>
		<g>
			<path class="st1" d="M2007.6,731.3c-2.2,0-4.5-0.9-6.4-2.8l-21.4-21.4c-7.5-7.5-9.8-12.4-11-17.3c-1.4-5.9,1.7-9,2.1-9.4
				s3.5-3.5,9.4-2.1l0,0c5,1.1,9.8,3.5,17.3,11l21.4,21.4c3.3,3.3,3.7,8.2,1,11l-7.9,7.9C2010.9,730.7,2009.3,731.3,2007.6,731.3z
				 M1977.4,679.8c-3.3,0-5,1.7-5,1.8l-0.1,0.1c-0.1,0.1-2.7,2.5-1.5,7.5c0.9,3.7,2.5,8.4,10.4,16.4l21.4,21.4c2.5,2.5,6.2,3,8.1,1
				l7.9-7.9c2-2,1.5-5.6-1-8.1l-21.4-21.4c-8-8-12.6-9.6-16.4-10.4l0,0C1979,679.9,1978.1,679.8,1977.4,679.8z"/>
		</g>
		<g>
			<path class="st1" d="M2016.6,743.4l-0.7-0.7c-3.5-3.5-5-6.8-5.5-8.9c-0.7-2.6-0.6-4.8,0.4-5.8l7.9-7.9c1-1,3.2-1.1,5.8-0.4
				c2.1,0.6,5.4,2,8.9,5.5l0.7,0.7L2016.6,743.4z M2020.1,721.5l-7.9,7.9c-0.6,0.7-0.6,5.6,4.5,11.1l14.6-14.6
				C2025.7,720.9,2020.8,720.9,2020.1,721.5z"/>
		</g>
	</g>
	<g>
		
			<rect x="2034.6" y="736.3" transform="matrix(0.7071 -0.7071 0.7071 0.7071 67.0329 1658.5726)" class="st1" width="2" height="24.2"/>
	</g>
	<g>
		<rect x="2032" y="735.3" transform="matrix(0.707 -0.7072 0.7072 0.707 73.1261 1654.1924)" class="st1" width="2" height="7.1"/>
	</g>
	<g>
		<g>
			<path class="st1" d="M1977.8,696.2l-0.7-1.1c-1-1.6-1.4-3-1.6-3.9c-0.7-3.1,0.8-4.7,1.2-5c0.3-0.3,2-1.9,5-1.2l0,0
				c1,0.2,2.3,0.6,3.9,1.6l1.1,0.7L1977.8,696.2z M1980.2,686.8c-1.4,0-2,0.7-2,0.7l-0.1,0.1c0,0-1.1,1-0.6,3.1
				c0.1,0.6,0.3,1.4,0.7,2.2l5.3-5.3c-0.9-0.4-1.6-0.6-2.2-0.8C1980.9,686.8,1980.6,686.8,1980.2,686.8z"/>
		</g>
	</g>
</g>
<g>
	<path class="st1" d="M1610.1,980.8c-19.1,0-36.9-8.4-49.2-23c-14.4,10.9-31.5,16.7-49.5,16.7c-33.5,0-63.9-20.8-76.2-51.8
		c-5.1,2.9-10.9,4.4-16.8,4.4c-19,0-34.5-15.5-34.5-34.5s15.5-34.5,34.5-34.5c5.9,0,11.7,1.5,16.8,4.4
		c12.3-31.1,42.8-51.8,76.2-51.8c31.6,0,60.5,18.4,74.1,46.9c7.8-3.3,16.1-4.9,24.6-4.9c35.4,0,64.1,28.8,64.1,64.1
		C1674.2,952,1645.4,980.8,1610.1,980.8z M1561.2,955.1l0.6,0.8c11.9,14.6,29.4,23,48.2,23c34.3,0,62.1-27.9,62.1-62.1
		c0-34.3-27.9-62.1-62.1-62.1c-8.6,0-16.9,1.7-24.7,5.1l-0.9,0.4l-0.4-0.9c-13-28.3-41.5-46.6-72.7-46.6c-33,0-63.1,20.8-74.8,51.6
		l-0.4,1.1l-1-0.6c-5.1-3.1-10.9-4.7-16.8-4.7c-17.9,0-32.5,14.6-32.5,32.5s14.6,32.5,32.5,32.5c5.9,0,11.8-1.6,16.8-4.7l1-0.6
		l0.4,1.1c11.7,30.9,41.8,51.6,74.8,51.6c18,0,34.9-5.8,49.1-16.9L1561.2,955.1z"/>
</g>
<g>
	<path class="st1" d="M1974.6,604.2c-6.6,0-12.9-2.5-17.7-7c-1.4,0.4-2.8,0.6-4.3,0.6c-9.2,0-16.6-7.5-16.6-16.6
		c0-4.8,2.1-9.4,5.7-12.5c-1.8-2.9-2.8-6.1-3-9.4c-0.3-5.4,1.5-10.7,5.1-14.8s8.6-6.5,14-6.9c8.1-0.5,15.7,3.9,19.4,11
		c1.9-0.8,4-1.3,6.1-1.5c4.9-0.3,9.7,1.3,13.4,4.6s5.9,7.8,6.2,12.7l0,0c0.2,3.7-0.6,7.3-2.5,10.5c0.1,1.1,0.2,2.2,0.2,3.2
		C2000.6,592.5,1988.9,604.2,1974.6,604.2z M1957.4,595l0.4,0.4c4.5,4.4,10.5,6.8,16.7,6.8c13.2,0,24-10.8,24-24
		c0-1.1-0.1-2.2-0.2-3.3v-0.4l0.2-0.3c1.8-2.9,2.6-6.3,2.4-9.7c-0.3-4.4-2.2-8.4-5.6-11.3c-3.3-2.9-7.5-4.4-11.9-4.1
		c-2.2,0.1-4.3,0.7-6.3,1.7l-0.9,0.5l-0.4-0.9c-3.1-6.9-10.3-11.3-17.9-10.8c-4.9,0.3-9.4,2.5-12.7,6.2s-4.9,8.4-4.6,13.3
		c0.2,3.3,1.3,6.4,3.2,9.2l0.5,0.8l-0.7,0.6c-3.6,2.8-5.7,7-5.7,11.5c0,8.1,6.6,14.6,14.6,14.6c1.5,0,2.9-0.2,4.3-0.6L1957.4,595z"
		/>
</g>
<g>
	<path class="st1" d="M1766,769.6c-5.3,0-9.6-4.3-9.6-9.6s4.3-9.6,9.6-9.6s9.6,4.3,9.6,9.6S1771.3,769.6,1766,769.6z M1766,752.5
		c-4.2,0-7.6,3.4-7.6,7.6s3.4,7.6,7.6,7.6s7.6-3.4,7.6-7.6S1770.2,752.5,1766,752.5z"/>
</g>
<g>
	<path class="st1" d="M827.6,1098.7c-5.3,0-9.6-4.3-9.6-9.6s4.3-9.6,9.6-9.6s9.6,4.3,9.6,9.6S832.9,1098.7,827.6,1098.7z
		 M827.6,1081.5c-4.2,0-7.6,3.4-7.6,7.6s3.4,7.6,7.6,7.6c4.2,0,7.6-3.4,7.6-7.6S831.7,1081.5,827.6,1081.5z"/>
</g>
<g>
	<path class="st1" d="M1911.4,1075.4c-5.3,0-9.6-4.3-9.6-9.6s4.3-9.6,9.6-9.6s9.6,4.3,9.6,9.6S1916.7,1075.4,1911.4,1075.4z
		 M1911.4,1058.3c-4.2,0-7.6,3.4-7.6,7.6s3.4,7.6,7.6,7.6s7.6-3.4,7.6-7.6S1915.6,1058.3,1911.4,1058.3z"/>
</g>
<g>
	<path class="st1" d="M2300.2,324.4c-5.3,0-9.6-4.3-9.6-9.6s4.3-9.6,9.6-9.6s9.6,4.3,9.6,9.6S2305.5,324.4,2300.2,324.4z
		 M2300.2,307.2c-4.2,0-7.6,3.4-7.6,7.6s3.4,7.6,7.6,7.6s7.6-3.4,7.6-7.6S2304.4,307.2,2300.2,307.2z"/>
</g>
<g>
	<path class="st1" d="M2112.9,721.9c-8.6,0-15.5-7-15.5-15.5c0-8.6,7-15.5,15.5-15.5c8.6,0,15.5,7,15.5,15.5
		S2121.5,721.9,2112.9,721.9z M2112.9,692.9c-7.5,0-13.5,6.1-13.5,13.5s6.1,13.5,13.5,13.5s13.5-6.1,13.5-13.5
		S2120.4,692.9,2112.9,692.9z"/>
</g>
<g>
	<path class="st1" d="M2442.5,546.8c-4.6,0-8.3-3.7-8.3-8.3s3.7-8.3,8.3-8.3s8.3,3.7,8.3,8.3S2447.1,546.8,2442.5,546.8z
		 M2442.5,532.3c-3.5,0-6.3,2.8-6.3,6.3s2.8,6.3,6.3,6.3s6.3-2.8,6.3-6.3S2446,532.3,2442.5,532.3z"/>
</g>
<g>
	<path class="st1" d="M708.3,1185.4c-22.1,0-40.1-18-40.1-40.1s18-40.1,40.1-40.1s40.1,18,40.1,40.1S730.4,1185.4,708.3,1185.4z
		 M708.3,1107.3c-21,0-38.1,17.1-38.1,38.1s17.1,38.1,38.1,38.1s38.1-17.1,38.1-38.1C746.3,1124.4,729.3,1107.3,708.3,1107.3z"/>
</g>
<g>
	<path class="st1" d="M2159.1,512.4h-2c0-6.7-6-13.3-9.6-13.3v-2c3.5,0,9.6-6.6,9.6-13.3h2c0,6.7,6,13.3,9.6,13.3v2
		C2165.1,499.1,2159.1,505.7,2159.1,512.4z M2150.8,498.1c2.9,1.6,5.8,5.1,7.2,9c1.5-4,4.4-7.4,7.2-9c-2.9-1.6-5.8-5.1-7.2-9
		C2156.6,493.1,2153.7,496.5,2150.8,498.1z"/>
</g>
<g>
	<path class="st1" d="M561.5,997.3h-2c0-5.9-2.5-12.4-6.8-17.9c-3.9-5-8.7-8.2-12.2-8.2v-2c7.7,0,19-13.7,19-26.1h2
		c0,5.9,2.5,12.4,6.8,17.9c3.9,5,8.7,8.2,12.2,8.2v2C572.8,971.3,561.5,985,561.5,997.3z M544.7,970.3c3.2,1.4,6.6,4.2,9.5,8
		c2.9,3.7,5,7.9,6.2,12.1c1.2-4.2,3.3-8.4,6.2-12.1c2.9-3.8,6.3-6.6,9.5-8c-3.2-1.4-6.6-4.2-9.5-8c-2.9-3.7-5-7.9-6.2-12.1
		c-1.2,4.2-3.3,8.4-6.2,12.1C551.3,966.1,547.9,968.9,544.7,970.3z"/>
</g>
<g>
	<path class="st1" d="M2490.2,421.3h-2c0-5.9-2.5-12.4-6.8-17.9c-3.9-5-8.7-8.2-12.2-8.2v-2c7.7,0,19-13.7,19-26.1h2
		c0,5.9,2.5,12.4,6.8,17.9c3.9,5,8.7,8.2,12.2,8.2v2C2501.5,395.3,2490.2,409,2490.2,421.3z M2473.4,394.3c3.2,1.4,6.6,4.2,9.5,8
		c2.9,3.7,5,7.9,6.2,12.1c1.2-4.2,3.3-8.4,6.2-12.1c2.9-3.8,6.3-6.6,9.5-8c-3.2-1.4-6.6-4.2-9.5-8c-2.9-3.7-5-7.9-6.2-12.1
		c-1.2,4.2-3.3,8.4-6.2,12.1C2480,390.1,2476.6,392.9,2473.4,394.3z"/>
</g>
<g>
	<path class="st1" d="M1868,678.6h-2c0-3-2.8-6.1-4.3-6.1v-2c1.5,0,4.3-3.2,4.3-6.1h2c0,3,2.8,6.1,4.3,6.1v2
		C1870.8,672.4,1868,675.6,1868,678.6z M1864.3,671.4c1,0.8,2,1.9,2.7,3.3c0.7-1.3,1.7-2.5,2.7-3.3c-1-0.8-2-1.9-2.7-3.3
		C1866.3,669.5,1865.3,670.7,1864.3,671.4z"/>
</g>
<g>
	<path class="st1" d="M2686,294.2c-18.8,0-34-15.3-34-34c0-18.8,15.3-34,34-34c18.8,0,34,15.3,34,34S2704.7,294.2,2686,294.2z
		 M2686,228.1c-17.7,0-32,14.4-32,32c0,17.7,14.4,32,32,32s32-14.4,32-32S2703.6,228.1,2686,228.1z"/>
</g>
<g>
	<path class="st1" d="M187.9,698.6h-2c0-10.4-9.5-21.9-15.9-21.9v-2c6.4,0,15.9-11.5,15.9-21.9h2c0,10.4,9.5,21.9,15.9,21.9v2
		C197.4,676.7,187.9,688.2,187.9,698.6z M173.9,675.7c2.6,1.2,5.4,3.5,7.8,6.6c2.4,3,4.1,6.4,5.1,9.8c1-3.4,2.8-6.8,5.1-9.8
		c2.4-3.1,5.2-5.4,7.8-6.6c-2.6-1.2-5.4-3.6-7.8-6.6c-2.4-3-4.1-6.4-5.1-9.8c-1,3.4-2.8,6.8-5.1,9.8
		C179.3,672.1,176.6,674.4,173.9,675.7z"/>
</g>
<g>
	<path class="st1" d="M103.3,743.9h2.3c0,3.5,3.2,7.2,5,7.2v2.3c-1.7,0-5,3.7-5,7.2h-2.3c0-3.5-3.2-7.2-5-7.2V751
		C100.1,751,103.3,747.4,103.3,743.9z M107.6,752.2c-1.2-0.9-2.4-2.2-3.2-3.8c-0.8,1.6-1.9,2.9-3.2,3.8c1.2,0.9,2.4,2.2,3.2,3.8
		C105.3,754.4,106.4,753.1,107.6,752.2z"/>
</g>
<g>
	<g>
		<path class="st1" d="M215.8,855.1c-3.7,0-7.2-1.4-9.8-4.1c-2.6-2.6-4.1-6.1-4.1-9.8s1.4-7.2,4.1-9.8c2.6-2.6,6.1-4.1,9.8-4.1
			c3.7,0,7.2,1.4,9.8,4.1c2.6,2.6,4.1,6.1,4.1,9.8s-1.4,7.2-4.1,9.8l0,0C223,853.6,219.5,855.1,215.8,855.1z M215.8,829.4
			c-3.2,0-6.1,1.2-8.4,3.5c-2.2,2.2-3.5,5.2-3.5,8.4s1.2,6.1,3.5,8.4s5.2,3.5,8.4,3.5c3.2,0,6.1-1.2,8.4-3.5s3.5-5.2,3.5-8.4
			s-1.2-6.1-3.5-8.4C222,830.6,219,829.4,215.8,829.4z"/>
	</g>
	<g>
		<path class="st1" d="M232,860.2c-1.3,0-3.4-0.7-7.1-3.3c-4-2.7-8.7-6.8-13.4-11.4c-4.7-4.7-8.7-9.4-11.4-13.4
			c-4.1-6-3.5-7.8-2.6-8.7c0.8-0.8,2.6-1.5,8.7,2.6l-1.1,1.7c-4.9-3.4-6.1-2.9-6.2-2.9c-0.6,1.1,3.6,8.8,14.1,19.2
			c10.4,10.4,18.1,14.7,19.3,14.1l0,0c0,0,0.4-1.1-2.5-5.5l1.7-1.1c2.8,4.2,3.5,6.7,2.2,8C233.3,859.9,232.8,860.2,232,860.2z"/>
	</g>
</g>
<g>
	<path class="st1" d="M2035.6,1365.3c-36.1,0-65.4-29.4-65.4-65.4s29.4-65.4,65.4-65.4c36,0,65.4,29.4,65.4,65.4
		S2071.6,1365.3,2035.6,1365.3z M2035.6,1236.4c-35,0-63.4,28.5-63.4,63.4s28.5,63.4,63.4,63.4s63.4-28.5,63.4-63.4
		S2070.5,1236.4,2035.6,1236.4z"/>
</g>
<g>
	<path class="st1" d="M1729,1148.4c-4.7,0-9.4-1.2-13.6-3.5c-6.6-3.7-11.5-9.7-13.6-17c-3.1-10.7,0.3-22.2,8.8-29.5
		c0-0.5-0.1-0.9-0.1-1.3c0-7.9,6.4-14.3,14.3-14.3c2.4,0,4.8,0.6,6.9,1.8c3.1-5,7.9-8.6,13.5-10.3c12.6-3.7,25.8,3.6,29.5,16.2
		c1.6,5.4,1.2,11.2-1.1,16.3c3.8,4.3,5.9,9.8,5.9,15.5c0,12.9-10.5,23.5-23.5,23.5c-3.7,0-7.4-0.9-10.7-2.6c-2.5,1.8-5.4,3.1-8.3,4
		C1734.3,1148.1,1731.6,1148.4,1729,1148.4z M1724.8,1084.9c-6.8,0-12.3,5.5-12.3,12.3c0,0.5,0,1,0.1,1.6l0.1,0.5l-0.4,0.4
		c-8.1,6.7-11.5,17.6-8.5,27.7c2,6.8,6.5,12.4,12.6,15.8c6.2,3.4,13.3,4.2,20.1,2.2c3-0.9,5.7-2.2,8.2-4l0.5-0.4l0.6,0.3
		c3.1,1.7,6.7,2.6,10.3,2.6c11.8,0,21.5-9.6,21.5-21.5c0-5.5-2.1-10.7-5.8-14.7l-0.5-0.5l0.3-0.6c2.3-4.8,2.8-10.3,1.3-15.5
		c-3.4-11.5-15.5-18.2-27-14.9c-5.5,1.6-10.1,5.2-12.9,10.2l-0.5,0.9l-0.9-0.6C1729.4,1085.6,1727.1,1084.9,1724.8,1084.9z"/>
</g>
<g>
	<path class="st1" d="M313.1,1655.3c-50.7,0-99.8-27.7-124.5-75.8c-4.2-8.2-7.6-16.8-10.2-25.6c-0.5,0.3-1,0.5-1.5,0.8
		c-15.1,7.8-31.2,11.4-47.2,11.4c-37.5,0-73.8-20.5-92.2-56.1c-16.1-31.4-15.3-68.2,2.2-98.8c-50.3-9.5-92.4-40.9-115.9-86.4
		c-14.4-27.9-20.4-59.1-17.6-90.2c2.7-29.9,13.5-58.4,31.2-82.5c-20.8-10.9-37.5-27.7-48.3-48.7c-12.5-24.4-15.8-52.4-9.3-79
		c6.4-26,21.7-48.8,43.1-64.5c-4.8-5.5-8.9-11.6-12.2-18.1c-13.6-26.5-13.6-58.1,0.2-84.6c-9.9-8-17.9-17.9-23.8-29.4
		c-9.8-19.1-12.7-41-8.1-61.9c-17.8-5.1-32.7-17.3-41.2-33.7c-16.9-32.8-3.9-73.2,28.9-90.1c15.9-8.2,34-9.7,51-4.2
		s30.9,17.2,39.1,33.1c3.7,7.2,6,14.8,7,22.8c36.3-2,70.4,17.5,87,49.8c13.6,26.5,13.6,58.1-0.2,84.6c9.9,8,17.9,17.9,23.8,29.4
		c5.4,10.4,8.7,21.6,9.8,33.1c20-2.1,39.6,8.4,48.8,26.4c3.6,7,5.5,14.8,5.4,22.6c1.3-0.8,2.6-1.6,3.9-2.3c16.4-8.4,35.8-7,50.9,3.6
		c5.2-4,10.8-7.6,16.6-10.6c52.5-27,117.1-6.3,144.1,46.2c5.4,10.4,9,21.5,10.7,33c37.7,8.8,71.9,30.4,96.3,60.7
		c25,31,38.7,70,38.7,109.8c0,5.5-0.3,11-0.8,16.6c32.5,12.3,59.2,36,75.1,67c2.2,4.2,4.2,8.6,5.9,13.1c40.7-19,86.5-21.6,129.2-7.3
		c43.1,14.5,78.3,44.8,99.1,85.3c21.3,41.3,25.2,88.5,11,132.7s-44.8,80.3-86.1,101.6c-27.6,14.2-58.5,20.8-89.4,19
		c-29.8-1.7-58.8-11.1-83.9-27.1c-39.1,15.5-82.8,10.3-117.3-14c-12.5,31.4-35.9,57.2-66,72.7
		C356.4,1650.3,334.6,1655.3,313.1,1655.3z M179.6,1550.8l0.3,1.2c2.5,9.1,6,18,10.3,26.5c34.8,67.6,118,94.3,185.6,59.5
		c30.1-15.5,53.3-41.3,65.5-72.9l0.5-1.2l1.1,0.8c34.2,24.6,77.9,30,116.9,14.3l0.5-0.2l0.4,0.3c24.9,16,53.8,25.4,83.4,27.1
		c30.5,1.8,61-4.8,88.4-18.8c40.8-21,71.1-56.7,85.1-100.4c14-43.7,10.2-90.3-10.8-131.2c-20.6-40-55.4-69.9-98-84.3
		c-42.5-14.3-88.2-11.6-128.7,7.6l-1,0.5l-0.4-1c-1.8-4.8-3.9-9.5-6.2-13.9c-15.8-30.7-42.4-54.3-74.8-66.3l-0.7-0.3l0.1-0.8
		c0.6-5.7,0.8-11.5,0.8-17.1c0-39.4-13.6-78-38.3-108.6c-24.3-30.2-58.4-51.5-95.9-60.2l-0.7-0.2l-0.1-0.7
		c-1.7-11.5-5.2-22.6-10.6-33.1c-26.5-51.5-89.9-71.8-141.4-45.3c-5.9,3.1-11.6,6.7-16.9,10.8l-0.6,0.5l-0.6-0.4
		c-14.5-10.6-33.4-12.1-49.4-3.9c-1.8,0.9-3.6,2-5.3,3.2l-1.7,1.1l0.1-2c0.4-8.1-1.4-16.3-5.2-23.5c-9-17.6-28.3-27.7-47.8-25.2
		l-1,0.1l-0.1-1c-1-11.7-4.3-22.9-9.7-33.4c-5.9-11.5-14-21.3-24-29.3l-0.6-0.5l0.4-0.7c13.8-26.1,14-57.3,0.5-83.5
		c-16.2-31.8-50-51-85.9-48.6l-1,0.1l-0.1-1c-0.8-8.1-3.1-15.8-6.8-23c-16.4-31.8-55.6-44.4-87.4-28s-44.4,55.6-28,87.4
		c8.3,16.2,23.2,28.2,40.8,33l0.9,0.3l-0.2,0.9c-4.8,20.7-2.1,42.6,7.7,61.5c5.9,11.5,14,21.3,24,29.3l0.6,0.5l-0.4,0.7
		c-13.8,26.1-14,57.3-0.5,83.5c3.5,6.7,7.7,13,12.7,18.6l0.7,0.8l-0.9,0.6c-21.5,15.4-36.9,38.1-43.3,64
		c-6.4,26.1-3.2,53.7,9.1,77.6c10.8,21,27.6,37.7,48.5,48.3l1.1,0.5l-0.7,1c-17.9,24-28.8,52.6-31.5,82.4
		c-2.8,30.7,3.2,61.5,17.4,89.1c23.3,45.4,65.6,76.6,115.8,85.6l1.4,0.3l-0.7,1.2c-17.8,30.2-18.9,66.9-2.9,98.1
		c25.6,49.7,86.9,69.4,136.6,43.8c0.9-0.4,1.7-0.9,2.6-1.4L179.6,1550.8z"/>
</g>
<g>
	<path class="st1" d="M3063.6,1714.4c-86.1,0-167.1-33.5-228-94.4s-94.4-141.9-94.4-228s33.5-167.1,94.4-228s141.9-94.4,228-94.4
		s167.1,33.5,228,94.4s94.4,141.9,94.4,228s-33.5,167.1-94.4,228C3230.8,1680.9,3149.8,1714.4,3063.6,1714.4z M3063.6,1071.5
		c-85.6,0-166.1,33.3-226.6,93.9s-93.9,141-93.9,226.6s33.3,166.1,93.9,226.6s141,93.9,226.6,93.9s166.1-33.3,226.6-93.9
		s93.9-141,93.9-226.6s-33.3-166.1-93.9-226.6S3149.2,1071.5,3063.6,1071.5z"/>
</g>
<g>
	<path class="st1" d="M2379.8,1167.2c-30,0-59.2-8.5-84.5-24.5c-24.2-15.4-43.8-37.1-56.6-62.7c-18.4,13-40,19.8-62.6,19.8
		c-26.2,0-51.6-9.5-71.3-26.7c-19.3-16.8-32-39.8-36-65c-6.8,1.6-13.8,2.5-20.8,2.5c-28.6,0-55.4-13.9-72-37.2
		c-11.2,4.9-23.1,7.4-35.4,7.4c-20.5,0-40.5-7.2-56.2-20.3c-12.1,12.9-29.1,20.3-46.8,20.3c-35.4,0-64.1-28.8-64.1-64.1
		s28.8-64.1,64.1-64.1c7.7,0,15.2,1.4,22.4,4.1c14.2-31.8,45.7-52.3,80.6-52.3c28.6,0,55.4,13.9,72,37.2c11.2-4.9,23.1-7.4,35.4-7.4
		c11.2,0,22.1,2.1,32.5,6.2c7-18,24.5-30,43.8-30c7.5,0,14.9,1.8,21.6,5.2c-0.1-1.4-0.2-2.9-0.2-4.2c0-17.7,9.7-33.6,25.4-41.7
		c-1.1-6.2-1.7-12.5-1.7-18.7c0-56.5,46-102.5,102.5-102.5s102.5,46,102.5,102.5c0,20.7-6.1,40.7-17.8,57.7
		c12.1,3.9,23.4,10.5,32.9,19.1c9.6-6.7,20.8-10.4,32.5-10.7c7.4-29.7,32.5-51.9,62.8-55.7c-4.1-13-6.2-26.6-6.2-40.3
		c0-74,60.2-134.2,134.2-134.2c4.5,0,9.1,0.2,13.7,0.7c1.6-43,19.5-83.1,50.4-113.2c31.3-30.4,72.5-47.1,116-47.1
		c91.9,0,166.6,74.7,166.6,166.6c0,22.6-4.5,44.5-13.3,65.2c35.8,10.6,68.1,32.8,90.9,62.7c23.8,31.2,36.4,68.4,36.4,107.7
		c0,98-79.7,177.8-177.8,177.8c-24.6,0-48.5-5-70.9-14.7c-24.8,38.2-66.8,60.9-112.3,60.9c-8.8,0-17.6-0.9-26.2-2.6c0,0.5,0,1,0,1.6
		c0,54.6-44.4,99.1-99.1,99.1c-33.8,0-64.7-16.8-83.1-45.1C2474,1145,2428.8,1167.2,2379.8,1167.2z M2239.5,1076.9l0.5,1.1
		c12.6,25.7,32.1,47.5,56.4,62.9c24.9,15.8,53.7,24.2,83.4,24.2c48.8,0,93.9-22.3,123.6-61.1l0.9-1.1l0.8,1.2
		c17.9,28.4,48.6,45.4,82.2,45.4c53.5,0,97.1-43.5,97.1-97.1c0-0.9,0-1.9,0-2.8v-1.3l1.2,0.3c8.9,1.8,18,2.8,27.1,2.8
		c45.1,0,86.6-22.7,111.1-60.7l0.5-0.7l0.8,0.3c22.4,9.9,46.3,14.9,70.9,14.9c96.9,0,175.8-78.8,175.8-175.8
		c0-38.9-12.4-75.7-36-106.5c-22.8-29.8-55.1-52-90.9-62.3l-1.1-0.3l0.5-1c9-20.7,13.5-42.7,13.5-65.4
		c0-90.8-73.8-164.6-164.6-164.6c-43.1,0-83.8,16.5-114.7,46.5c-30.8,29.9-48.5,70-49.9,112.9v1.1l-1.1-0.1
		c-4.9-0.5-9.8-0.8-14.6-0.8c-72.9,0-132.2,59.3-132.2,132.2c0,13.9,2.2,27.7,6.4,40.9l0.4,1.2l-1.2,0.1
		c-30.3,3.3-55.4,25.5-62.5,55.1l-0.2,0.8h-0.8c-11.9,0.1-23.2,3.9-32.8,10.8l-0.7,0.5l-0.6-0.6c-9.6-9-21.4-15.8-34-19.6l-1.3-0.4
		l0.8-1.1c11.9-17,18.2-36.9,18.2-57.7c0-55.4-45.1-100.5-100.5-100.5s-100.5,45.1-100.5,100.5c0,6.4,0.6,12.8,1.8,19.1l0.1,0.7
		l-0.7,0.3c-15.4,7.7-24.9,23.1-24.9,40.3c0,1.9,0.1,3.9,0.4,5.9l0.3,2l-1.7-1c-6.8-3.9-14.5-5.9-22.3-5.9
		c-18.9,0-35.9,11.9-42.3,29.7l-0.4,1l-1-0.4c-10.4-4.3-21.4-6.4-32.7-6.4c-12.3,0-24.2,2.5-35.4,7.6l-0.8,0.3l-0.5-0.7
		c-16.1-23.2-42.6-37-70.8-37c-34.4,0-65.4,20.4-79.1,51.9l-0.4,0.9l-0.9-0.4c-7.2-2.8-14.8-4.3-22.6-4.3
		c-34.3,0-62.1,27.9-62.1,62.1s27.9,62.1,62.1,62.1c17.4,0,34.2-7.4,45.9-20.3l0.6-0.7l0.7,0.6c15.5,13.2,35.3,20.4,55.7,20.4
		c12.3,0,24.2-2.5,35.4-7.6l0.8-0.3l0.5,0.7c16.1,23.2,42.6,37,70.8,37c7.2,0,14.4-0.9,21.3-2.7l1.1-0.3l0.2,1.1
		c3.7,25.1,16.3,48.1,35.5,64.8c19.4,16.9,44.3,26.2,70,26.2c22.6,0,44.1-7,62.4-20.1L2239.5,1076.9z"/>
</g>
</svg>
