<svg id="Layer_1" data-name="Layer 1" xmlns="http://www.w3.org/2000/svg" viewBox="0 0 96 96"><defs><style>.cls-1,.cls-2{fill:#fff;}.cls-2{fill-rule:evenodd;}</style></defs><title>fe-of-academy</title><rect class="cls-1" x="14.91" y="34.91" width="4.48" height="41.62" rx="2.24" ry="2.24"/><path class="cls-2" d="M14.25,83.61A5.65,5.65,0,0,1,10.84,79V43.63A2.25,2.25,0,0,0,8.6,41.39H7.42a2.25,2.25,0,0,0-2.24,2.24V78.5s-.14,7.56,0,9.22,4.61,1.36,6.53,1.36,11,1,18.24,2.1a42.85,42.85,0,0,1,12.13,3.65C35.6,89,30.76,88.17,26.93,87.08S17.45,84.89,14.25,83.61Z"/><path class="cls-2" d="M16.08,80.69c2.22,1.38,8.57,1.46,14.14,3.74s6.57,2.83,13.31,7.3c0,0-2.55-5.56-7.84-8.12s-11.55-5.19-13.77-7.09a7.88,7.88,0,0,1-2.53-4.36v-35a2.25,2.25,0,0,0-2.24-2.24h-.59a2.25,2.25,0,0,0-2.24,2.24V77.92A4.25,4.25,0,0,0,16.08,80.69Z"/><path class="cls-2" d="M81.87,83.61A5.65,5.65,0,0,0,85.28,79V43.63a2.25,2.25,0,0,1,2.24-2.24H88.7a2.25,2.25,0,0,1,2.24,2.24V78.5s.14,7.56,0,9.22-4.61,1.36-6.53,1.36-11,1-18.24,2.1A42.85,42.85,0,0,0,54,94.83c6.47-5.84,11.31-6.66,15.14-7.75S78.67,84.89,81.87,83.61Z"/><path class="cls-2" d="M80,80.69c-2.22,1.38-8.57,1.46-14.14,3.74s-6.57,2.83-13.31,7.3c0,0,2.55-5.56,7.84-8.12S72,78.42,74.2,76.52a7.88,7.88,0,0,0,2.53-4.36v-35A2.25,2.25,0,0,1,79,34.91h.59a2.25,2.25,0,0,1,2.24,2.24V77.92A4.25,4.25,0,0,1,80,80.69Z"/><rect class="cls-1" x="28.93" y="45.31" width="5.48" height="5.48" rx="2" ry="2"/><rect class="cls-1" x="53.41" y="69.62" width="7.67" height="7.67" rx="2" ry="2"/><rect class="cls-1" x="30.91" y="67.49" width="7.67" height="7.67" rx="2" ry="2"/><rect class="cls-1" x="36.23" y="53.13" width="6.68" height="6.68" rx="2" ry="2"/><rect class="cls-1" x="63.03" y="39.55" width="6.68" height="6.68" rx="2" ry="2"/><rect class="cls-1" x="25.95" y="54.85" width="4.96" height="4.96" rx="2.02" ry="2.02"/><rect class="cls-1" x="66.37" y="51.88" width="4.36" height="4.36" rx="1.75" ry="1.75"/><rect class="cls-1" x="53.07" y="60.49" width="4.36" height="4.36" rx="1.75" ry="1.75"/><rect class="cls-1" x="62.18" y="62.04" width="4.36" height="4.36" rx="1.75" ry="1.75"/><rect class="cls-1" x="43.94" y="64.84" width="4.36" height="4.36" rx="1.75" ry="1.75"/><rect class="cls-1" x="44.54" y="79.46" width="4.36" height="4.36" rx="1.75" ry="1.75"/><path class="cls-1" d="M66.88,19,48.94,24.56,31,19v9.22c0,2.91,3.73,5.44,9.25,6.75l-3.16,2.55H35a3.8,3.8,0,1,0,0,2h2.77l5-4c1.17.18,2.39.32,3.66.39h.8v7.54a3.8,3.8,0,1,0,2,0V35.9h2.2c.68,0,1.34-.1,2-.17v3.19l3.73,4.5v5.1a3.8,3.8,0,1,0,2,0V42.7l-3.73-4.5V35.46c6.71-1.12,11.47-3.92,11.47-7.2,0,0,0-.07,0-.1ZM31.37,40.36a1.81,1.81,0,1,1,1.81-1.81A1.81,1.81,0,0,1,31.37,40.36ZM50.05,47.1a1.81,1.81,0,1,1-1.81-1.81A1.81,1.81,0,0,1,50.05,47.1ZM60,52.17a1.81,1.81,0,1,1-1.81-1.81A1.81,1.81,0,0,1,60,52.17Z"/><path class="cls-1" d="M48.94,1.11,18.86,12.68,25.27,15l.55-1.17,2.36-.2.34.35-2,.48-.29.87s-4.56,9.54-3.89,14.21a5.89,5.89,0,0,0,5.7,0l.76-12.76V15.69l4.24-1-.3.74-3.16,1L31,17l17.94,5.52L66.88,17l12.06-4.31v-.06Z"/></svg>