<?xml version="1.0" encoding="utf-8"?>
<!-- Generator: Adobe Illustrator 16.0.0, SVG Export Plug-In . SVG Version: 6.00 Build 0)  -->
<!DOCTYPE svg PUBLIC "-//W3C//DTD SVG 1.1//EN" "http://www.w3.org/Graphics/SVG/1.1/DTD/svg11.dtd">
<svg version="1.1" id="Layer_1" xmlns="http://www.w3.org/2000/svg" xmlns:xlink="http://www.w3.org/1999/xlink" x="0px" y="0px"
	 width="64px" height="64px" viewBox="0 0 64 64" enable-background="new 0 0 64 64" xml:space="preserve">
<path fill="#008000" d="M61.523,26.875c-0.719-0.669-1.436-1.338-2.154-2.007c-1.774-1.652-3.552-3.302-5.326-4.955
	c-2.219-2.07-4.439-4.142-6.665-6.207c-2.104-1.955-4.215-3.906-6.31-5.873c-1.487-1.398-2.963-2.822-4.503-4.162
	c-1.173-1.02-2.485-2.042-4.103-2.132c-1.565-0.087-3.008,0.857-4.122,1.875c0,0-4.266,3.895-9.316,8.505V3.902
	c0-1.842-1.493-1.933-3.335-1.933c-1.842,0-3.334,0.091-3.334,1.933V18.01c-5.188,4.736-9.635,8.797-9.635,8.797
	c-2.125,1.943-2.677,4.802-1.231,6.382c1.446,1.587,4.344,1.297,6.47-0.647l24.407-22.284l23.853,22.295
	c2.106,1.965,4.998,2.291,6.464,0.725C64.148,31.708,63.63,28.842,61.523,26.875z"/>
<path fill="#008000" d="M32.198,15.032L10.651,34.747v13.831h0.01v10.033c0,3.901,0.504,3.787,5.131,3.787
	c0.788,0,1.636-0.021,2.523-0.021c1.053,0,2.068,0.016,3.001,0.016c5.275,0,4.953,0.494,4.953-3.782V48.578h11.882v10.033
	c0,4.276-0.32,3.782,4.954,3.782c0.934,0,1.948-0.016,3.002-0.016c0.887,0,1.734,0.021,2.522,0.021c4.625,0,5.129,0.114,5.129-3.787
	V48.578h0.002V34.747L32.198,15.032z"/>
</svg>
