<svg id="Layer_1" data-name="Layer 1" xmlns="http://www.w3.org/2000/svg" viewBox="0 0 96 96"><defs><style>.cls-1{fill:#fff;}.cls-2{fill:none;}.cls-3{fill:#fefefe;}</style></defs><title>mandatory-training</title><path class="cls-1" d="M72.25,87.43a1.85,1.85,0,0,1-1.32.55,2,2,0,0,1-.53-.08l-1.51-.46-1.16,1.06-.12.1,1.87,5.8a.26.26,0,0,0,.46.08l1.36-1.75a.26.26,0,0,1,.28-.09l2.12.62a.27.27,0,0,0,.33-.33Zm0,0"/><path class="cls-1" d="M64,87.45l-1.51.46A1.83,1.83,0,0,1,62,88a1.86,1.86,0,0,1-1.32-.55L58.9,93a.26.26,0,0,0,.33.33l2.12-.62a.26.26,0,0,1,.28.09L63,94.51a.26.26,0,0,0,.46-.08l1.87-5.8-.12-.1Zm0,0"/><path class="cls-1" d="M77,78.91,75.62,77a.36.36,0,0,1,0-.42L77,74.65a.36.36,0,0,0-.12-.52L74.77,73a.35.35,0,0,1-.18-.37L75,70.3a.36.36,0,0,0-.34-.42l-2.36-.1a.36.36,0,0,1-.33-.26l-.66-2.28a.36.36,0,0,0-.49-.23L68.64,68a.37.37,0,0,1-.41-.09l-1.58-1.76a.36.36,0,0,0-.54,0L64.55,67.9a.35.35,0,0,1-.4.09L62,67.09a.36.36,0,0,0-.48.23l-.63,2.28a.36.36,0,0,1-.32.26L58.17,70a.36.36,0,0,0-.33.42l.43,2.33a.35.35,0,0,1-.18.37L56,74.28a.36.36,0,0,0-.12.52l1.4,1.91a.36.36,0,0,1,0,.42l-1.37,1.93a.36.36,0,0,0,.12.52l2.09,1.12a.35.35,0,0,1,.18.37l-.39,2.33a.36.36,0,0,0,.34.42l2.36.1a.36.36,0,0,1,.33.26l.66,2.28a.36.36,0,0,0,.49.23l2.18-.94a.37.37,0,0,1,.41.09l1.58,1.76a.36.36,0,0,0,.54,0l1.56-1.78a.35.35,0,0,1,.4-.09l2.19.9a.36.36,0,0,0,.48-.23l.63-2.28a.36.36,0,0,1,.32-.26l2.36-.13a.36.36,0,0,0,.33-.42l-.43-2.33a.35.35,0,0,1,.18-.37l2.07-1.15a.34.34,0,0,0,.11-.52ZM66.46,83.28a6.42,6.42,0,1,1,6.42-6.42,6.43,6.43,0,0,1-6.42,6.42Zm0,0"/><rect class="cls-2" x="55.83" y="65.95" width="21.27" height="28.73"/><path class="cls-1" d="M70.27,75.26l-2.42-.18-.91-2.25a.51.51,0,0,0-.94,0l-.91,2.25-2.42.18a.51.51,0,0,0-.29.9l1.85,1.57-.58,2.36a.51.51,0,0,0,.76.56l2.06-1.28,2.06,1.28a.51.51,0,0,0,.76-.56l-.58-2.36,1.85-1.57a.51.51,0,0,0-.29-.9Zm0,0"/><path class="cls-3" d="M19.54,91c-5.11,0-9.26-3.86-9.26-8.61V9.93c0-4.75,4.16-8.61,9.26-8.61H76.46c5.11,0,9.26,3.86,9.26,8.61V82.44A8.61,8.61,0,0,1,80,90.38l-1.18.46V87.4l.48-.24a5.35,5.35,0,0,0,3.06-4.72V9.93a5.68,5.68,0,0,0-5.93-5.39H19.54a5.68,5.68,0,0,0-5.93,5.39V82.44a5.68,5.68,0,0,0,5.93,5.39H50.8V91Z"/><path class="cls-3" d="M76.46,2.19H19.54c-4.63,0-8.4,3.47-8.4,7.74V82.44c0,4.27,3.77,7.74,8.4,7.74h30.4V88.7H19.54a6.55,6.55,0,0,1-6.79-6.26V9.93a6.55,6.55,0,0,1,6.79-6.26H76.46a6.55,6.55,0,0,1,6.79,6.26V82.44a6.21,6.21,0,0,1-3.54,5.5v1.64a7.77,7.77,0,0,0,5.14-7.13V9.93C84.86,5.66,81.09,2.19,76.46,2.19Z"/><path class="cls-3" d="M79.32,87.94v1.73l.4-.15V87.74Z"/><rect class="cls-3" x="49.94" y="88.58" width="0.4" height="1.6"/><polygon class="cls-3" points="73.75 26.3 19.14 26.08 19.16 24.48 73.77 24.7 73.75 26.3"/><polygon class="cls-3" points="73.7 35.18 19.09 34.96 19.11 33.36 73.72 33.58 73.7 35.18"/><rect class="cls-3" x="19.18" y="13.73" width="13.7" height="1.6"/><polygon class="cls-3" points="52.84 15.36 39.14 15.3 39.15 13.7 52.86 13.75 52.84 15.36"/><rect class="cls-3" x="60.09" y="13.73" width="13.7" height="1.6"/><rect class="cls-3" x="60.09" y="43.89" width="13.7" height="1.6"/><rect class="cls-3" x="60.09" y="52.76" width="13.7" height="1.6"/><path class="cls-1" d="M52.59,57.63a2.12,2.12,0,0,0-2,1.42H46.22V56.21H49a.71.71,0,0,0,.71-.71h0v-3a2.12,2.12,0,1,0-1.42,0V54.8H46.22V53.38a.71.71,0,0,0-.71-.71H44.09V49a2.12,2.12,0,1,0-1.42,0v3.67H39.85V41.37a.71.71,0,0,0-.71-.71h0c-8.73,0-15.57,6.32-15.57,14.39,0,3.83,1.52,8.91,4,13.25.44.78,1,1.6,1.62,2.46,1.28,1.83,2.71,3.89,2.87,5.68a2,2,0,0,0-.85,1.68,2.1,2.1,0,0,0,.47,1.31A2.18,2.18,0,0,0,31,81a2.13,2.13,0,0,0,2.12,2.12h12A2.14,2.14,0,0,0,47.28,81v0a2.11,2.11,0,0,0-.65-1.52,2.19,2.19,0,0,0,.47-1.36,2,2,0,0,0-2-2H39.85V62.58h1.42v2.12a.71.71,0,0,0,.71.71h2.12v.84a2.12,2.12,0,1,0,1.42,0V64.71A.71.71,0,0,0,44.8,64H42.68V62.58h2.83a.71.71,0,0,0,.71-.71h0V60.46H50.6a2.12,2.12,0,1,0,2-2.83ZM49,49.84a.71.71,0,1,1-.71.71A.71.71,0,0,1,49,49.84ZM30.32,70c-.59-.84-1.14-1.63-1.55-2.35-2.3-4.07-3.79-9-3.79-12.55,0-7.06,5.85-12.64,13.45-13V47l-.58.06a.71.71,0,0,0-.61.56l-.22,1-.53.14L35.79,48a.71.71,0,0,0-.8-.18,10.65,10.65,0,0,0-2.23,1.3.71.71,0,0,0-.25.79l.32,1-.39.39-1-.32a.71.71,0,0,0-.79.25,10.62,10.62,0,0,0-1.3,2.23.71.71,0,0,0,.18.8l.79.71q-.08.26-.14.53l-1.1.22a.71.71,0,0,0-.57.69v2.41a.71.71,0,0,0,.57.69l1.1.22q.06.26.14.53l-.79.71a.71.71,0,0,0-.18.8A10.63,10.63,0,0,0,30.67,64a.71.71,0,0,0,.79.25l1-.32.39.39-.32,1a.71.71,0,0,0,.25.79A10.63,10.63,0,0,0,35,67.4a.71.71,0,0,0,.8-.18l.71-.79.53.14.22,1a.71.71,0,0,0,.61.56l.59.06v7.84h-5C33.12,74,31.65,71.85,30.32,70Zm2.45-12.33A6.38,6.38,0,0,0,38.43,64v2.43l-.12-.56a.71.71,0,0,0-.57-.55A7.68,7.68,0,0,1,36.51,65a.72.72,0,0,0-.24,0,.71.71,0,0,0-.53.24l-.67.74A9.17,9.17,0,0,1,34,65.26l.31-.94a.71.71,0,0,0-.22-.76,7.76,7.76,0,0,1-.91-.91.71.71,0,0,0-.76-.21l-.94.31a9.2,9.2,0,0,1-.63-1.07l.74-.67a.71.71,0,0,0,.19-.77A7.7,7.7,0,0,1,31.48,59a.71.71,0,0,0-.56-.57l-1-.2V57l1-.2a.71.71,0,0,0,.56-.57A7.73,7.73,0,0,1,31.82,55a.71.71,0,0,0-.19-.77l-.74-.67a9.29,9.29,0,0,1,.63-1.07l.94.31a.71.71,0,0,0,.76-.21,7.92,7.92,0,0,1,.91-.91.71.71,0,0,0,.21-.76L34,50a9.23,9.23,0,0,1,1.07-.63l.67.74a.71.71,0,0,0,.77.19A7.66,7.66,0,0,1,37.75,50a.71.71,0,0,0,.57-.55l.12-.56V51.3A6.38,6.38,0,0,0,32.77,57.63Zm5.66-4.9v9.8a4.95,4.95,0,0,1,0-9.8Zm6.73,29h-12a.72.72,0,0,1-.71-.73v0a.71.71,0,0,1,.71-.71h12a.72.72,0,0,1,.71.73v0A.71.71,0,0,1,45.16,81.72ZM45,77.48a.65.65,0,0,1,.71.66.71.71,0,0,1-.71.71H33.3a.72.72,0,0,1-.71-.73v0a.64.64,0,0,1,.67-.61H45Zm-.17-9.94a.71.71,0,1,1-.71.71A.71.71,0,0,1,44.8,67.54ZM43.39,46.3a.71.71,0,1,1-.71.71A.71.71,0,0,1,43.39,46.3ZM44.8,61.17h-5V54.09h5Zm7.79-.71a.71.71,0,1,1,.71-.71A.71.71,0,0,1,52.59,60.46Z"/></svg>