<svg id="Layer_1" data-name="Layer 1" xmlns="http://www.w3.org/2000/svg" viewBox="0 0 96 96"><defs><style>.cls-1{fill:#fff;}.cls-2{fill:#fefefe;}</style></defs><title>school-of-sales</title><path class="cls-1" d="M92.08,58.78c-1.82-.14-5.59,2-6.61,2.52a113.57,113.57,0,0,0-12.12,7.33l-.78.53a14,14,0,0,1-4.87,2.07C58,73.38,43.75,73.62,43.75,73.62l-.82,0a1.22,1.22,0,0,1-.18-2.42l21.11-2.09a4.62,4.62,0,0,0,3.93-5.06A4.51,4.51,0,0,0,63,60l-18.79-.23A20.17,20.17,0,0,1,39.63,59c-12.1-3.68-18.92-.23-22.56,1.37A4.35,4.35,0,0,0,13,58.19l-8.09.57A4.88,4.88,0,0,0,.37,64L1.66,82.63a4.88,4.88,0,0,0,5.22,4.54L15,86.6a4.34,4.34,0,0,0,3.71-2.7l35.56,1.58a18.46,18.46,0,0,0,11.16-2l1-.55,26.9-16.32a4.59,4.59,0,0,0,2.31-3.73,3.8,3.8,0,0,0-3.56-4.14Zm-82.25,24A2.76,2.76,0,1,1,12.59,80a2.75,2.75,0,0,1-2.76,2.76Zm0,0"/><path class="cls-1" d="M71.67,61.75a8.57,8.57,0,0,1,.41,1.9,8.35,8.35,0,0,1,0,1.56l.84-.61a118.69,118.69,0,0,1,11.54-6.82,27.27,27.27,0,0,1,3-1.41,4.43,4.43,0,0,0-4.4-.39c-3,1.23-8.58,4-11.42,5.63a.28.28,0,0,1,0,.14Zm0,0"/><path class="cls-1" d="M75.87,53.79C74,54.56,69.83,56,68,57a8.74,8.74,0,0,1,2.11,1.88c.12-.08.23-.18.37-.25l1.35-.78c2-1.13,6.22-2.68,8.41-3.69a4.37,4.37,0,0,0-4.34-.33Zm0,0"/><path class="cls-1" d="M71.49,34.12a27.57,27.57,0,0,0-4.1-1.8,12.5,12.5,0,0,1-3.11-1.47,2.07,2.07,0,0,1-.73-1.7,2.53,2.53,0,0,1,.75-1.85,2.67,2.67,0,0,1,2-.76q2.48,0,3.66,3.42l4-1.66a7.1,7.1,0,0,0-6.37-5.57V20H64.7v2.71a6.79,6.79,0,0,0-4.78,2.52,7.64,7.64,0,0,0-1.52,4.64,6.81,6.81,0,0,0,.85,3.45,6.25,6.25,0,0,0,2.21,2.3,20.44,20.44,0,0,0,3.79,1.66,14.11,14.11,0,0,1,3.48,1.57,2.18,2.18,0,0,1,.78,1.82,2.77,2.77,0,0,1-.78,2,3.24,3.24,0,0,1-2.44.82q-3.55,0-4.18-3.84l-4.54,1.18q1.38,6.1,7.14,6.7V51h2.94V47.5a7.88,7.88,0,0,0,5.29-2.42A7.41,7.41,0,0,0,74.76,40a6.75,6.75,0,0,0-.89-3.5A6.45,6.45,0,0,0,71.49,34.12Z"/><path class="cls-2" d="M54.38,8a3.18,3.18,0,0,0-2.7,4.86L31.06,32.24l-9.17-8.65a3.18,3.18,0,1,0-5.78-.23l-7,6.57a3.18,3.18,0,1,0,0,4.84,3.2,3.2,0,0,0,.79-1,3.15,3.15,0,0,0,0-2.83l6.9-6.52a3.17,3.17,0,0,0,4.27.17l10,9.39,21.49-20.2A3.18,3.18,0,1,0,54.38,8ZM8.9,32.84a1.91,1.91,0,0,1-3.74-.29,1.88,1.88,0,0,1,0-.22,1.92,1.92,0,0,1,3.84,0A1.89,1.89,0,0,1,8.9,32.84Zm12-10.18a1.91,1.91,0,0,1-3.74-.29,1.88,1.88,0,0,1,0-.22,1.92,1.92,0,1,1,3.84,0A1.89,1.89,0,0,1,20.89,22.66ZM54.38,13.1a1.89,1.89,0,0,1-.88-.22,1.92,1.92,0,0,1-.87-.92,1.92,1.92,0,1,1,1.75,1.14Z"/><polygon class="cls-2" points="19.05 51.35 10.65 51.35 10.65 36.06 19.05 28.05 19.05 51.35"/><polygon class="cls-2" points="30.44 51.35 22.04 51.35 22.04 31.43 30.44 39.23 30.44 51.35"/><polygon class="cls-2" points="42 51.35 33.59 51.35 33.59 38.59 42 31.43 42 51.35"/><polygon class="cls-2" points="53.91 51.35 45.51 51.35 45.51 27.84 53.91 19.6 53.91 51.35"/></svg>