<svg id="Layer_1" data-name="Layer 1" xmlns="http://www.w3.org/2000/svg" viewBox="0 0 96 96"><defs><style>.cls-1{fill:#fefefe;}.cls-2{fill:#fff;}</style></defs><title>school-of-recovery</title><path class="cls-1" d="M13,78.39A12,12,0,1,0,.54,67,12,12,0,0,0,13,78.39Zm-.46-10.45a4.47,4.47,0,0,1-1.88-8.62l-.08-1.77,3-.13.08,1.77a4.49,4.49,0,0,1,3.17,4.07l-3,.13a1.49,1.49,0,1,0-1.43,1.56,4.47,4.47,0,0,1,1.88,8.62l.08,1.77-3,.13-.08-1.77a4.49,4.49,0,0,1-3.17-4.07l3-.13a1.49,1.49,0,1,0,1.43-1.56Zm0,0"/><path class="cls-1" d="M80.18,79.66a4.58,4.58,0,0,0-2.11-1.53,4.49,4.49,0,0,0-5,7,4.57,4.57,0,0,0,2.1,1.52,4.49,4.49,0,0,0,5.06-6.95Zm0,0"/><path class="cls-1" d="M20.91,16.35A4.58,4.58,0,0,0,23,17.88a4.49,4.49,0,0,0,5-7A4.57,4.57,0,0,0,26,9.4a4.49,4.49,0,0,0-5.06,6.95Zm0,0"/><path class="cls-1" d="M28.73,72.63A32.91,32.91,0,0,0,83.09,52.75l-3-.43A29.92,29.92,0,0,1,30.71,70.4Zm0,0"/><path class="cls-1" d="M56.59,18.75l-2.09,1,1.29,2.69L61.5,19.7a1.5,1.5,0,0,0,.69-2L59.42,12l-2.69,1.3L58,16A32.91,32.91,0,0,0,17.7,49.89l3-.17a29.9,29.9,0,0,1,35.9-31Z"/><path class="cls-1" d="M17.95,17.19a6.2,6.2,0,0,0,.62,1,7.12,7.12,0,0,0,1.3,1.31A41.29,41.29,0,0,0,11,34.28,41.92,41.92,0,0,0,8.68,48.76l-3,0a45,45,0,0,1,12.26-31.6Zm0,0"/><path class="cls-1" d="M69.7,85.23a7.52,7.52,0,0,0,1.68,2.5,44.91,44.91,0,0,1-50-5.66L23.3,79.8a41.93,41.93,0,0,0,46.4,5.43Zm0,0"/><path class="cls-1" d="M95.37,46.21A45,45,0,0,1,83.14,78.82a6.2,6.2,0,0,0-.62-1,7.12,7.12,0,0,0-1.3-1.31A42.06,42.06,0,0,0,92.38,46.33Zm0,0"/><path class="cls-1" d="M65.26,5.64A44.74,44.74,0,0,0,29.71,8.28a7.5,7.5,0,0,1,1.68,2.5,41.93,41.93,0,0,1,38.43.07l1.8-2.43A44.73,44.73,0,0,0,65.26,5.64Z"/><path class="cls-2" d="M87.07,17.91l-4.54,1.58A2,2,0,0,0,81.29,22l.11.32-4.83,1.68c-2.63,0-8.61-1-12-1.58a8.33,8.33,0,0,0-5,.62l-9.73,4.46a5.14,5.14,0,0,0-2.71,3c-.31.91-1.65,4.75-2.3,6.6l-.21.61a13.67,13.67,0,1,0,19.55,14.9.84.84,0,0,0-1.65-.33,12,12,0,0,1-7.81,9,12,12,0,0,1-9-22.17h0c.37-.17.75-.33,1.13-.46a11.86,11.86,0,0,1,5.55-.56h0a12,12,0,0,1,5.8,2.47.84.84,0,1,0,1-1.32,13.73,13.73,0,0,0-5.33-2.58l1.25-1.82,3.25-1.5L65.92,37a2.08,2.08,0,0,1,.41,2v0a1.43,1.43,0,0,1-.82.74l-5.14,1.79A13.38,13.38,0,0,0,53.18,48,3.84,3.84,0,0,0,53,51c.57.9,1.54,2.07,5.43,1.21l11-3.84,4.87-1.08A11.52,11.52,0,0,0,80,44.15l4.56-4.66,0,0a3.83,3.83,0,0,1,1.58-1.05l.71-.25.11.32a2,2,0,0,0,2.56,1.24l4.54-1.58a2,2,0,0,0,1.24-2.56L91.82,25.44a.84.84,0,0,0-1.59.55l3.53,10.14a.32.32,0,0,1-.2.41L89,38.13a.32.32,0,0,1-.41-.2l-2.86-8.22-2.47-7.1h0l-.39-1.11a.32.32,0,0,1,.2-.41l4.54-1.58a.32.32,0,0,1,.41.2l.42,1.2A.84.84,0,1,0,90,20.35l-.42-1.2A2,2,0,0,0,87.07,17.91ZM61.92,48l.37,1.06-4.66,1.62a2.27,2.27,0,0,1,1.49-2.51L61,47.57a.76.76,0,0,1,1,.46ZM84.15,30.27l2.2,6.3-.7.25a5.52,5.52,0,0,0-2.27,1.5L78.83,43A9.83,9.83,0,0,1,74,45.65L69,46.74l-.09,0-5.07,1.77-.37-1.06A2.44,2.44,0,0,0,60.4,46l-1.84.64A4,4,0,0,0,56,51.21c-1.1.16-1.33-.49-1.41-.73l0-.08a2.3,2.3,0,0,1,.17-1.73,11.69,11.69,0,0,1,6.17-5.58L66,41.29a3.11,3.11,0,0,0,1.79-1.59v0a3.71,3.71,0,0,0-.9-4.06.84.84,0,0,0-.18-.12l-7.94-3.84a.84.84,0,0,0-.72,0l-3.82,1.76a.84.84,0,0,0-.34.29l-1.83,2.66a13.49,13.49,0,0,0-5.37.56c.69-2,1.76-5,2-5.83a3.44,3.44,0,0,1,1.81-2l9.73-4.46a6.65,6.65,0,0,1,4-.5c3.49.64,9.74,1.69,12.46,1.6a.84.84,0,0,0,.25,0L82,24Z"/><path class="cls-2" d="M49.13,56.07l.12-1A2.47,2.47,0,0,0,49,50.25a.82.82,0,1,1,.92-.72l1.64.2a2.47,2.47,0,0,0-1.35-2.51l.12-1-1.64-.2-.12,1a2.47,2.47,0,0,0,.23,4.86.82.82,0,1,1-.92.72l-1.64-.2a2.47,2.47,0,0,0,1.35,2.51l-.12,1Z"/><path class="cls-2" d="M85.53,23.68a2,2,0,1,0,2.67-.93A2,2,0,0,0,85.53,23.68ZM88.32,25a1.1,1.1,0,1,1-.51-1.47A1.1,1.1,0,0,1,88.32,25Z"/></svg>