<?xml version="1.0" encoding="utf-8"?>
<!-- Generator: Adobe Illustrator 16.0.0, SVG Export Plug-In . SVG Version: 6.00 Build 0)  -->
<!DOCTYPE svg PUBLIC "-//W3C//DTD SVG 1.1//EN" "http://www.w3.org/Graphics/SVG/1.1/DTD/svg11.dtd">
<svg version="1.1" id="Layer_1" xmlns="http://www.w3.org/2000/svg" xmlns:xlink="http://www.w3.org/1999/xlink" x="0px" y="0px"
	 width="512px" height="512px" viewBox="0 0 512 512" enable-background="new 0 0 512 512" xml:space="preserve">
<rect x="433" y="116.064" fill="none" stroke="#008848" stroke-width="4" stroke-miterlimit="10" width="46" height="120"/>
<rect x="49.875" y="68" fill="none" stroke="#008848" stroke-width="5" stroke-miterlimit="10" width="155" height="226"/>
<rect x="59.125" y="86.576" fill="none" stroke="#008848" stroke-width="3" stroke-miterlimit="10" width="24" height="9.424"/>
<rect x="91.125" y="86.576" fill="none" stroke="#008848" stroke-width="3" stroke-miterlimit="10" width="24" height="9.424"/>
<rect x="138.125" y="86.576" fill="none" stroke="#008848" stroke-width="3" stroke-miterlimit="10" width="24" height="9.424"/>
<rect x="170.125" y="86.576" fill="none" stroke="#008848" stroke-width="3" stroke-miterlimit="10" width="24" height="9.424"/>
<rect x="59.125" y="103.681" fill="none" stroke="#008848" stroke-width="3" stroke-miterlimit="10" width="24" height="9.424"/>
<rect x="91.125" y="103.681" fill="none" stroke="#008848" stroke-width="3" stroke-miterlimit="10" width="24" height="9.424"/>
<rect x="138.125" y="103.681" fill="none" stroke="#008848" stroke-width="3" stroke-miterlimit="10" width="24" height="9.424"/>
<rect x="170.125" y="103.681" fill="none" stroke="#008848" stroke-width="3" stroke-miterlimit="10" width="24" height="9.424"/>
<rect x="59.125" y="120.786" fill="none" stroke="#008848" stroke-width="3" stroke-miterlimit="10" width="24" height="9.424"/>
<rect x="91.125" y="120.786" fill="none" stroke="#008848" stroke-width="3" stroke-miterlimit="10" width="24" height="9.424"/>
<rect x="138.125" y="120.786" fill="none" stroke="#008848" stroke-width="3" stroke-miterlimit="10" width="24" height="9.424"/>
<rect x="170.125" y="120.786" fill="none" stroke="#008848" stroke-width="3" stroke-miterlimit="10" width="24" height="9.424"/>
<rect x="59.125" y="137.891" fill="none" stroke="#008848" stroke-width="3" stroke-miterlimit="10" width="24" height="9.424"/>
<rect x="91.125" y="137.891" fill="none" stroke="#008848" stroke-width="3" stroke-miterlimit="10" width="24" height="9.424"/>
<rect x="138.125" y="137.891" fill="none" stroke="#008848" stroke-width="3" stroke-miterlimit="10" width="24" height="9.424"/>
<rect x="170.125" y="137.891" fill="none" stroke="#008848" stroke-width="3" stroke-miterlimit="10" width="24" height="9.424"/>
<rect x="59.125" y="154.996" fill="none" stroke="#008848" stroke-width="3" stroke-miterlimit="10" width="24" height="9.424"/>
<rect x="91.125" y="154.996" fill="none" stroke="#008848" stroke-width="3" stroke-miterlimit="10" width="24" height="9.424"/>
<rect x="138.125" y="154.996" fill="none" stroke="#008848" stroke-width="3" stroke-miterlimit="10" width="24" height="9.424"/>
<rect x="170.125" y="154.996" fill="none" stroke="#008848" stroke-width="3" stroke-miterlimit="10" width="24" height="9.424"/>
<rect x="59.125" y="172.101" fill="none" stroke="#008848" stroke-width="3" stroke-miterlimit="10" width="24" height="9.424"/>
<rect x="91.125" y="172.101" fill="none" stroke="#008848" stroke-width="3" stroke-miterlimit="10" width="24" height="9.424"/>
<rect x="138.125" y="172.101" fill="none" stroke="#008848" stroke-width="3" stroke-miterlimit="10" width="24" height="9.424"/>
<rect x="170.125" y="172.101" fill="none" stroke="#008848" stroke-width="3" stroke-miterlimit="10" width="24" height="9.424"/>
<rect x="59.125" y="189.206" fill="none" stroke="#008848" stroke-width="3" stroke-miterlimit="10" width="24" height="9.424"/>
<rect x="91.125" y="189.206" fill="none" stroke="#008848" stroke-width="3" stroke-miterlimit="10" width="24" height="9.424"/>
<rect x="138.125" y="189.206" fill="none" stroke="#008848" stroke-width="3" stroke-miterlimit="10" width="24" height="9.424"/>
<rect x="170.125" y="189.206" fill="none" stroke="#008848" stroke-width="3" stroke-miterlimit="10" width="24" height="9.424"/>
<rect x="59.125" y="206.311" fill="none" stroke="#008848" stroke-width="3" stroke-miterlimit="10" width="24" height="9.424"/>
<rect x="91.125" y="206.311" fill="none" stroke="#008848" stroke-width="3" stroke-miterlimit="10" width="24" height="9.424"/>
<rect x="138.125" y="206.311" fill="none" stroke="#008848" stroke-width="3" stroke-miterlimit="10" width="24" height="9.424"/>
<rect x="170.125" y="206.311" fill="none" stroke="#008848" stroke-width="3" stroke-miterlimit="10" width="24" height="9.424"/>
<rect x="59.125" y="223.416" fill="none" stroke="#008848" stroke-width="3" stroke-miterlimit="10" width="24" height="9.424"/>
<rect x="91.125" y="223.416" fill="none" stroke="#008848" stroke-width="3" stroke-miterlimit="10" width="24" height="9.424"/>
<rect x="138.125" y="223.416" fill="none" stroke="#008848" stroke-width="3" stroke-miterlimit="10" width="24" height="9.424"/>
<rect x="170.125" y="223.416" fill="none" stroke="#008848" stroke-width="3" stroke-miterlimit="10" width="24" height="9.424"/>
<rect x="27.375" y="305" fill="#008848" width="200" height="9"/>
<rect x="28.125" y="291.188" fill="#FFFFFF" width="186" height="9.625"/>
<g>
	<rect x="58.878" y="261.109" fill="#008848" width="23.247" height="4.891"/>
	<rect x="176.878" y="261.109" fill="#008848" width="23.247" height="4.891"/>
	<rect x="90.125" y="254" fill="#008848" width="35" height="39"/>
	<rect x="135.125" y="254" fill="#008848" width="35" height="39"/>
	<rect x="137.125" y="259.813" fill="#FFFFFF" width="12" height="2.524"/>
	<rect x="110.125" y="259.813" fill="#FFFFFF" width="12" height="2.524"/>
</g>
<g>
	<rect x="268" y="353.247" fill="none" stroke="#008848" stroke-width="5" stroke-miterlimit="10" width="191" height="130.032"/>
	<rect x="247" y="475.815" fill="#FFFFFF" width="234" height="14.488"/>
	<rect x="260" y="397.247" fill="#008848" width="15" height="81"/>
	<rect x="451" y="397.247" fill="#008848" width="15" height="81"/>
</g>
<rect x="249.809" y="315" fill="none" stroke="#008848" stroke-width="5" stroke-miterlimit="10" width="230.191" height="37.968"/>
<text transform="matrix(1 0 0 1 263.5 339.0264)" fill="#008848" font-family="'Verdana-Bold'" font-size="18">CONG HOA GARDEN</text>
<rect x="467" y="99" fill="#FFFFFF" width="20" height="162"/>
<g>
	
		<text transform="matrix(-4.371139e-008 1 -1 -4.371139e-008 470 133.9351)" fill="#008848" font-family="'Verdana-Bold'" font-size="16">PARKING</text>
</g>
<g>
	<rect x="37" y="412" fill="none" stroke="#008848" stroke-width="5" stroke-miterlimit="10" width="178" height="61"/>
	<text transform="matrix(1 0 0 1 72.7031 439.749)"><tspan x="0" y="0" fill="#ED1C24" font-family="'Verdana-Bold'" font-size="18">FE</tspan><tspan x="24.003" y="0" fill="#008848" font-family="'Verdana-Bold'" font-size="18"> CREDIT</tspan><tspan x="-6.285" y="16.8" fill="#008848" font-family="'Verdana-Bold'" font-size="14">144 CONG HOA</tspan></text>
</g>
<rect x="48.375" y="47.344" fill="#008848" width="158" height="7.313"/>
<g>
	<text transform="matrix(1 0 0 1 37.2705 31)" fill="#008848" font-family="'Verdana-Bold'" font-size="14">20 CONG HOA GARDEN</text>
</g>
</svg>
