<?xml version="1.0" encoding="utf-8"?>
<!-- Generator: Adobe Illustrator 16.0.0, SVG Export Plug-In . SVG Version: 6.00 Build 0)  -->
<!DOCTYPE svg PUBLIC "-//W3C//DTD SVG 1.1//EN" "http://www.w3.org/Graphics/SVG/1.1/DTD/svg11.dtd">
<svg version="1.1" id="Layer_1" xmlns="http://www.w3.org/2000/svg" xmlns:xlink="http://www.w3.org/1999/xlink" x="0px" y="0px"
	 width="512px" height="512px" viewBox="0 0 512 512" enable-background="new 0 0 512 512" xml:space="preserve">
<line fill="none" stroke="#008848" stroke-width="2" stroke-miterlimit="10" x1="0" y1="387" x2="512" y2="387"/>
<line fill="none" stroke="#008848" stroke-width="2" stroke-miterlimit="10" x1="0" y1="435" x2="512" y2="435"/>
<rect x="236.736" y="356" fill="#FFFFFF" width="172.264" height="59"/>
<rect x="230" y="178" fill="#FFFFFF" width="40.264" height="46"/>
<rect x="233" y="388" fill="#FFFFFF" width="181" height="23"/>
<line fill="none" stroke="#008848" stroke-width="2" stroke-miterlimit="10" x1="237" y1="225" x2="0" y2="225"/>
<line fill="none" stroke="#008848" stroke-width="2" stroke-miterlimit="10" x1="238" y1="177" x2="0" y2="177"/>
<g>
	
		<rect x="262.915" y="282.435" fill="none" stroke="#008848" stroke-width="5" stroke-miterlimit="10" width="122.028" height="83.077"/>
	<rect x="249.499" y="360.743" fill="#FFFFFF" width="149.501" height="9.257"/>
	<rect x="257.804" y="310.548" fill="#008848" width="9.584" height="51.749"/>
	<rect x="379.832" y="310.548" fill="#008848" width="9.584" height="51.749"/>
</g>
<rect x="250.837" y="258.001" fill="none" stroke="#008848" stroke-width="4" stroke-miterlimit="10" width="147.067" height="24.257"/>
<g>
	<path fill="#04703A" d="M265.344,273.514c-0.621,0-1.195-0.092-1.721-0.275c-0.527-0.184-0.979-0.457-1.357-0.82
		c-0.377-0.362-0.67-0.815-0.879-1.358c-0.207-0.543-0.311-1.17-0.311-1.881c0-0.663,0.1-1.264,0.297-1.803
		c0.199-0.539,0.486-1.001,0.865-1.387c0.363-0.371,0.813-0.657,1.35-0.859s1.125-0.304,1.762-0.304c0.352,0,0.668,0.021,0.951,0.06
		s0.543,0.091,0.783,0.154c0.252,0.071,0.479,0.15,0.682,0.238c0.205,0.088,0.383,0.17,0.537,0.244v2.027h-0.246
		c-0.105-0.089-0.238-0.195-0.396-0.318c-0.16-0.123-0.34-0.244-0.543-0.363c-0.205-0.119-0.428-0.22-0.668-0.302
		c-0.238-0.082-0.496-0.123-0.77-0.123c-0.303,0-0.59,0.048-0.863,0.144c-0.273,0.095-0.527,0.253-0.758,0.474
		c-0.223,0.213-0.4,0.495-0.537,0.846c-0.137,0.352-0.205,0.777-0.205,1.277c0,0.523,0.074,0.961,0.223,1.312
		c0.146,0.352,0.334,0.628,0.559,0.829c0.229,0.206,0.482,0.353,0.764,0.44c0.279,0.088,0.557,0.132,0.83,0.132
		c0.262,0,0.521-0.039,0.777-0.117c0.258-0.078,0.494-0.185,0.711-0.319c0.184-0.107,0.354-0.223,0.512-0.346
		c0.156-0.123,0.285-0.229,0.387-0.318h0.225v1.999c-0.209,0.094-0.41,0.182-0.602,0.264c-0.189,0.082-0.391,0.153-0.6,0.213
		c-0.273,0.079-0.529,0.139-0.77,0.181C266.092,273.493,265.764,273.514,265.344,273.514z"/>
	<path fill="#04703A" d="M278.018,269.173c0,1.333-0.381,2.392-1.145,3.176s-1.82,1.176-3.168,1.176
		c-1.344,0-2.398-0.392-3.162-1.176s-1.145-1.843-1.145-3.176c0-1.344,0.381-2.406,1.145-3.187s1.818-1.171,3.162-1.171
		c1.34,0,2.395,0.391,3.162,1.171S278.018,267.829,278.018,269.173z M275.16,271.29c0.209-0.255,0.365-0.556,0.465-0.901
		c0.102-0.347,0.152-0.754,0.152-1.222c0-0.501-0.059-0.928-0.174-1.28c-0.117-0.352-0.268-0.636-0.455-0.854
		c-0.191-0.225-0.41-0.388-0.66-0.488c-0.248-0.102-0.508-0.151-0.777-0.151c-0.273,0-0.531,0.049-0.771,0.146
		c-0.242,0.098-0.465,0.259-0.666,0.483c-0.188,0.209-0.34,0.499-0.457,0.867c-0.119,0.369-0.178,0.797-0.178,1.283
		c0,0.498,0.057,0.922,0.172,1.271c0.113,0.351,0.264,0.636,0.451,0.856s0.406,0.384,0.658,0.488
		c0.25,0.105,0.514,0.157,0.791,0.157s0.541-0.053,0.791-0.159C274.754,271.68,274.973,271.515,275.16,271.29z"/>
	<path fill="#04703A" d="M287.266,273.351h-2.078l-3.549-5.739v5.739h-1.977v-8.361h2.578l3.049,4.79v-4.79h1.977V273.351z"/>
	<path fill="#04703A" d="M296.795,272.873c-0.375,0.146-0.871,0.291-1.488,0.436c-0.617,0.144-1.234,0.216-1.848,0.216
		c-1.422,0-2.535-0.387-3.34-1.159c-0.807-0.773-1.209-1.841-1.209-3.204c0-1.299,0.406-2.346,1.219-3.142
		c0.813-0.795,1.945-1.193,3.398-1.193c0.549,0,1.074,0.05,1.572,0.149c0.498,0.099,1.051,0.297,1.662,0.592v1.96h-0.242
		c-0.105-0.078-0.258-0.189-0.461-0.334c-0.201-0.144-0.396-0.267-0.584-0.368c-0.217-0.119-0.471-0.223-0.76-0.309
		c-0.291-0.086-0.598-0.129-0.924-0.129c-0.383,0-0.729,0.056-1.039,0.168s-0.59,0.285-0.836,0.517
		c-0.236,0.225-0.424,0.511-0.561,0.856c-0.137,0.347-0.203,0.746-0.203,1.199c0,0.925,0.244,1.632,0.734,2.122
		c0.49,0.491,1.215,0.736,2.174,0.736c0.082,0,0.172-0.002,0.271-0.006s0.189-0.01,0.273-0.017v-1.64h-1.668v-1.578h3.857V272.873z"
		/>
	<path fill="#04703A" d="M310.154,273.351h-2.156v-3.684h-3.184v3.684h-2.156v-8.361h2.156v3.061h3.184v-3.061h2.156V273.351z"/>
	<path fill="#04703A" d="M320.418,269.173c0,1.333-0.381,2.392-1.145,3.176s-1.82,1.176-3.168,1.176
		c-1.344,0-2.398-0.392-3.162-1.176s-1.145-1.843-1.145-3.176c0-1.344,0.381-2.406,1.145-3.187s1.818-1.171,3.162-1.171
		c1.34,0,2.395,0.391,3.162,1.171S320.418,267.829,320.418,269.173z M317.561,271.29c0.209-0.255,0.365-0.556,0.465-0.901
		c0.102-0.347,0.152-0.754,0.152-1.222c0-0.501-0.059-0.928-0.174-1.28c-0.117-0.352-0.268-0.636-0.455-0.854
		c-0.191-0.225-0.41-0.388-0.66-0.488c-0.248-0.102-0.508-0.151-0.777-0.151c-0.273,0-0.531,0.049-0.771,0.146
		c-0.242,0.098-0.465,0.259-0.666,0.483c-0.188,0.209-0.34,0.499-0.457,0.867c-0.119,0.369-0.178,0.797-0.178,1.283
		c0,0.498,0.057,0.922,0.172,1.271c0.113,0.351,0.264,0.636,0.451,0.856s0.406,0.384,0.658,0.488
		c0.25,0.105,0.514,0.157,0.791,0.157s0.541-0.053,0.791-0.159C317.154,271.68,317.373,271.515,317.561,271.29z"/>
	<path fill="#04703A" d="M329.791,273.351h-2.229l-0.582-1.69h-3.094l-0.582,1.69h-2.174l3.09-8.361h2.48L329.791,273.351z
		 M326.463,270.127l-1.029-2.995l-1.029,2.995H326.463z"/>
	<path fill="#04703A" d="M342.316,272.873c-0.373,0.146-0.869,0.291-1.486,0.436c-0.619,0.144-1.234,0.216-1.848,0.216
		c-1.424,0-2.537-0.387-3.342-1.159c-0.805-0.773-1.207-1.841-1.207-3.204c0-1.299,0.406-2.346,1.219-3.142
		c0.813-0.795,1.943-1.193,3.396-1.193c0.551,0,1.074,0.05,1.572,0.149c0.498,0.099,1.053,0.297,1.662,0.592v1.96h-0.24
		c-0.105-0.078-0.26-0.189-0.461-0.334c-0.203-0.144-0.396-0.267-0.584-0.368c-0.217-0.119-0.471-0.223-0.762-0.309
		c-0.289-0.086-0.598-0.129-0.924-0.129c-0.381,0-0.729,0.056-1.039,0.168s-0.588,0.285-0.836,0.517
		c-0.236,0.225-0.422,0.511-0.559,0.856c-0.137,0.347-0.205,0.746-0.205,1.199c0,0.925,0.246,1.632,0.736,2.122
		c0.49,0.491,1.215,0.736,2.172,0.736c0.082,0,0.174-0.002,0.273-0.006c0.098-0.004,0.189-0.01,0.271-0.017v-1.64h-1.668v-1.578
		h3.857V272.873z"/>
	<path fill="#04703A" d="M351.977,273.351h-2.229l-0.582-1.69h-3.094l-0.582,1.69h-2.174l3.09-8.361h2.48L351.977,273.351z
		 M348.648,270.127l-1.029-2.995l-1.029,2.995H348.648z"/>
	<path fill="#04703A" d="M361.23,273.351h-2.635l-2.273-3.066h-1v3.066h-2.145v-8.361h3.617c0.494,0,0.918,0.028,1.273,0.084
		c0.355,0.057,0.689,0.179,1,0.365c0.314,0.188,0.564,0.43,0.75,0.728s0.277,0.671,0.277,1.12c0,0.617-0.143,1.121-0.43,1.511
		c-0.287,0.389-0.695,0.713-1.227,0.971L361.23,273.351z M357.867,267.55c0-0.209-0.043-0.389-0.129-0.539
		c-0.088-0.149-0.234-0.268-0.445-0.354c-0.145-0.06-0.316-0.097-0.51-0.109c-0.195-0.014-0.422-0.02-0.68-0.02h-0.781v2.251h0.664
		c0.344,0,0.631-0.017,0.863-0.05c0.232-0.034,0.428-0.11,0.584-0.23c0.15-0.116,0.26-0.244,0.328-0.385
		C357.832,267.974,357.867,267.786,357.867,267.55z"/>
	<path fill="#04703A" d="M370.074,269.179c0,0.778-0.178,1.476-0.533,2.092c-0.357,0.615-0.807,1.088-1.348,1.417
		c-0.408,0.247-0.855,0.42-1.344,0.517c-0.486,0.098-1.063,0.146-1.729,0.146h-2.947v-8.361h3.031c0.682,0,1.27,0.058,1.764,0.172
		s0.91,0.275,1.246,0.485c0.576,0.352,1.031,0.826,1.361,1.424C369.908,267.667,370.074,268.37,370.074,269.179z M367.844,269.161
		c0-0.55-0.1-1.021-0.301-1.412c-0.199-0.391-0.518-0.697-0.951-0.918c-0.221-0.108-0.445-0.183-0.676-0.222
		s-0.578-0.059-1.043-0.059h-0.543v5.233h0.543c0.514,0,0.891-0.023,1.129-0.07c0.24-0.047,0.475-0.132,0.703-0.256
		c0.393-0.225,0.68-0.524,0.863-0.901C367.752,270.181,367.844,269.716,367.844,269.161z"/>
	<path fill="#04703A" d="M377.766,273.351h-6.047v-8.361h6.047v1.617h-3.902v1.443h3.623v1.617h-3.623v2.066h3.902V273.351z"/>
	<path fill="#04703A" d="M387.178,273.351h-2.076l-3.549-5.739v5.739h-1.977v-8.361h2.576l3.049,4.79v-4.79h1.977V273.351z"/>
</g>
<g>
	<g>
		<path fill="#04703A" d="M438.838,119.034c0,0.456-0.08,0.901-0.24,1.336c-0.159,0.435-0.387,0.801-0.684,1.097
			c-0.405,0.401-0.857,0.704-1.356,0.909s-1.12,0.308-1.862,0.308h-1.635V126h-2.625v-10.179h4.32c0.647,0,1.193,0.056,1.638,0.167
			s0.837,0.279,1.179,0.502c0.41,0.269,0.725,0.613,0.94,1.032S438.838,118.446,438.838,119.034z M436.123,119.093
			c0-0.287-0.077-0.533-0.232-0.74c-0.154-0.207-0.334-0.351-0.539-0.433c-0.273-0.109-0.541-0.169-0.801-0.181
			s-0.605-0.017-1.039-0.017h-0.451v3.042h0.752c0.447,0,0.814-0.027,1.104-0.082c0.29-0.054,0.532-0.164,0.728-0.327
			c0.169-0.146,0.291-0.319,0.366-0.522C436.086,119.63,436.123,119.384,436.123,119.093z"/>
		<path fill="#04703A" d="M450.104,126h-2.711l-0.709-2.058h-3.768L442.207,126h-2.645l3.76-10.179h3.021L450.104,126z
			 M446.053,122.076l-1.253-3.646l-1.253,3.646H446.053z"/>
		<path fill="#04703A" d="M461.369,126h-3.207l-2.769-3.732h-1.216V126h-2.611v-10.179h4.402c0.602,0,1.118,0.034,1.551,0.103
			c0.434,0.068,0.839,0.216,1.217,0.444c0.383,0.228,0.688,0.523,0.913,0.885s0.339,0.817,0.339,1.364
			c0,0.752-0.175,1.365-0.523,1.839s-0.847,0.868-1.494,1.183L461.369,126z M457.273,118.938c0-0.255-0.052-0.474-0.156-0.656
			c-0.105-0.182-0.285-0.326-0.541-0.431c-0.178-0.073-0.385-0.117-0.621-0.133c-0.237-0.016-0.514-0.024-0.828-0.024h-0.949v2.741
			h0.807c0.419,0,0.77-0.021,1.053-0.062c0.282-0.041,0.52-0.134,0.711-0.28c0.182-0.141,0.314-0.297,0.399-0.468
			S457.273,119.226,457.273,118.938z"/>
		<path fill="#04703A" d="M472.02,126h-3.227l-3.042-4.074l-0.608,0.752V126h-2.625v-10.179h2.625v4.612l3.636-4.612h3.042
			l-3.979,4.71L472.02,126z"/>
		<path fill="#04703A" d="M478.814,126h-5.961v-1.805h1.668v-6.569h-1.668v-1.805h5.961v1.805h-1.668v6.569h1.668V126z"/>
		<path fill="#04703A" d="M490.209,126h-2.529l-4.32-6.986V126h-2.406v-10.179h3.139l3.711,5.831v-5.831h2.406V126z"/>
		<path fill="#04703A" d="M501.811,125.419c-0.456,0.178-1.061,0.354-1.813,0.53s-1.501,0.263-2.248,0.263
			c-1.732,0-3.088-0.471-4.068-1.412c-0.979-0.941-1.469-2.241-1.469-3.9c0-1.582,0.494-2.856,1.482-3.825
			c0.989-0.968,2.368-1.453,4.137-1.453c0.67,0,1.308,0.061,1.914,0.181c0.605,0.121,1.28,0.361,2.023,0.721v2.386h-0.295
			c-0.127-0.096-0.314-0.231-0.561-0.407s-0.482-0.325-0.711-0.448c-0.264-0.146-0.572-0.271-0.926-0.376s-0.729-0.157-1.125-0.157
			c-0.465,0-0.886,0.068-1.264,0.205c-0.379,0.137-0.719,0.346-1.02,0.629c-0.287,0.273-0.514,0.621-0.68,1.042
			s-0.25,0.908-0.25,1.459c0,1.125,0.299,1.987,0.896,2.584c0.597,0.597,1.479,0.896,2.645,0.896c0.101,0,0.211-0.002,0.332-0.007
			s0.231-0.011,0.332-0.021v-1.996h-2.031v-1.921h4.697V125.419z"/>
	</g>
</g>
<g>
	<g>
		<path fill="#04703A" d="M86.14,332.79h-4.683v1.894h4.341v1.969h-4.341V341h-2.611v-10.179h7.294V332.79z"/>
		<path fill="#04703A" d="M95.313,341h-7.362v-10.179h7.362v1.969h-4.751v1.757h4.409v1.969h-4.409v2.516h4.751V341z"/>
		<path fill="#04703A" d="M106.9,341.198c-0.756,0-1.455-0.111-2.095-0.335s-1.19-0.556-1.651-0.998s-0.817-0.993-1.07-1.654
			s-0.379-1.424-0.379-2.29c0-0.807,0.121-1.538,0.362-2.194s0.592-1.219,1.053-1.688c0.442-0.451,0.99-0.8,1.644-1.046
			s1.368-0.369,2.143-0.369c0.428,0,0.814,0.023,1.159,0.072c0.344,0.047,0.662,0.11,0.954,0.188
			c0.305,0.087,0.582,0.184,0.831,0.291c0.249,0.106,0.466,0.206,0.653,0.297v2.468h-0.301c-0.127-0.108-0.288-0.238-0.482-0.388
			s-0.414-0.297-0.66-0.442c-0.25-0.145-0.522-0.268-0.813-0.367s-0.604-0.149-0.937-0.149c-0.369,0-0.72,0.058-1.053,0.174
			s-0.64,0.309-0.923,0.576c-0.269,0.26-0.486,0.604-0.653,1.03c-0.167,0.428-0.25,0.946-0.25,1.556c0,0.637,0.09,1.169,0.27,1.597
			c0.18,0.427,0.407,0.764,0.68,1.009c0.278,0.251,0.588,0.429,0.93,0.536c0.342,0.106,0.679,0.16,1.012,0.16
			c0.319,0,0.635-0.048,0.947-0.143c0.312-0.096,0.601-0.225,0.865-0.388c0.223-0.132,0.431-0.272,0.622-0.422
			s0.349-0.279,0.472-0.388h0.273v2.434c-0.255,0.114-0.499,0.221-0.731,0.321s-0.476,0.187-0.731,0.26
			c-0.333,0.096-0.645,0.169-0.937,0.219S107.411,341.198,106.9,341.198z"/>
		<path fill="#04703A" d="M122.233,341h-3.206l-2.769-3.732h-1.216V341h-2.611v-10.179h4.402c0.602,0,1.119,0.034,1.552,0.103
			s0.838,0.217,1.217,0.444c0.383,0.228,0.687,0.522,0.913,0.886c0.226,0.361,0.338,0.816,0.338,1.363
			c0,0.752-0.174,1.365-0.523,1.839s-0.847,0.868-1.494,1.183L122.233,341z M118.139,333.938c0-0.255-0.052-0.474-0.157-0.656
			s-0.285-0.326-0.54-0.431c-0.178-0.073-0.385-0.117-0.622-0.133c-0.237-0.017-0.513-0.024-0.827-0.024h-0.95v2.741h0.807
			c0.419,0,0.77-0.021,1.053-0.062s0.52-0.135,0.711-0.28c0.182-0.142,0.315-0.297,0.4-0.469
			C118.097,334.455,118.139,334.226,118.139,333.938z"/>
		<path fill="#04703A" d="M130.744,341h-7.362v-10.179h7.362v1.969h-4.751v1.757h4.409v1.969h-4.409v2.516h4.751V341z"/>
		<path fill="#04703A" d="M142.563,335.921c0,0.948-0.216,1.797-0.649,2.546c-0.433,0.75-0.98,1.325-1.641,1.727
			c-0.497,0.301-1.042,0.511-1.634,0.629S137.345,341,136.534,341h-3.589v-10.179h3.691c0.83,0,1.545,0.069,2.146,0.208
			c0.602,0.14,1.107,0.337,1.518,0.592c0.702,0.429,1.254,1.006,1.658,1.732C142.362,334.081,142.563,334.937,142.563,335.921z
			 M139.85,335.9c0-0.67-0.122-1.243-0.366-1.719c-0.244-0.477-0.63-0.85-1.159-1.118c-0.269-0.132-0.543-0.222-0.824-0.271
			c-0.28-0.047-0.703-0.071-1.268-0.071h-0.663v6.371h0.663c0.625,0,1.083-0.028,1.374-0.085c0.292-0.058,0.577-0.161,0.854-0.312
			c0.479-0.273,0.83-0.64,1.053-1.097C139.738,337.141,139.85,336.575,139.85,335.9z"/>
		<path fill="#04703A" d="M150.069,341h-5.961v-1.805h1.668v-6.569h-1.668v-1.805h5.961v1.805h-1.668v6.569h1.668V341z"/>
		<path fill="#04703A" d="M160.173,332.79h-3.179V341h-2.625v-8.21h-3.179v-1.969h8.982V332.79z"/>
		<path fill="#04703A" d="M68.031,359h-6.795v-1.777h2.146v-5.38h-2.146v-1.661c0.328,0,0.643-0.02,0.943-0.059
			c0.301-0.038,0.551-0.105,0.752-0.201c0.237-0.114,0.415-0.262,0.533-0.444s0.187-0.41,0.205-0.684h2.263v8.429h2.099V359z"/>
		<path fill="#04703A" d="M78.771,356.655h-1.388v2.372h-2.509v-2.372h-4.929v-1.928l4.765-5.906h2.673v5.975h1.388V356.655z
			 M74.874,354.796v-3.685l-2.964,3.685H74.874z"/>
		<path fill="#04703A" d="M88.724,356.655h-1.388v2.372h-2.509v-2.372h-4.929v-1.928l4.765-5.906h2.673v5.975h1.388V356.655z
			 M84.827,354.796v-3.685l-2.964,3.685H84.827z"/>
		<path fill="#04703A" d="M99.962,359.198c-0.756,0-1.455-0.111-2.095-0.335s-1.19-0.556-1.651-0.998s-0.817-0.993-1.07-1.654
			s-0.379-1.424-0.379-2.29c0-0.807,0.121-1.538,0.362-2.194s0.592-1.219,1.053-1.688c0.442-0.451,0.99-0.8,1.644-1.046
			s1.368-0.369,2.143-0.369c0.428,0,0.814,0.023,1.159,0.072c0.344,0.047,0.662,0.11,0.954,0.188
			c0.305,0.087,0.582,0.184,0.831,0.291c0.249,0.106,0.466,0.206,0.653,0.297v2.468h-0.301c-0.127-0.108-0.288-0.238-0.482-0.388
			s-0.414-0.297-0.66-0.442c-0.25-0.145-0.522-0.268-0.813-0.367s-0.604-0.149-0.937-0.149c-0.369,0-0.72,0.058-1.053,0.174
			s-0.64,0.309-0.923,0.576c-0.269,0.26-0.486,0.604-0.653,1.03c-0.167,0.428-0.25,0.946-0.25,1.556c0,0.637,0.09,1.169,0.27,1.597
			c0.18,0.427,0.407,0.764,0.68,1.009c0.278,0.251,0.588,0.429,0.93,0.536c0.342,0.106,0.679,0.16,1.012,0.16
			c0.319,0,0.635-0.048,0.947-0.143c0.312-0.096,0.601-0.225,0.865-0.388c0.223-0.132,0.431-0.272,0.622-0.422
			s0.349-0.279,0.472-0.388h0.273v2.434c-0.255,0.114-0.499,0.221-0.731,0.321s-0.476,0.187-0.731,0.26
			c-0.333,0.096-0.645,0.169-0.937,0.219S100.472,359.198,99.962,359.198z"/>
		<path fill="#04703A" d="M115.391,353.914c0,1.622-0.465,2.911-1.395,3.865c-0.93,0.955-2.215,1.433-3.855,1.433
			c-1.636,0-2.919-0.478-3.849-1.433c-0.93-0.954-1.395-2.243-1.395-3.865c0-1.636,0.465-2.93,1.395-3.879
			c0.93-0.951,2.212-1.426,3.849-1.426c1.631,0,2.915,0.475,3.849,1.426C114.923,350.984,115.391,352.278,115.391,353.914z
			 M111.911,356.491c0.255-0.31,0.444-0.676,0.567-1.097c0.123-0.422,0.185-0.918,0.185-1.487c0-0.61-0.071-1.13-0.212-1.559
			s-0.326-0.774-0.554-1.039c-0.232-0.273-0.5-0.472-0.803-0.595s-0.619-0.185-0.947-0.185c-0.333,0-0.646,0.06-0.94,0.178
			s-0.564,0.314-0.81,0.588c-0.228,0.255-0.414,0.607-0.557,1.056c-0.144,0.449-0.215,0.97-0.215,1.563
			c0,0.606,0.069,1.122,0.208,1.549c0.139,0.426,0.322,0.773,0.55,1.042s0.495,0.467,0.8,0.595s0.626,0.191,0.964,0.191
			s0.659-0.064,0.964-0.195C111.417,356.967,111.683,356.765,111.911,356.491z"/>
		<path fill="#04703A" d="M126.649,359h-2.529l-4.32-6.986V359h-2.406v-10.179h3.138l3.712,5.831v-5.831h2.406V359z"/>
		<path fill="#04703A" d="M138.25,358.419c-0.456,0.178-1.06,0.354-1.812,0.53c-0.752,0.175-1.501,0.263-2.249,0.263
			c-1.732,0-3.087-0.471-4.067-1.411c-0.98-0.941-1.47-2.241-1.47-3.9c0-1.581,0.495-2.856,1.483-3.824
			c0.989-0.969,2.368-1.453,4.136-1.453c0.67,0,1.308,0.061,1.914,0.182c0.606,0.12,1.281,0.36,2.023,0.721v2.386h-0.294
			c-0.127-0.096-0.314-0.231-0.561-0.407c-0.246-0.175-0.483-0.324-0.711-0.447c-0.264-0.146-0.573-0.271-0.926-0.376
			s-0.728-0.157-1.125-0.157c-0.465,0-0.886,0.068-1.265,0.205s-0.718,0.347-1.019,0.629c-0.287,0.273-0.514,0.621-0.68,1.043
			c-0.167,0.421-0.25,0.907-0.25,1.459c0,1.126,0.298,1.987,0.896,2.584s1.479,0.896,2.646,0.896c0.1,0,0.211-0.002,0.332-0.007
			s0.231-0.012,0.332-0.021v-1.996h-2.03v-1.921h4.696V358.419z"/>
		<path fill="#04703A" d="M154.513,359h-2.625v-4.484h-3.876V359h-2.625v-10.179h2.625v3.726h3.876v-3.726h2.625V359z"/>
		<path fill="#04703A" d="M167.009,353.914c0,1.622-0.465,2.911-1.395,3.865c-0.93,0.955-2.215,1.433-3.855,1.433
			c-1.636,0-2.919-0.478-3.849-1.433c-0.93-0.954-1.395-2.243-1.395-3.865c0-1.636,0.465-2.93,1.395-3.879
			c0.93-0.951,2.212-1.426,3.849-1.426c1.631,0,2.915,0.475,3.849,1.426C166.542,350.984,167.009,352.278,167.009,353.914z
			 M163.529,356.491c0.255-0.31,0.444-0.676,0.567-1.097c0.123-0.422,0.185-0.918,0.185-1.487c0-0.61-0.071-1.13-0.212-1.559
			s-0.326-0.774-0.554-1.039c-0.232-0.273-0.5-0.472-0.803-0.595s-0.619-0.185-0.947-0.185c-0.333,0-0.646,0.06-0.94,0.178
			s-0.564,0.314-0.81,0.588c-0.228,0.255-0.414,0.607-0.557,1.056c-0.144,0.449-0.215,0.97-0.215,1.563
			c0,0.606,0.069,1.122,0.208,1.549c0.139,0.426,0.322,0.773,0.55,1.042s0.495,0.467,0.8,0.595s0.626,0.191,0.964,0.191
			s0.659-0.064,0.964-0.195C163.035,356.967,163.301,356.765,163.529,356.491z"/>
		<path fill="#04703A" d="M178.418,359h-2.711l-0.709-2.058h-3.767L170.522,359h-2.646l3.76-10.179h3.021L178.418,359z
			 M174.367,355.076l-1.252-3.646l-1.252,3.646H174.367z"/>
	</g>
</g>
<g>
	<path fill="#ED1C24" d="M80.229,46.617h-5.352v2.164h4.961v2.25h-4.961V56h-2.984V44.367h8.336V46.617z"/>
	<path fill="#ED1C24" d="M90.713,56h-8.414V44.367h8.414v2.25h-5.43v2.008h5.039v2.25h-5.039v2.875h5.43V56z"/>
	<path fill="#04703A" d="M103.955,56.227c-0.865,0-1.663-0.128-2.395-0.383c-0.732-0.255-1.361-0.636-1.887-1.141
		c-0.526-0.505-0.934-1.136-1.223-1.891s-0.434-1.628-0.434-2.617c0-0.922,0.138-1.758,0.414-2.508
		c0.276-0.75,0.677-1.394,1.203-1.93c0.505-0.516,1.131-0.914,1.879-1.195c0.747-0.281,1.563-0.422,2.449-0.422
		c0.489,0,0.931,0.027,1.324,0.082c0.393,0.055,0.756,0.126,1.09,0.215c0.349,0.099,0.665,0.21,0.949,0.332
		c0.284,0.122,0.532,0.235,0.746,0.34v2.82h-0.344c-0.146-0.124-0.33-0.271-0.551-0.443c-0.222-0.171-0.473-0.339-0.754-0.505
		c-0.287-0.166-0.597-0.306-0.93-0.42c-0.333-0.114-0.69-0.171-1.07-0.171c-0.422,0-0.823,0.066-1.203,0.199
		c-0.38,0.132-0.732,0.352-1.055,0.658c-0.308,0.297-0.556,0.689-0.746,1.178c-0.19,0.488-0.285,1.081-0.285,1.777
		c0,0.728,0.103,1.336,0.309,1.824c0.206,0.488,0.465,0.873,0.777,1.154c0.317,0.285,0.672,0.489,1.063,0.611
		c0.391,0.123,0.776,0.184,1.156,0.184c0.364,0,0.725-0.055,1.082-0.163c0.356-0.108,0.686-0.257,0.988-0.443
		c0.255-0.15,0.492-0.311,0.711-0.481s0.398-0.319,0.539-0.443h0.313v2.781c-0.292,0.13-0.57,0.253-0.836,0.367
		s-0.544,0.214-0.836,0.297c-0.38,0.109-0.737,0.192-1.07,0.25C104.997,56.198,104.538,56.227,103.955,56.227z"/>
	<path fill="#04703A" d="M121.479,56h-3.664l-3.165-4.266h-1.39V56h-2.984V44.367h5.031c0.688,0,1.278,0.039,1.773,0.117
		c0.495,0.078,0.958,0.247,1.391,0.508c0.438,0.261,0.785,0.598,1.043,1.012s0.387,0.934,0.387,1.559
		c0,0.859-0.199,1.56-0.598,2.102s-0.968,0.992-1.707,1.352L121.479,56z M116.799,47.93c0-0.292-0.06-0.542-0.18-0.75
		c-0.12-0.208-0.326-0.372-0.617-0.492c-0.203-0.083-0.44-0.134-0.711-0.152c-0.271-0.019-0.586-0.027-0.945-0.027h-1.086v3.133
		h0.922c0.479,0,0.88-0.023,1.203-0.07c0.323-0.047,0.594-0.153,0.813-0.32c0.208-0.161,0.36-0.34,0.457-0.535
		C116.75,48.52,116.799,48.258,116.799,47.93z"/>
	<path fill="#04703A" d="M131.205,56h-8.414V44.367h8.414v2.25h-5.43v2.008h5.039v2.25h-5.039v2.875h5.43V56z"/>
	<path fill="#04703A" d="M144.713,50.195c0,1.083-0.248,2.054-0.742,2.91c-0.495,0.856-1.12,1.515-1.875,1.973
		c-0.568,0.344-1.19,0.583-1.867,0.719c-0.677,0.136-1.479,0.203-2.406,0.203h-4.102V44.367h4.219c0.948,0,1.766,0.079,2.453,0.238
		s1.266,0.384,1.734,0.676c0.802,0.489,1.434,1.149,1.895,1.98S144.713,49.07,144.713,50.195z M141.611,50.172
		c0-0.766-0.14-1.421-0.418-1.965c-0.279-0.544-0.72-0.97-1.324-1.277c-0.308-0.151-0.621-0.254-0.941-0.309
		s-0.804-0.082-1.449-0.082h-0.758v7.281h0.758c0.713,0,1.237-0.032,1.57-0.098c0.333-0.065,0.659-0.184,0.977-0.355
		c0.547-0.313,0.948-0.73,1.203-1.254C141.483,51.59,141.611,50.942,141.611,50.172z"/>
	<path fill="#04703A" d="M153.291,56h-6.813v-2.063h1.906V46.43h-1.906v-2.063h6.813v2.063h-1.906v7.508h1.906V56z"/>
	<path fill="#04703A" d="M164.838,46.617h-3.633V56h-3v-9.383h-3.633v-2.25h10.266V46.617z"/>
	<path fill="#04703A" d="M43.74,68.617h-3.633V78h-3v-9.383h-3.633v-2.25H43.74V68.617z"/>
	<path fill="#04703A" d="M56.748,78h-3.664l-3.165-4.266h-1.39V78h-2.984V66.367h5.031c0.688,0,1.278,0.039,1.773,0.117
		c0.495,0.078,0.958,0.247,1.391,0.508c0.438,0.261,0.785,0.598,1.043,1.012s0.387,0.934,0.387,1.559
		c0,0.859-0.199,1.56-0.598,2.102s-0.968,0.992-1.707,1.352L56.748,78z M52.068,69.93c0-0.292-0.06-0.542-0.18-0.75
		c-0.12-0.208-0.326-0.372-0.617-0.492c-0.203-0.083-0.44-0.134-0.711-0.152c-0.271-0.019-0.586-0.027-0.945-0.027h-1.086v3.133
		h0.922c0.479,0,0.88-0.023,1.203-0.07c0.323-0.047,0.594-0.153,0.813-0.32c0.208-0.161,0.36-0.34,0.457-0.535
		C52.02,70.52,52.068,70.258,52.068,69.93z"/>
	<path fill="#04703A" d="M68.811,78h-3.098l-0.81-2.352h-4.305L59.787,78h-3.023l4.297-11.633h3.453L68.811,78z M64.181,73.516
		l-1.431-4.168l-1.432,4.168H64.181z"/>
	<path fill="#04703A" d="M76.771,78h-6.813v-2.063h1.906V68.43h-1.906v-2.063h6.813v2.063h-1.906v7.508h1.906V78z"/>
	<path fill="#04703A" d="M89.795,78h-2.891l-4.938-7.984V78h-2.75V66.367h3.586l4.242,6.664v-6.664h2.75V78z"/>
	<path fill="#04703A" d="M99.053,78H92.24v-2.063h1.906V68.43H92.24v-2.063h6.813v2.063h-1.906v7.508h1.906V78z"/>
	<path fill="#04703A" d="M112.076,78h-2.891l-4.938-7.984V78h-2.75V66.367h3.586l4.242,6.664v-6.664h2.75V78z"/>
	<path fill="#04703A" d="M125.334,77.336c-0.521,0.203-1.211,0.405-2.07,0.605s-1.716,0.301-2.57,0.301
		c-1.979,0-3.529-0.538-4.648-1.613c-1.12-1.075-1.68-2.562-1.68-4.457c0-1.808,0.565-3.265,1.695-4.371
		c1.13-1.106,2.706-1.66,4.727-1.66c0.766,0,1.495,0.069,2.188,0.207c0.692,0.138,1.463,0.413,2.313,0.824v2.727h-0.336
		c-0.146-0.109-0.359-0.265-0.641-0.465s-0.552-0.371-0.813-0.512c-0.302-0.167-0.655-0.31-1.059-0.43
		c-0.404-0.12-0.832-0.18-1.285-0.18c-0.531,0-1.013,0.078-1.445,0.234c-0.433,0.156-0.82,0.396-1.164,0.719
		c-0.328,0.313-0.587,0.71-0.777,1.191c-0.19,0.481-0.285,1.038-0.285,1.668c0,1.286,0.341,2.271,1.023,2.953
		c0.682,0.683,1.69,1.023,3.023,1.023c0.114,0,0.241-0.003,0.379-0.008c0.138-0.005,0.264-0.013,0.379-0.023v-2.281h-2.32v-2.195
		h5.367V77.336z"/>
	<path fill="#04703A" d="M138.748,78.227c-0.865,0-1.663-0.128-2.395-0.383c-0.732-0.255-1.361-0.636-1.887-1.141
		c-0.526-0.505-0.934-1.136-1.223-1.891s-0.434-1.628-0.434-2.617c0-0.922,0.138-1.758,0.414-2.508
		c0.276-0.75,0.677-1.394,1.203-1.93c0.505-0.516,1.131-0.914,1.879-1.195c0.747-0.281,1.563-0.422,2.449-0.422
		c0.489,0,0.931,0.027,1.324,0.082c0.393,0.055,0.756,0.126,1.09,0.215c0.349,0.099,0.665,0.21,0.949,0.332
		c0.284,0.122,0.532,0.235,0.746,0.34v2.82h-0.344c-0.146-0.124-0.33-0.271-0.551-0.443c-0.222-0.171-0.473-0.339-0.754-0.505
		c-0.287-0.166-0.597-0.306-0.93-0.42c-0.333-0.114-0.69-0.171-1.07-0.171c-0.422,0-0.823,0.066-1.203,0.199
		c-0.38,0.132-0.732,0.352-1.055,0.658c-0.308,0.297-0.556,0.689-0.746,1.178c-0.19,0.488-0.285,1.081-0.285,1.777
		c0,0.728,0.103,1.336,0.309,1.824c0.206,0.488,0.465,0.873,0.777,1.154c0.317,0.285,0.672,0.489,1.063,0.611
		c0.391,0.123,0.776,0.184,1.156,0.184c0.364,0,0.725-0.055,1.082-0.163c0.356-0.108,0.686-0.257,0.988-0.443
		c0.255-0.15,0.492-0.311,0.711-0.481s0.398-0.319,0.539-0.443h0.313v2.781c-0.292,0.13-0.57,0.253-0.836,0.367
		s-0.544,0.214-0.836,0.297c-0.38,0.109-0.737,0.192-1.07,0.25C139.79,78.198,139.331,78.227,138.748,78.227z"/>
	<path fill="#04703A" d="M153.482,78h-8.414V66.367h8.414v2.25h-5.43v2.008h5.039v2.25h-5.039v2.875h5.43V78z"/>
	<path fill="#04703A" d="M166.576,78h-2.891l-4.938-7.984V78h-2.75V66.367h3.586l4.242,6.664v-6.664h2.75V78z"/>
	<path fill="#04703A" d="M178.646,68.617h-3.633V78h-3v-9.383h-3.633v-2.25h10.266V68.617z"/>
	<path fill="#04703A" d="M188.865,78h-8.414V66.367h8.414v2.25h-5.43v2.008h5.039v2.25h-5.039v2.875h5.43V78z"/>
	<path fill="#04703A" d="M202.584,78h-3.664l-3.165-4.266h-1.39V78h-2.984V66.367h5.031c0.688,0,1.278,0.039,1.773,0.117
		c0.495,0.078,0.958,0.247,1.391,0.508c0.438,0.261,0.785,0.598,1.043,1.012s0.387,0.934,0.387,1.559
		c0,0.859-0.199,1.56-0.598,2.102s-0.968,0.992-1.707,1.352L202.584,78z M197.904,69.93c0-0.292-0.06-0.542-0.18-0.75
		c-0.12-0.208-0.326-0.372-0.617-0.492c-0.203-0.083-0.44-0.134-0.711-0.152c-0.271-0.019-0.586-0.027-0.945-0.027h-1.086v3.133
		h0.922c0.479,0,0.88-0.023,1.203-0.07c0.323-0.047,0.594-0.153,0.813-0.32c0.208-0.161,0.36-0.34,0.457-0.535
		C197.856,70.52,197.904,70.258,197.904,69.93z"/>
	<path fill="#04703A" d="M45.924,100.198c-0.756,0-1.455-0.111-2.095-0.335s-1.19-0.556-1.651-0.998s-0.817-0.993-1.07-1.654
		s-0.379-1.424-0.379-2.29c0-0.807,0.121-1.538,0.362-2.194s0.592-1.219,1.053-1.688c0.442-0.451,0.99-0.8,1.644-1.046
		s1.368-0.369,2.143-0.369c0.428,0,0.814,0.023,1.159,0.072c0.344,0.047,0.662,0.11,0.954,0.188
		c0.305,0.087,0.582,0.184,0.831,0.291c0.249,0.106,0.466,0.206,0.653,0.297v2.468h-0.301c-0.127-0.108-0.288-0.238-0.482-0.388
		s-0.414-0.297-0.66-0.442c-0.25-0.145-0.522-0.268-0.813-0.367s-0.604-0.149-0.937-0.149c-0.369,0-0.72,0.058-1.053,0.174
		s-0.64,0.309-0.923,0.576c-0.269,0.26-0.486,0.604-0.653,1.03c-0.167,0.428-0.25,0.946-0.25,1.556c0,0.637,0.09,1.169,0.27,1.597
		c0.18,0.427,0.407,0.764,0.68,1.009c0.278,0.251,0.588,0.429,0.93,0.536c0.342,0.106,0.679,0.16,1.012,0.16
		c0.319,0,0.635-0.048,0.947-0.143c0.312-0.096,0.601-0.225,0.865-0.388c0.223-0.132,0.431-0.272,0.622-0.422
		s0.349-0.279,0.472-0.388h0.273v2.434c-0.255,0.114-0.499,0.221-0.731,0.321s-0.476,0.187-0.731,0.26
		c-0.333,0.096-0.645,0.169-0.937,0.219S46.434,100.198,45.924,100.198z"/>
	<path fill="#04703A" d="M61.353,94.914c0,1.622-0.465,2.911-1.395,3.865c-0.93,0.955-2.215,1.433-3.855,1.433
		c-1.636,0-2.919-0.478-3.849-1.433c-0.93-0.954-1.395-2.243-1.395-3.865c0-1.636,0.465-2.93,1.395-3.879
		c0.93-0.951,2.212-1.426,3.849-1.426c1.631,0,2.915,0.475,3.849,1.426C60.885,91.984,61.353,93.278,61.353,94.914z M57.873,97.491
		c0.255-0.31,0.444-0.676,0.567-1.097c0.123-0.422,0.185-0.918,0.185-1.487c0-0.61-0.071-1.13-0.212-1.559s-0.326-0.774-0.554-1.039
		c-0.232-0.273-0.5-0.472-0.803-0.595s-0.619-0.185-0.947-0.185c-0.333,0-0.646,0.06-0.94,0.178s-0.564,0.314-0.81,0.588
		c-0.228,0.255-0.414,0.607-0.557,1.056c-0.144,0.449-0.215,0.97-0.215,1.563c0,0.606,0.069,1.122,0.208,1.549
		c0.139,0.426,0.322,0.773,0.55,1.042s0.495,0.467,0.8,0.595s0.626,0.191,0.964,0.191s0.659-0.064,0.964-0.195
		C57.378,97.967,57.645,97.765,57.873,97.491z"/>
	<path fill="#04703A" d="M72.611,100h-2.529l-4.32-6.986V100h-2.406V89.821h3.138l3.712,5.831v-5.831h2.406V100z"/>
	<path fill="#04703A" d="M84.212,99.419c-0.456,0.178-1.06,0.354-1.812,0.53c-0.752,0.175-1.501,0.263-2.249,0.263
		c-1.732,0-3.087-0.471-4.067-1.411c-0.98-0.941-1.47-2.241-1.47-3.9c0-1.581,0.495-2.856,1.483-3.824
		c0.989-0.969,2.368-1.453,4.136-1.453c0.67,0,1.308,0.061,1.914,0.182c0.606,0.12,1.281,0.36,2.023,0.721v2.386h-0.294
		c-0.127-0.096-0.314-0.231-0.561-0.407c-0.246-0.175-0.483-0.324-0.711-0.447c-0.264-0.146-0.573-0.271-0.926-0.376
		s-0.728-0.157-1.125-0.157c-0.465,0-0.886,0.068-1.265,0.205s-0.718,0.347-1.019,0.629c-0.287,0.273-0.514,0.621-0.68,1.043
		c-0.167,0.421-0.25,0.907-0.25,1.459c0,1.126,0.298,1.987,0.896,2.584s1.479,0.896,2.646,0.896c0.1,0,0.211-0.002,0.332-0.007
		s0.231-0.012,0.332-0.021v-1.996h-2.03v-1.921h4.696V99.419z"/>
	<path fill="#04703A" d="M100.475,100H97.85v-4.484h-3.876V100h-2.625V89.821h2.625v3.726h3.876v-3.726h2.625V100z"/>
	<path fill="#04703A" d="M112.971,94.914c0,1.622-0.465,2.911-1.395,3.865c-0.93,0.955-2.215,1.433-3.855,1.433
		c-1.636,0-2.919-0.478-3.849-1.433c-0.93-0.954-1.395-2.243-1.395-3.865c0-1.636,0.465-2.93,1.395-3.879
		c0.93-0.951,2.212-1.426,3.849-1.426c1.631,0,2.915,0.475,3.849,1.426C112.503,91.984,112.971,93.278,112.971,94.914z
		 M109.491,97.491c0.255-0.31,0.444-0.676,0.567-1.097c0.123-0.422,0.185-0.918,0.185-1.487c0-0.61-0.071-1.13-0.212-1.559
		s-0.326-0.774-0.554-1.039c-0.232-0.273-0.5-0.472-0.803-0.595s-0.619-0.185-0.947-0.185c-0.333,0-0.646,0.06-0.94,0.178
		s-0.564,0.314-0.81,0.588c-0.228,0.255-0.414,0.607-0.557,1.056c-0.144,0.449-0.215,0.97-0.215,1.563
		c0,0.606,0.069,1.122,0.208,1.549c0.139,0.426,0.322,0.773,0.55,1.042s0.495,0.467,0.8,0.595s0.626,0.191,0.964,0.191
		s0.659-0.064,0.964-0.195C108.997,97.967,109.263,97.765,109.491,97.491z"/>
	<path fill="#04703A" d="M124.38,100h-2.711l-0.709-2.058h-3.767L116.484,100h-2.646l3.76-10.179h3.021L124.38,100z M120.329,96.076
		l-1.252-3.646l-1.252,3.646H120.329z"/>
	<path fill="#04703A" d="M139.631,99.419c-0.456,0.178-1.06,0.354-1.812,0.53c-0.752,0.175-1.501,0.263-2.249,0.263
		c-1.732,0-3.087-0.471-4.067-1.411c-0.98-0.941-1.47-2.241-1.47-3.9c0-1.581,0.495-2.856,1.483-3.824
		c0.989-0.969,2.368-1.453,4.136-1.453c0.67,0,1.308,0.061,1.914,0.182c0.606,0.12,1.281,0.36,2.023,0.721v2.386h-0.294
		c-0.127-0.096-0.314-0.231-0.561-0.407c-0.246-0.175-0.483-0.324-0.711-0.447c-0.264-0.146-0.573-0.271-0.926-0.376
		s-0.728-0.157-1.125-0.157c-0.465,0-0.886,0.068-1.265,0.205s-0.718,0.347-1.019,0.629c-0.287,0.273-0.514,0.621-0.68,1.043
		c-0.167,0.421-0.25,0.907-0.25,1.459c0,1.126,0.298,1.987,0.896,2.584s1.479,0.896,2.646,0.896c0.1,0,0.211-0.002,0.332-0.007
		s0.231-0.012,0.332-0.021v-1.996h-2.03v-1.921h4.696V99.419z"/>
	<path fill="#04703A" d="M151.389,100h-2.711l-0.709-2.058h-3.767L143.493,100h-2.646l3.76-10.179h3.021L151.389,100z
		 M147.338,96.076l-1.252-3.646l-1.252,3.646H147.338z"/>
	<path fill="#04703A" d="M162.654,100h-3.206l-2.769-3.732h-1.216V100h-2.611V89.821h4.402c0.602,0,1.119,0.034,1.552,0.103
		s0.838,0.217,1.217,0.444c0.383,0.228,0.687,0.522,0.913,0.886c0.226,0.361,0.338,0.816,0.338,1.363
		c0,0.752-0.174,1.365-0.523,1.839s-0.847,0.868-1.494,1.183L162.654,100z M158.56,92.938c0-0.255-0.052-0.474-0.157-0.656
		s-0.285-0.326-0.54-0.431c-0.178-0.073-0.385-0.117-0.622-0.133c-0.237-0.017-0.513-0.024-0.827-0.024h-0.95v2.741h0.807
		c0.419,0,0.77-0.021,1.053-0.062s0.52-0.135,0.711-0.28c0.182-0.142,0.315-0.297,0.4-0.469
		C158.518,93.455,158.56,93.226,158.56,92.938z"/>
	<path fill="#04703A" d="M173.421,94.921c0,0.948-0.216,1.797-0.649,2.546c-0.433,0.75-0.98,1.325-1.641,1.727
		c-0.497,0.301-1.042,0.511-1.634,0.629S168.203,100,167.392,100h-3.589V89.821h3.691c0.83,0,1.545,0.069,2.146,0.208
		c0.602,0.14,1.107,0.337,1.518,0.592c0.702,0.429,1.254,1.006,1.658,1.732C173.219,93.081,173.421,93.937,173.421,94.921z
		 M170.707,94.9c0-0.67-0.122-1.243-0.366-1.719c-0.244-0.477-0.63-0.85-1.159-1.118c-0.269-0.132-0.543-0.222-0.824-0.271
		c-0.28-0.047-0.703-0.071-1.268-0.071h-0.663v6.371h0.663c0.625,0,1.083-0.028,1.374-0.085c0.292-0.058,0.577-0.161,0.854-0.312
		c0.479-0.273,0.83-0.64,1.053-1.097C170.595,96.141,170.707,95.575,170.707,94.9z"/>
	<path fill="#04703A" d="M182.786,100h-7.362V89.821h7.362v1.969h-4.751v1.757h4.409v1.969h-4.409v2.516h4.751V100z"/>
	<path fill="#04703A" d="M194.243,100h-2.529l-4.32-6.986V100h-2.406V89.821h3.138l3.712,5.831v-5.831h2.406V100z"/>
</g>
<rect x="109" y="374" fill="#008848" width="20" height="9"/>
<rect x="238" y="439" fill="#008848" width="20" height="9"/>
<rect x="415" y="111" fill="#008848" width="9" height="20"/>
<g>
	<g>
		<path fill="#04703A" d="M210.037,463.034c0,0.456-0.08,0.901-0.239,1.337c-0.16,0.435-0.387,0.801-0.684,1.097
			c-0.406,0.401-0.858,0.704-1.357,0.909s-1.12,0.308-1.863,0.308h-1.634V470h-2.625v-10.179h4.32c0.647,0,1.193,0.056,1.637,0.167
			c0.444,0.112,0.837,0.279,1.179,0.503c0.41,0.269,0.724,0.613,0.94,1.032S210.037,462.446,210.037,463.034z M207.323,463.093
			c0-0.287-0.078-0.533-0.232-0.74s-0.335-0.352-0.54-0.433c-0.273-0.109-0.54-0.17-0.8-0.182c-0.26-0.011-0.606-0.017-1.039-0.017
			h-0.451v3.042h0.752c0.447,0,0.814-0.027,1.104-0.082s0.532-0.163,0.728-0.327c0.168-0.146,0.291-0.319,0.366-0.521
			S207.323,463.384,207.323,463.093z"/>
		<path fill="#04703A" d="M217.399,470h-5.961v-1.805h1.668v-6.569h-1.668v-1.805h5.961v1.805h-1.668v6.569h1.668V470z"/>
		<path fill="#04703A" d="M224.139,470.198c-0.756,0-1.455-0.111-2.095-0.335s-1.19-0.556-1.651-0.998s-0.817-0.993-1.07-1.654
			s-0.379-1.424-0.379-2.29c0-0.807,0.121-1.538,0.362-2.194s0.592-1.219,1.053-1.688c0.442-0.451,0.99-0.8,1.644-1.046
			s1.368-0.369,2.143-0.369c0.428,0,0.814,0.023,1.159,0.072c0.344,0.047,0.662,0.11,0.954,0.188
			c0.305,0.087,0.582,0.184,0.831,0.291c0.249,0.106,0.466,0.206,0.653,0.297v2.468h-0.301c-0.127-0.108-0.288-0.238-0.482-0.388
			s-0.414-0.297-0.66-0.442c-0.25-0.145-0.522-0.268-0.813-0.367s-0.604-0.149-0.937-0.149c-0.369,0-0.72,0.058-1.053,0.174
			s-0.64,0.309-0.923,0.576c-0.269,0.26-0.486,0.604-0.653,1.03c-0.167,0.428-0.25,0.946-0.25,1.556c0,0.637,0.09,1.169,0.27,1.597
			c0.18,0.427,0.407,0.764,0.68,1.009c0.278,0.251,0.588,0.429,0.93,0.536c0.342,0.106,0.679,0.16,1.012,0.16
			c0.319,0,0.635-0.048,0.947-0.143c0.312-0.096,0.601-0.225,0.865-0.388c0.223-0.132,0.431-0.272,0.622-0.422
			s0.349-0.279,0.472-0.388h0.273v2.434c-0.255,0.114-0.499,0.221-0.731,0.321s-0.476,0.187-0.731,0.26
			c-0.333,0.096-0.645,0.169-0.937,0.219S224.649,470.198,224.139,470.198z"/>
		<path fill="#04703A" d="M239.568,464.914c0,1.622-0.465,2.911-1.395,3.865c-0.93,0.955-2.215,1.433-3.855,1.433
			c-1.636,0-2.919-0.478-3.849-1.433c-0.93-0.954-1.395-2.243-1.395-3.865c0-1.636,0.465-2.93,1.395-3.879
			c0.93-0.951,2.212-1.426,3.849-1.426c1.631,0,2.915,0.475,3.849,1.426C239.101,461.984,239.568,463.278,239.568,464.914z
			 M236.088,467.491c0.255-0.31,0.444-0.676,0.567-1.097c0.123-0.422,0.185-0.918,0.185-1.487c0-0.61-0.071-1.13-0.212-1.559
			s-0.326-0.774-0.554-1.039c-0.232-0.273-0.5-0.472-0.803-0.595s-0.619-0.185-0.947-0.185c-0.333,0-0.646,0.06-0.94,0.178
			s-0.564,0.314-0.81,0.588c-0.228,0.255-0.414,0.607-0.557,1.056c-0.144,0.449-0.215,0.97-0.215,1.563
			c0,0.606,0.069,1.122,0.208,1.549c0.139,0.426,0.322,0.773,0.55,1.042s0.495,0.467,0.8,0.595s0.626,0.191,0.964,0.191
			s0.659-0.064,0.964-0.195C235.594,467.967,235.86,467.765,236.088,467.491z"/>
		<path fill="#04703A" d="M254.757,463.034c0,0.456-0.08,0.901-0.239,1.337c-0.16,0.435-0.387,0.801-0.684,1.097
			c-0.406,0.401-0.858,0.704-1.357,0.909s-1.12,0.308-1.863,0.308h-1.634V470h-2.625v-10.179h4.32c0.647,0,1.193,0.056,1.637,0.167
			c0.444,0.112,0.837,0.279,1.179,0.503c0.41,0.269,0.724,0.613,0.94,1.032S254.757,462.446,254.757,463.034z M252.043,463.093
			c0-0.287-0.078-0.533-0.232-0.74s-0.335-0.352-0.54-0.433c-0.273-0.109-0.54-0.17-0.8-0.182c-0.26-0.011-0.606-0.017-1.039-0.017
			h-0.451v3.042h0.752c0.447,0,0.814-0.027,1.104-0.082s0.532-0.163,0.728-0.327c0.168-0.146,0.291-0.319,0.366-0.521
			S252.043,463.384,252.043,463.093z"/>
		<path fill="#04703A" d="M263.959,470h-7.342v-10.179h2.625v8.21h4.717V470z"/>
		<path fill="#04703A" d="M274.943,470h-2.711l-0.709-2.058h-3.766L267.049,470h-2.646l3.76-10.179h3.021L274.943,470z
			 M270.893,466.076l-1.252-3.646l-1.252,3.646H270.893z"/>
		<path fill="#04703A" d="M284.275,470h-8.553v-1.907l5.072-6.303h-4.826v-1.969h8.033v1.941l-5.07,6.269h5.344V470z"/>
		<path fill="#04703A" d="M295.5,470h-2.711l-0.709-2.058h-3.768L287.604,470h-2.645l3.76-10.179h3.021L295.5,470z M291.449,466.076
			l-1.253-3.646l-1.253,3.646H291.449z"/>
	</g>
</g>
<g>
	
		<rect x="98.462" y="117.152" fill="none" stroke="#008848" stroke-width="2" stroke-miterlimit="10" width="40.053" height="51.899"/>
	<line fill="none" stroke="#008848" stroke-width="2" stroke-miterlimit="10" x1="90" y1="172" x2="145.565" y2="172"/>
	<rect x="104.667" y="122.511" fill="#008848" width="8.744" height="11"/>
	<rect x="113.411" y="151.282" fill="none" stroke="#008848" stroke-miterlimit="10" width="10.718" height="17.205"/>
	<rect x="123.283" y="122.511" fill="#008848" width="8.743" height="11"/>
	<rect x="104.667" y="137.46" fill="#008848" width="8.744" height="11"/>
	<rect x="123.283" y="137.46" fill="#008848" width="8.743" height="11"/>
</g>
<rect x="96.206" y="167.641" fill="#FFFFFF" width="46.257" height="3.103"/>
<g>
	<line fill="none" stroke="#008848" stroke-width="2" stroke-miterlimit="10" x1="323.5" y1="238" x2="323.5" y2="211.509"/>
	<polygon fill="#008848" points="323.5,203.509 325.951,207.754 328.402,212 323.5,212 318.598,212 321.049,207.754 	"/>
</g>
<g>
	<line fill="none" stroke="#008848" stroke-width="2" stroke-miterlimit="10" x1="323.5" y1="366" x2="323.5" y2="339.509"/>
	<polygon fill="#008848" points="323.5,331.509 325.951,335.754 328.402,340 323.5,340 318.598,340 321.049,335.754 	"/>
</g>
<g>
	<line fill="none" stroke="#008848" stroke-width="2" stroke-miterlimit="10" x1="447.492" y1="414.539" x2="421" y2="414.539"/>
	<polygon fill="#008848" points="413,414.539 417.246,412.088 421.492,409.637 421.492,414.539 421.492,419.441 417.246,416.99 	"/>
</g>
<g>
	<line fill="none" stroke="#008848" stroke-width="2" stroke-miterlimit="10" x1="254" y1="202.902" x2="227.508" y2="202.902"/>
	<polygon fill="#008848" points="219.508,202.902 223.754,200.451 228,198 228,202.902 228,207.805 223.754,205.354 	"/>
</g>
<g>
	<g>
		<path fill="#04703A" d="M255.692,418.659c-0.756,0-1.455-0.111-2.095-0.335s-1.19-0.556-1.651-0.998s-0.817-0.993-1.07-1.654
			s-0.379-1.424-0.379-2.29c0-0.807,0.121-1.538,0.362-2.194s0.592-1.219,1.053-1.688c0.442-0.451,0.99-0.8,1.644-1.046
			s1.368-0.369,2.143-0.369c0.428,0,0.814,0.023,1.159,0.072c0.344,0.047,0.662,0.11,0.953,0.188
			c0.306,0.087,0.582,0.184,0.831,0.291c0.249,0.106,0.466,0.206,0.653,0.297v2.468h-0.301c-0.128-0.108-0.289-0.238-0.482-0.388
			s-0.414-0.297-0.66-0.442c-0.25-0.145-0.521-0.268-0.813-0.367c-0.292-0.1-0.604-0.149-0.937-0.149
			c-0.369,0-0.72,0.058-1.053,0.174s-0.64,0.309-0.923,0.576c-0.269,0.26-0.486,0.604-0.653,1.03
			c-0.167,0.428-0.25,0.946-0.25,1.556c0,0.637,0.09,1.169,0.27,1.597c0.18,0.427,0.407,0.764,0.68,1.009
			c0.278,0.251,0.588,0.429,0.93,0.536c0.342,0.106,0.679,0.16,1.012,0.16c0.319,0,0.635-0.048,0.947-0.143
			c0.313-0.096,0.601-0.225,0.865-0.388c0.223-0.132,0.43-0.272,0.621-0.422s0.35-0.279,0.473-0.388h0.273v2.434
			c-0.256,0.114-0.5,0.221-0.732,0.321s-0.476,0.187-0.73,0.26c-0.333,0.096-0.646,0.169-0.937,0.219
			S256.202,418.659,255.692,418.659z"/>
		<path fill="#04703A" d="M271.121,413.375c0,1.622-0.465,2.911-1.395,3.865c-0.93,0.955-2.215,1.433-3.855,1.433
			c-1.637,0-2.92-0.478-3.85-1.433c-0.93-0.954-1.395-2.243-1.395-3.865c0-1.636,0.465-2.93,1.395-3.879
			c0.93-0.951,2.213-1.426,3.85-1.426c1.631,0,2.914,0.475,3.848,1.426C270.653,410.445,271.121,411.739,271.121,413.375z
			 M267.641,415.952c0.256-0.31,0.445-0.676,0.568-1.097c0.123-0.422,0.184-0.918,0.184-1.487c0-0.61-0.07-1.13-0.211-1.559
			c-0.142-0.429-0.326-0.774-0.555-1.039c-0.232-0.273-0.5-0.472-0.803-0.595s-0.619-0.185-0.947-0.185
			c-0.332,0-0.646,0.06-0.939,0.178s-0.564,0.314-0.811,0.588c-0.228,0.255-0.413,0.607-0.557,1.056
			c-0.144,0.449-0.215,0.97-0.215,1.563c0,0.606,0.068,1.122,0.208,1.549c0.14,0.426,0.322,0.773,0.55,1.042
			c0.229,0.269,0.495,0.467,0.801,0.595c0.305,0.128,0.626,0.191,0.963,0.191c0.338,0,0.659-0.064,0.965-0.195
			C267.146,416.428,267.413,416.226,267.641,415.952z"/>
		<path fill="#04703A" d="M282.379,418.461h-2.529l-4.32-6.986v6.986h-2.406v-10.179h3.139l3.711,5.831v-5.831h2.406V418.461z"/>
		<path fill="#04703A" d="M293.98,417.88c-0.456,0.178-1.061,0.354-1.813,0.53c-0.752,0.175-1.501,0.263-2.248,0.263
			c-1.732,0-3.088-0.471-4.068-1.411c-0.979-0.941-1.469-2.241-1.469-3.9c0-1.581,0.494-2.856,1.482-3.824
			c0.989-0.969,2.368-1.453,4.137-1.453c0.67,0,1.308,0.061,1.914,0.182c0.605,0.12,1.28,0.36,2.023,0.721v2.386h-0.295
			c-0.127-0.096-0.314-0.231-0.561-0.407c-0.246-0.175-0.482-0.324-0.711-0.447c-0.264-0.146-0.572-0.271-0.926-0.376
			s-0.729-0.157-1.125-0.157c-0.465,0-0.886,0.068-1.264,0.205c-0.379,0.137-0.719,0.347-1.02,0.629
			c-0.287,0.273-0.514,0.621-0.68,1.043c-0.166,0.421-0.25,0.907-0.25,1.459c0,1.126,0.299,1.987,0.896,2.584
			c0.597,0.597,1.479,0.896,2.645,0.896c0.101,0,0.211-0.002,0.332-0.007s0.231-0.012,0.332-0.021v-1.996h-2.031v-1.921h4.697
			V417.88z"/>
		<path fill="#04703A" d="M310.242,418.461h-2.625v-4.484h-3.875v4.484h-2.625v-10.179h2.625v3.726h3.875v-3.726h2.625V418.461z"/>
		<path fill="#04703A" d="M322.738,413.375c0,1.622-0.465,2.911-1.395,3.865c-0.93,0.955-2.215,1.433-3.855,1.433
			c-1.636,0-2.918-0.478-3.848-1.433c-0.93-0.954-1.395-2.243-1.395-3.865c0-1.636,0.465-2.93,1.395-3.879
			c0.93-0.951,2.212-1.426,3.848-1.426c1.632,0,2.915,0.475,3.85,1.426C322.271,410.445,322.738,411.739,322.738,413.375z
			 M319.26,415.952c0.255-0.31,0.443-0.676,0.566-1.097c0.123-0.422,0.186-0.918,0.186-1.487c0-0.61-0.071-1.13-0.213-1.559
			c-0.141-0.429-0.325-0.774-0.553-1.039c-0.232-0.273-0.5-0.472-0.804-0.595s-0.618-0.185-0.946-0.185
			c-0.333,0-0.646,0.06-0.94,0.178s-0.563,0.314-0.81,0.588c-0.229,0.255-0.414,0.607-0.558,1.056
			c-0.144,0.449-0.216,0.97-0.216,1.563c0,0.606,0.07,1.122,0.209,1.549c0.139,0.426,0.322,0.773,0.551,1.042
			c0.228,0.269,0.494,0.467,0.799,0.595c0.306,0.128,0.627,0.191,0.965,0.191c0.337,0,0.658-0.064,0.963-0.195
			C318.765,416.428,319.031,416.226,319.26,415.952z"/>
		<path fill="#04703A" d="M334.148,418.461h-2.711l-0.709-2.058h-3.768l-0.709,2.058h-2.645l3.76-10.179h3.021L334.148,418.461z
			 M330.098,414.537l-1.253-3.646l-1.253,3.646H330.098z"/>
		<path fill="#04703A" d="M348.545,415.262c0,1.003-0.426,1.817-1.275,2.443c-0.85,0.627-2.004,0.94-3.463,0.94
			c-0.843,0-1.578-0.074-2.204-0.222c-0.626-0.148-1.214-0.337-1.761-0.564v-2.44h0.287c0.543,0.433,1.15,0.766,1.822,0.998
			s1.318,0.349,1.938,0.349c0.16,0,0.369-0.014,0.629-0.041s0.473-0.073,0.637-0.137c0.2-0.082,0.365-0.185,0.495-0.308
			s0.194-0.306,0.194-0.547c0-0.224-0.094-0.416-0.283-0.577c-0.189-0.162-0.466-0.286-0.83-0.373
			c-0.383-0.091-0.787-0.177-1.214-0.256c-0.427-0.08-0.826-0.182-1.2-0.305c-0.856-0.278-1.473-0.655-1.849-1.131
			c-0.376-0.477-0.563-1.068-0.563-1.774c0-0.948,0.424-1.722,1.274-2.321c0.851-0.599,1.942-0.898,3.278-0.898
			c0.67,0,1.332,0.064,1.985,0.195c0.653,0.129,1.22,0.292,1.698,0.488v2.345h-0.279c-0.41-0.328-0.913-0.603-1.508-0.823
			c-0.595-0.222-1.202-0.332-1.822-0.332c-0.219,0-0.436,0.015-0.652,0.045c-0.217,0.029-0.425,0.085-0.625,0.167
			c-0.178,0.068-0.331,0.172-0.459,0.312c-0.127,0.139-0.191,0.297-0.191,0.475c0,0.269,0.104,0.475,0.309,0.619
			c0.205,0.143,0.592,0.274,1.162,0.393c0.373,0.077,0.732,0.152,1.076,0.226s0.715,0.173,1.111,0.301
			c0.779,0.255,1.354,0.603,1.726,1.042C348.359,413.989,348.545,414.56,348.545,415.262z"/>
		<path fill="#04703A" d="M358.307,410.251h-3.18v8.21h-2.625v-8.21h-3.178v-1.969h8.982V410.251z"/>
		<path fill="#04703A" d="M369.688,418.461h-3.206l-2.769-3.732h-1.217v3.732h-2.611v-10.179h4.402c0.602,0,1.119,0.034,1.553,0.103
			c0.433,0.068,0.838,0.217,1.217,0.444c0.383,0.228,0.687,0.522,0.912,0.886c0.226,0.361,0.338,0.816,0.338,1.363
			c0,0.752-0.174,1.365-0.522,1.839s-0.847,0.868-1.493,1.183L369.688,418.461z M365.594,411.399c0-0.255-0.053-0.474-0.158-0.656
			c-0.104-0.183-0.284-0.326-0.539-0.431c-0.178-0.073-0.386-0.117-0.623-0.133c-0.236-0.017-0.512-0.024-0.826-0.024h-0.951v2.741
			h0.807c0.42,0,0.771-0.021,1.053-0.062c0.283-0.041,0.52-0.135,0.711-0.28c0.183-0.142,0.316-0.297,0.4-0.469
			C365.551,411.916,365.594,411.687,365.594,411.399z"/>
		<path fill="#04703A" d="M378.198,418.461h-7.362v-10.179h7.362v1.969h-4.751v1.757h4.409v1.969h-4.409v2.516h4.751V418.461z"/>
		<path fill="#04703A" d="M387.763,418.461H380.4v-10.179h7.362v1.969h-4.751v1.757h4.409v1.969h-4.409v2.516h4.751V418.461z"/>
		<path fill="#04703A" d="M397.927,410.251h-3.179v8.21h-2.625v-8.21h-3.179v-1.969h8.982V410.251z"/>
	</g>
</g>
<rect x="97.736" y="173" fill="#FFFFFF" width="40.264" height="30"/>
<g>
	<line fill="none" stroke="#008848" stroke-width="2" stroke-miterlimit="10" x1="117.902" y1="203" x2="117.902" y2="186"/>
	<polygon fill="#008848" points="117.902,178 120.354,182.245 122.805,186.491 117.902,186.491 113,186.491 115.451,182.245 	"/>
</g>
<line fill="none" stroke="#008848" stroke-width="2" stroke-miterlimit="10" x1="142.492" y1="202.902" x2="117" y2="202.902"/>
<line fill="none" stroke="#008848" stroke-width="2" stroke-miterlimit="10" x1="410" y1="386" x2="410" y2="0"/>
<line fill="none" stroke="#008848" stroke-width="2" stroke-miterlimit="10" x1="237" y1="224" x2="237" y2="388"/>
<line fill="none" stroke="#008848" stroke-width="2" stroke-miterlimit="10" x1="237" y1="177" x2="237" y2="0"/>
</svg>
