<?xml version="1.0" encoding="utf-8"?>
<!-- Generator: Adobe Illustrator 16.0.0, SVG Export Plug-In . SVG Version: 6.00 Build 0)  -->
<!DOCTYPE svg PUBLIC "-//W3C//DTD SVG 1.1//EN" "http://www.w3.org/Graphics/SVG/1.1/DTD/svg11.dtd">
<svg version="1.1" id="Layer_1" xmlns="http://www.w3.org/2000/svg" xmlns:xlink="http://www.w3.org/1999/xlink" x="0px" y="0px"
	 width="657px" height="425.08px" viewBox="0 0 657 425.08" enable-background="new 0 0 657 425.08" xml:space="preserve">
<line fill="none" stroke="#008848" stroke-width="2" stroke-miterlimit="10" x1="0" y1="327" x2="657" y2="327"/>
<line fill="none" stroke="#008848" stroke-width="2" stroke-miterlimit="10" x1="0" y1="423.08" x2="657" y2="423.08"/>
<rect x="356" y="178.951" fill="#FFFFFF" width="40.264" height="46"/>
<line fill="none" stroke="#008848" stroke-width="2" stroke-miterlimit="10" x1="363" y1="225" x2="0" y2="225"/>
<line fill="none" stroke="#008848" stroke-width="2" stroke-miterlimit="10" x1="364" y1="177" x2="0" y2="177"/>
<rect x="173.514" y="312" fill="#008848" width="20" height="9"/>
<rect x="543" y="133" fill="#008848" width="9" height="20"/>
<g>
	
		<rect x="162.435" y="114.152" fill="none" stroke="#ED1C24" stroke-width="2" stroke-miterlimit="10" width="40.053" height="51.899"/>
	<line fill="none" stroke="#ED1C24" stroke-width="2" stroke-miterlimit="10" x1="153.973" y1="169" x2="209.538" y2="169"/>
	<line fill="none" stroke="#ED1C24" stroke-width="3" stroke-miterlimit="10" x1="161.538" y1="109" x2="203.538" y2="109"/>
	<rect x="168.64" y="119.511" fill="#ED1C24" width="8.744" height="11"/>
	<rect x="176.384" y="148.282" fill="none" stroke="#ED1C24" stroke-miterlimit="10" width="10.718" height="17.205"/>
	<rect x="187.256" y="119.511" fill="#ED1C24" width="8.743" height="11"/>
	<rect x="168.64" y="134.46" fill="#ED1C24" width="8.744" height="11"/>
	<rect x="187.256" y="134.46" fill="#ED1C24" width="8.743" height="11"/>
</g>
<rect x="222.206" y="167.641" fill="#FFFFFF" width="46.257" height="3.103"/>
<line fill="none" stroke="#008848" stroke-width="2" stroke-miterlimit="10" x1="536" y1="326" x2="536" y2="0"/>
<line fill="none" stroke="#008848" stroke-width="2" stroke-miterlimit="10" x1="363" y1="177" x2="363" y2="0"/>
<rect x="162.087" y="174" fill="#FFFFFF" width="40.264" height="13"/>
<line fill="none" stroke="#008848" stroke-width="2" stroke-miterlimit="10" x1="363" y1="224" x2="363" y2="328"/>
<g>
	<g>
		
			<rect x="388.18" y="265.434" fill="none" stroke="#008848" stroke-width="3" stroke-miterlimit="10" width="122.027" height="52.077"/>
		<rect x="506.775" y="292" fill="#008848" width="6.225" height="25.815"/>
		<rect x="385" y="292" fill="#008848" width="6.225" height="25.815"/>
		
			<rect x="376.102" y="241" fill="none" stroke="#008848" stroke-width="3" stroke-miterlimit="10" width="147.066" height="24.257"/>
		<g>
			<path fill="#04703A" d="M390.607,256.514c-0.621,0-1.195-0.093-1.722-0.275c-0.526-0.184-0.979-0.457-1.356-0.82
				c-0.377-0.361-0.67-0.814-0.879-1.357c-0.207-0.543-0.312-1.17-0.312-1.881c0-0.664,0.101-1.265,0.297-1.804
				c0.199-0.539,0.486-1.001,0.865-1.387c0.362-0.371,0.813-0.657,1.351-0.859s1.125-0.304,1.762-0.304
				c0.352,0,0.668,0.021,0.951,0.061c0.283,0.038,0.543,0.09,0.783,0.153c0.252,0.071,0.479,0.149,0.682,0.237
				c0.205,0.089,0.383,0.171,0.537,0.244v2.027h-0.246c-0.105-0.089-0.238-0.195-0.396-0.318c-0.16-0.123-0.34-0.244-0.543-0.362
				c-0.205-0.119-0.428-0.22-0.668-0.302c-0.238-0.082-0.496-0.123-0.77-0.123c-0.303,0-0.59,0.048-0.863,0.144
				c-0.273,0.095-0.527,0.253-0.758,0.474c-0.223,0.213-0.4,0.496-0.537,0.847c-0.137,0.352-0.205,0.776-0.205,1.276
				c0,0.523,0.074,0.961,0.223,1.313c0.146,0.352,0.334,0.628,0.559,0.829c0.229,0.206,0.482,0.353,0.765,0.44
				c0.278,0.088,0.558,0.131,0.83,0.131c0.262,0,0.521-0.039,0.776-0.117c0.259-0.077,0.494-0.184,0.711-0.318
				c0.185-0.107,0.354-0.223,0.513-0.346c0.155-0.123,0.285-0.229,0.387-0.318h0.226v1.999c-0.209,0.095-0.41,0.183-0.603,0.265
				c-0.188,0.082-0.391,0.152-0.6,0.213c-0.273,0.078-0.529,0.139-0.771,0.181C391.355,256.492,391.027,256.514,390.607,256.514z"/>
			<path fill="#04703A" d="M403.281,252.172c0,1.333-0.381,2.393-1.146,3.176c-0.764,0.784-1.819,1.176-3.168,1.176
				c-1.344,0-2.397-0.392-3.161-1.176c-0.765-0.783-1.146-1.843-1.146-3.176c0-1.344,0.381-2.406,1.146-3.188
				c0.764-0.78,1.817-1.17,3.161-1.17c1.34,0,2.396,0.391,3.162,1.17C402.897,249.766,403.281,250.828,403.281,252.172z
				 M400.424,254.289c0.209-0.255,0.365-0.557,0.465-0.9c0.103-0.348,0.152-0.755,0.152-1.223c0-0.501-0.059-0.928-0.174-1.279
				c-0.117-0.353-0.269-0.637-0.455-0.854c-0.191-0.226-0.41-0.388-0.66-0.488c-0.248-0.103-0.508-0.151-0.777-0.151
				c-0.272,0-0.53,0.049-0.771,0.146c-0.242,0.098-0.465,0.259-0.666,0.482c-0.188,0.209-0.34,0.5-0.457,0.867
				c-0.119,0.369-0.178,0.797-0.178,1.283c0,0.498,0.057,0.922,0.172,1.271c0.113,0.351,0.264,0.636,0.451,0.855
				c0.187,0.221,0.405,0.385,0.657,0.488c0.25,0.105,0.515,0.156,0.791,0.156c0.277,0,0.541-0.053,0.791-0.158
				C400.018,254.68,400.236,254.514,400.424,254.289z"/>
			<path fill="#04703A" d="M412.529,256.35h-2.078l-3.549-5.738v5.738h-1.978v-8.36h2.578l3.049,4.79v-4.79h1.978V256.35z"/>
			<path fill="#04703A" d="M422.059,255.872c-0.375,0.146-0.871,0.291-1.487,0.437c-0.617,0.144-1.234,0.215-1.849,0.215
				c-1.422,0-2.535-0.387-3.34-1.158c-0.807-0.773-1.209-1.842-1.209-3.204c0-1.3,0.406-2.347,1.219-3.142
				c0.813-0.795,1.945-1.193,3.398-1.193c0.549,0,1.074,0.05,1.572,0.148c0.498,0.1,1.051,0.297,1.662,0.592v1.961h-0.242
				c-0.105-0.078-0.258-0.189-0.461-0.334c-0.201-0.145-0.396-0.268-0.584-0.368c-0.218-0.119-0.472-0.224-0.761-0.31
				c-0.291-0.086-0.598-0.129-0.924-0.129c-0.383,0-0.729,0.057-1.039,0.168c-0.31,0.112-0.59,0.285-0.836,0.518
				c-0.235,0.225-0.424,0.511-0.561,0.855c-0.138,0.348-0.203,0.746-0.203,1.199c0,0.926,0.244,1.632,0.733,2.122
				c0.49,0.491,1.216,0.735,2.175,0.735c0.082,0,0.172-0.002,0.271-0.006c0.1-0.004,0.189-0.01,0.273-0.017v-1.64h-1.668v-1.578
				h3.856v4.128H422.059z"/>
			<path fill="#04703A" d="M435.418,256.35h-2.156v-3.684h-3.184v3.684h-2.156v-8.36h2.156v3.061h3.184v-3.061h2.156V256.35z"/>
			<path fill="#04703A" d="M445.682,252.172c0,1.333-0.381,2.393-1.145,3.176c-0.764,0.784-1.82,1.176-3.168,1.176
				c-1.344,0-2.398-0.392-3.162-1.176c-0.764-0.783-1.145-1.843-1.145-3.176c0-1.344,0.381-2.406,1.145-3.188
				c0.764-0.78,1.818-1.17,3.162-1.17c1.34,0,2.395,0.391,3.162,1.17C445.298,249.766,445.682,250.828,445.682,252.172z
				 M442.824,254.289c0.209-0.255,0.365-0.557,0.465-0.9c0.102-0.348,0.152-0.755,0.152-1.223c0-0.501-0.06-0.928-0.175-1.279
				c-0.116-0.353-0.268-0.637-0.454-0.854c-0.191-0.226-0.41-0.388-0.66-0.488c-0.248-0.103-0.509-0.151-0.777-0.151
				c-0.273,0-0.531,0.049-0.771,0.146c-0.241,0.098-0.465,0.259-0.665,0.482c-0.188,0.209-0.341,0.5-0.457,0.867
				c-0.119,0.369-0.179,0.797-0.179,1.283c0,0.498,0.058,0.922,0.172,1.271c0.113,0.351,0.265,0.636,0.451,0.855
				c0.188,0.221,0.406,0.385,0.658,0.488c0.25,0.105,0.514,0.156,0.791,0.156s0.541-0.053,0.791-0.158
				C442.418,254.68,442.637,254.514,442.824,254.289z"/>
			<path fill="#04703A" d="M455.055,256.35h-2.229l-0.582-1.689h-3.094l-0.582,1.689h-2.175l3.091-8.36h2.479L455.055,256.35z
				 M451.727,253.126l-1.028-2.995l-1.029,2.995H451.727z"/>
			<path fill="#04703A" d="M467.58,255.872c-0.373,0.146-0.869,0.291-1.486,0.437c-0.619,0.144-1.233,0.215-1.848,0.215
				c-1.424,0-2.537-0.387-3.342-1.158c-0.806-0.773-1.207-1.842-1.207-3.204c0-1.3,0.405-2.347,1.219-3.142
				c0.813-0.795,1.943-1.193,3.396-1.193c0.552,0,1.074,0.05,1.572,0.148c0.498,0.1,1.053,0.297,1.662,0.592v1.961h-0.24
				c-0.104-0.078-0.26-0.189-0.461-0.334c-0.203-0.145-0.396-0.268-0.584-0.368c-0.217-0.119-0.471-0.224-0.762-0.31
				c-0.289-0.086-0.598-0.129-0.924-0.129c-0.381,0-0.729,0.057-1.039,0.168c-0.311,0.112-0.588,0.285-0.836,0.518
				c-0.236,0.225-0.422,0.511-0.56,0.855c-0.137,0.348-0.205,0.746-0.205,1.199c0,0.926,0.246,1.632,0.736,2.122
				c0.49,0.491,1.215,0.735,2.172,0.735c0.082,0,0.174-0.002,0.273-0.006c0.098-0.004,0.188-0.01,0.271-0.017v-1.64h-1.668v-1.578
				h3.857v4.128H467.58z"/>
			<path fill="#04703A" d="M477.24,256.35h-2.229l-0.582-1.689h-3.094l-0.582,1.689h-2.174l3.09-8.36h2.48L477.24,256.35z
				 M473.912,253.126l-1.029-2.995l-1.029,2.995H473.912z"/>
			<path fill="#04703A" d="M486.494,256.35h-2.635l-2.273-3.065h-1v3.065h-2.145v-8.36h3.616c0.494,0,0.918,0.028,1.273,0.084
				c0.354,0.057,0.688,0.179,1,0.364c0.313,0.188,0.563,0.431,0.75,0.729c0.186,0.298,0.277,0.671,0.277,1.12
				c0,0.616-0.144,1.121-0.431,1.511c-0.287,0.389-0.694,0.713-1.227,0.971L486.494,256.35z M483.131,250.549
				c0-0.209-0.043-0.389-0.129-0.539c-0.088-0.148-0.234-0.268-0.445-0.354c-0.145-0.061-0.315-0.098-0.51-0.109
				c-0.195-0.014-0.422-0.02-0.68-0.02h-0.781v2.25h0.664c0.344,0,0.631-0.016,0.863-0.049c0.231-0.035,0.428-0.11,0.584-0.23
				c0.149-0.116,0.26-0.244,0.328-0.385C483.096,250.973,483.131,250.785,483.131,250.549z"/>
			<path fill="#04703A" d="M495.338,252.178c0,0.778-0.178,1.477-0.533,2.092c-0.356,0.615-0.807,1.088-1.348,1.418
				c-0.408,0.246-0.855,0.42-1.344,0.517c-0.486,0.098-1.063,0.146-1.729,0.146h-2.946v-8.36h3.03c0.683,0,1.271,0.058,1.765,0.172
				s0.909,0.274,1.246,0.485c0.575,0.352,1.03,0.826,1.36,1.424C495.172,250.666,495.338,251.369,495.338,252.178z M493.107,252.16
				c0-0.551-0.101-1.021-0.302-1.412c-0.198-0.391-0.518-0.697-0.95-0.918c-0.222-0.107-0.445-0.184-0.677-0.223
				c-0.23-0.039-0.578-0.059-1.043-0.059h-0.543v5.233h0.543c0.515,0,0.892-0.023,1.129-0.07c0.24-0.047,0.476-0.132,0.703-0.256
				c0.394-0.226,0.681-0.524,0.863-0.901C493.016,253.18,493.107,252.715,493.107,252.16z"/>
			<path fill="#04703A" d="M503.029,256.35h-6.047v-8.36h6.047v1.616h-3.902v1.443h3.623v1.617h-3.623v2.066h3.902V256.35z"/>
			<path fill="#04703A" d="M512.441,256.35h-2.076l-3.549-5.738v5.738h-1.978v-8.36h2.576l3.049,4.79v-4.79h1.978V256.35z"/>
		</g>
	</g>
	<rect x="368" y="315" fill="#FFFFFF" width="166.264" height="35"/>
</g>
<rect x="364" y="322" fill="#FFFFFF" width="6" height="11"/>
<rect x="529" y="322" fill="#FFFFFF" width="6" height="11"/>
<g>
	<polygon fill="#ED1C24" points="449.049,291 451.5,295.246 453.951,299.492 449.049,299.492 444.146,299.492 446.598,295.246 	"/>
	<g>
		<rect x="448.049" y="302" fill="#ED1C24" width="2" height="7"/>
		<rect x="448.049" y="312" fill="#ED1C24" width="2" height="7"/>
		<rect x="448.049" y="322" fill="#ED1C24" width="2" height="7"/>
	</g>
</g>
<g>
	<g>
		<polygon fill="#ED1C24" points="568,372.908 572.246,370.457 576.492,368.006 576.492,372.908 576.492,377.811 572.246,375.359 		
			"/>
	</g>
	<g>
		<rect x="579" y="371.619" fill="#ED1C24" width="7" height="2"/>
		<rect x="589" y="371.619" fill="#ED1C24" width="7" height="2"/>
		<rect x="599" y="371.619" fill="#ED1C24" width="7" height="2"/>
	</g>
</g>
<g>
	<polygon fill="#ED1C24" points="845,203.2 849.246,200.749 853.492,198.298 853.492,203.2 853.492,208.103 849.246,205.651 	"/>
	<rect x="856" y="202.2" fill="#ED1C24" width="7" height="2"/>
	<rect x="866" y="202.2" fill="#ED1C24" width="7" height="2"/>
	<rect x="876" y="202.2" fill="#ED1C24" width="7" height="2"/>
</g>
<g>
	<polygon fill="#ED1C24" points="182.253,179 184.704,183.245 187.155,187.491 182.253,187.491 177.351,187.491 179.802,183.245 	
		"/>
	<g>
		<g>
			<rect x="181" y="202" fill="#ED1C24" width="5" height="2"/>
			<rect x="189" y="202" fill="#ED1C24" width="7" height="2"/>
			<rect x="199" y="202" fill="#ED1C24" width="7" height="2"/>
		</g>
		<g>
			<rect x="181" y="189" fill="#ED1C24" width="2" height="7"/>
			<rect x="181" y="199" fill="#ED1C24" width="2" height="5"/>
		</g>
	</g>
</g>
<g>
	<polygon fill="#ED1C24" points="413.87,203.2 418.116,200.749 422.362,198.298 422.362,203.2 422.362,208.103 418.116,205.651 	"/>
	<g>
		<g>
			<rect x="445.006" y="202" fill="#ED1C24" width="5" height="2"/>
			<rect x="435.006" y="202" fill="#ED1C24" width="7" height="2"/>
			<rect x="425.006" y="202" fill="#ED1C24" width="7" height="2"/>
		</g>
		<g>
			<rect x="448.006" y="210" fill="#ED1C24" width="2" height="7"/>
			<rect x="448.006" y="220.5" fill="#ED1C24" width="2" height="7"/>
			<rect x="448.006" y="202" fill="#ED1C24" width="2" height="5"/>
		</g>
	</g>
</g>
<g>
	<g>
		<path fill="#01703A" d="M583.449,102.256c-0.685,0-1.353-0.12-2.005-0.359c-0.653-0.239-1.202-0.581-1.646-1.025
			c-0.603-0.608-1.057-1.287-1.364-2.035c-0.308-0.749-0.462-1.68-0.462-2.794v-2.451H573v-3.938h15.268v6.48
			c0,0.971-0.083,1.789-0.251,2.456c-0.167,0.666-0.419,1.256-0.753,1.769c-0.404,0.615-0.92,1.085-1.549,1.41
			C585.086,102.093,584.33,102.256,583.449,102.256z M583.361,98.185c0.43,0,0.8-0.116,1.109-0.349
			c0.311-0.232,0.527-0.502,0.65-0.81c0.163-0.41,0.254-0.81,0.271-1.2c0.018-0.39,0.026-0.909,0.026-1.559v-0.677h-4.563v1.128
			c0,0.67,0.041,1.222,0.123,1.656c0.082,0.434,0.245,0.798,0.491,1.092c0.218,0.253,0.479,0.436,0.782,0.549
			C582.555,98.128,582.925,98.185,583.361,98.185z"/>
		<path fill="#01703A" d="M573,119.154v-4.066l3.086-1.063v-5.65L573,107.311v-3.968l15.268,5.64v4.532L573,119.154z
			 M578.886,113.078l5.47-1.878l-5.47-1.879V113.078z"/>
		<path fill="#01703A" d="M573,136.053v-4.809l5.599-4.154v-1.824H573v-3.917h15.268v6.604c0,0.902-0.051,1.678-0.153,2.328
			s-0.325,1.258-0.667,1.825c-0.342,0.574-0.784,1.03-1.327,1.369c-0.544,0.338-1.226,0.507-2.046,0.507
			c-1.128,0-2.048-0.261-2.758-0.785c-0.712-0.522-1.303-1.27-1.774-2.24L573,136.053z M583.592,129.911
			c0.383,0,0.711-0.079,0.984-0.236s0.489-0.427,0.646-0.81c0.109-0.267,0.176-0.578,0.2-0.933c0.023-0.355,0.036-0.769,0.036-1.241
			v-1.425h-4.112v1.21c0,0.629,0.03,1.155,0.093,1.579c0.061,0.424,0.201,0.779,0.42,1.066c0.212,0.273,0.446,0.473,0.702,0.6
			C582.818,129.847,583.162,129.911,583.592,129.911z"/>
		<path fill="#01703A" d="M573,152.028v-4.838l6.11-4.563l-1.128-0.914H573v-3.938h15.268v3.938h-6.917l6.917,5.454v4.564
			l-7.064-5.968L573,152.028z"/>
		<path fill="#01703A" d="M573,162.221v-8.941h2.707v2.502h9.854v-2.502h2.707v8.941h-2.707v-2.502h-9.854v2.502H573z"/>
		<path fill="#01703A" d="M573,179.314v-3.794l10.479-6.48H573v-3.609h15.268v4.707l-8.746,5.568h8.746v3.609H573z"/>
		<path fill="#01703A" d="M573.871,196.715c-0.266-0.684-0.531-1.589-0.794-2.717c-0.264-1.128-0.396-2.252-0.396-3.374
			c0-2.598,0.706-4.631,2.118-6.101c1.411-1.47,3.361-2.205,5.85-2.205c2.372,0,4.284,0.742,5.737,2.225
			c1.452,1.483,2.179,3.551,2.179,6.204c0,1.005-0.091,1.962-0.271,2.871c-0.182,0.909-0.542,1.921-1.082,3.035h-3.579v-0.441
			c0.145-0.191,0.348-0.472,0.61-0.841c0.264-0.369,0.487-0.725,0.672-1.066c0.219-0.396,0.406-0.86,0.563-1.39
			s0.236-1.092,0.236-1.687c0-0.697-0.103-1.33-0.308-1.897s-0.52-1.077-0.943-1.528c-0.41-0.431-0.932-0.771-1.563-1.021
			c-0.633-0.25-1.362-0.374-2.189-0.374c-1.688,0-2.98,0.448-3.876,1.343s-1.343,2.218-1.343,3.968c0,0.15,0.003,0.316,0.01,0.497
			s0.017,0.347,0.031,0.498h2.994v-3.045h2.881v7.044H573.871z"/>
	</g>
</g>
<g>
	<g>
		<path fill="#ED1C24" d="M132.709,254.686h-7.024v2.84h6.511v2.953h-6.511V267h-3.917v-15.268h10.941V254.686z"/>
		<path fill="#ED1C24" d="M146.47,267h-11.043v-15.268h11.043v2.953h-7.126v2.635h6.614v2.953h-6.614v3.773h7.126V267z"/>
		<path fill="#01703A" d="M163.851,267.297c-1.135,0-2.183-0.167-3.143-0.502c-0.961-0.335-1.786-0.834-2.477-1.497
			s-1.226-1.49-1.604-2.481c-0.38-0.991-0.569-2.136-0.569-3.436c0-1.209,0.181-2.307,0.543-3.291s0.889-1.828,1.579-2.533
			c0.663-0.676,1.485-1.199,2.466-1.568c0.98-0.369,2.052-0.554,3.214-0.554c0.643,0,1.222,0.036,1.738,0.107
			c0.516,0.072,0.993,0.166,1.431,0.282c0.458,0.13,0.873,0.275,1.246,0.436c0.372,0.161,0.699,0.31,0.979,0.446v3.702h-0.451
			c-0.191-0.164-0.433-0.357-0.723-0.582s-0.62-0.445-0.989-0.663c-0.376-0.218-0.783-0.401-1.22-0.551s-0.906-0.225-1.405-0.225
			c-0.554,0-1.08,0.087-1.579,0.261s-0.96,0.463-1.384,0.865c-0.403,0.389-0.73,0.903-0.979,1.545
			c-0.25,0.641-0.375,1.419-0.375,2.333c0,0.955,0.135,1.753,0.405,2.395s0.61,1.146,1.021,1.515
			c0.417,0.375,0.882,0.643,1.395,0.803s1.019,0.24,1.518,0.24c0.479,0,0.952-0.071,1.42-0.214s0.901-0.337,1.297-0.581
			c0.335-0.197,0.646-0.408,0.933-0.633s0.523-0.418,0.708-0.582h0.41v3.65c-0.383,0.172-0.749,0.332-1.097,0.482
			s-0.714,0.28-1.097,0.39c-0.499,0.144-0.967,0.253-1.405,0.328S164.616,267.297,163.851,267.297z"/>
		<path fill="#01703A" d="M186.85,267h-4.809l-4.154-5.599h-1.824V267h-3.917v-15.268h6.604c0.902,0,1.678,0.051,2.328,0.153
			s1.258,0.325,1.825,0.667c0.574,0.342,1.03,0.784,1.369,1.327c0.338,0.544,0.507,1.226,0.507,2.046
			c0,1.128-0.261,2.048-0.785,2.758c-0.522,0.712-1.27,1.303-2.24,1.774L186.85,267z M180.708,256.408
			c0-0.383-0.079-0.711-0.236-0.984s-0.427-0.489-0.81-0.646c-0.267-0.109-0.578-0.176-0.933-0.2
			c-0.355-0.023-0.769-0.036-1.241-0.036h-1.425v4.112h1.21c0.629,0,1.155-0.03,1.579-0.093c0.424-0.061,0.779-0.201,1.066-0.42
			c0.273-0.212,0.473-0.446,0.6-0.702C180.645,257.182,180.708,256.838,180.708,256.408z"/>
		<path fill="#01703A" d="M199.616,267h-11.043v-15.268h11.043v2.953h-7.126v2.635h6.614v2.953h-6.614v3.773h7.126V267z"/>
		<path fill="#01703A" d="M217.345,259.381c0,1.423-0.325,2.695-0.974,3.82c-0.649,1.124-1.47,1.987-2.461,2.589
			c-0.745,0.451-1.562,0.766-2.451,0.943S209.518,267,208.301,267h-5.383v-15.268h5.537c1.244,0,2.317,0.104,3.22,0.313
			c0.902,0.208,1.661,0.504,2.276,0.887c1.053,0.643,1.882,1.509,2.486,2.6C217.043,256.621,217.345,257.904,217.345,259.381z
			 M213.274,259.351c0-1.005-0.183-1.864-0.549-2.579c-0.366-0.714-0.945-1.272-1.738-1.676c-0.403-0.198-0.815-0.334-1.236-0.405
			c-0.42-0.072-1.054-0.108-1.902-0.108h-0.995v9.557h0.995c0.937,0,1.624-0.042,2.061-0.128c0.438-0.085,0.865-0.241,1.282-0.466
			c0.718-0.41,1.244-0.959,1.579-1.646C213.107,261.212,213.274,260.362,213.274,259.351z"/>
		<path fill="#01703A" d="M228.604,267h-8.941v-2.707h2.502v-9.854h-2.502v-2.707h8.941v2.707h-2.502v9.854h2.502V267z"/>
		<path fill="#01703A" d="M243.759,254.686h-4.768V267h-3.938v-12.314h-4.768v-2.953h13.474V254.686z"/>
		<path fill="#01703A" d="M105.547,293H95.354v-2.666h3.22v-8.07h-3.22v-2.491c0.492,0,0.964-0.029,1.415-0.087
			c0.451-0.059,0.827-0.159,1.128-0.303c0.355-0.171,0.622-0.393,0.8-0.666s0.28-0.615,0.308-1.025h3.394v12.643h3.148V293z"/>
		<path fill="#01703A" d="M121.656,289.482h-2.082v3.559h-3.763v-3.559h-7.393v-2.891l7.147-8.859h4.009v8.961h2.082V289.482z
			 M115.811,286.693v-5.526l-4.446,5.526H115.811z"/>
		<path fill="#01703A" d="M136.585,289.482h-2.082v3.559h-3.763v-3.559h-7.393v-2.891l7.147-8.859h4.009v8.961h2.082V289.482z
			 M130.741,286.693v-5.526l-4.446,5.526H130.741z"/>
		<path fill="#01703A" d="M153.443,293.297c-1.135,0-2.183-0.167-3.143-0.502s-1.786-0.834-2.476-1.497s-1.225-1.49-1.605-2.481
			c-0.379-0.991-0.569-2.136-0.569-3.436c0-1.209,0.181-2.307,0.543-3.291s0.889-1.828,1.579-2.533
			c0.663-0.676,1.485-1.199,2.466-1.568s2.053-0.554,3.215-0.554c0.643,0,1.222,0.036,1.738,0.107
			c0.516,0.072,0.993,0.166,1.43,0.282c0.458,0.13,0.873,0.275,1.246,0.436c0.373,0.161,0.699,0.31,0.979,0.446v3.702h-0.451
			c-0.191-0.164-0.433-0.357-0.723-0.582c-0.291-0.225-0.621-0.445-0.99-0.663c-0.376-0.218-0.783-0.401-1.22-0.551
			s-0.906-0.225-1.405-0.225c-0.554,0-1.08,0.087-1.579,0.261s-0.96,0.463-1.384,0.865c-0.403,0.389-0.73,0.903-0.979,1.545
			c-0.25,0.641-0.374,1.419-0.374,2.333c0,0.955,0.135,1.753,0.405,2.395c0.27,0.642,0.61,1.146,1.02,1.515
			c0.417,0.375,0.882,0.643,1.395,0.803s1.019,0.24,1.518,0.24c0.479,0,0.952-0.071,1.42-0.214c0.468-0.143,0.9-0.337,1.297-0.581
			c0.335-0.197,0.646-0.408,0.933-0.633s0.523-0.418,0.708-0.582h0.41v3.65c-0.383,0.172-0.749,0.332-1.097,0.482
			s-0.714,0.28-1.097,0.39c-0.499,0.144-0.967,0.253-1.405,0.328S154.208,293.297,153.443,293.297z"/>
		<path fill="#01703A" d="M176.586,285.371c0,2.434-0.697,4.366-2.092,5.799c-1.395,1.432-3.322,2.148-5.783,2.148
			c-2.454,0-4.378-0.717-5.773-2.148c-1.395-1.433-2.092-3.365-2.092-5.799c0-2.454,0.697-4.394,2.092-5.819
			c1.395-1.425,3.319-2.138,5.773-2.138c2.447,0,4.372,0.713,5.773,2.138C175.885,280.978,176.586,282.917,176.586,285.371z
			 M171.367,289.236c0.383-0.464,0.667-1.013,0.851-1.646c0.185-0.632,0.277-1.375,0.277-2.229c0-0.916-0.106-1.695-0.318-2.338
			s-0.489-1.162-0.831-1.559c-0.349-0.41-0.75-0.708-1.205-0.893c-0.455-0.185-0.928-0.277-1.42-0.277
			c-0.499,0-0.969,0.09-1.41,0.268c-0.441,0.178-0.846,0.471-1.215,0.881c-0.342,0.384-0.621,0.911-0.835,1.585
			c-0.216,0.673-0.323,1.454-0.323,2.343c0,0.909,0.104,1.684,0.313,2.322c0.208,0.64,0.484,1.161,0.826,1.564s0.742,0.7,1.2,0.892
			s0.94,0.287,1.446,0.287s0.988-0.098,1.446-0.292C170.625,289.949,171.025,289.646,171.367,289.236z"/>
		<path fill="#01703A" d="M193.474,293h-3.794l-6.48-10.479V293h-3.609v-15.268h4.707l5.568,8.746v-8.746h3.609V293z"/>
		<path fill="#01703A" d="M210.875,292.129c-0.684,0.266-1.589,0.531-2.717,0.794c-1.128,0.264-2.252,0.396-3.374,0.396
			c-2.598,0-4.631-0.706-6.101-2.118c-1.47-1.411-2.205-3.361-2.205-5.85c0-2.372,0.742-4.284,2.225-5.737
			c1.483-1.452,3.551-2.179,6.204-2.179c1.005,0,1.962,0.091,2.871,0.271c0.909,0.182,1.921,0.542,3.035,1.082v3.579h-0.441
			c-0.191-0.145-0.472-0.348-0.841-0.61c-0.369-0.264-0.725-0.487-1.066-0.672c-0.396-0.219-0.86-0.406-1.389-0.563
			c-0.53-0.157-1.092-0.236-1.687-0.236c-0.697,0-1.33,0.103-1.897,0.308s-1.077,0.52-1.528,0.943
			c-0.431,0.41-0.771,0.932-1.02,1.563c-0.25,0.633-0.375,1.362-0.375,2.189c0,1.688,0.448,2.98,1.343,3.876
			s2.218,1.343,3.968,1.343c0.15,0,0.316-0.003,0.498-0.01c0.181-0.007,0.347-0.017,0.497-0.031v-2.994h-3.045v-2.881h7.044V292.129
			z"/>
		<path fill="#01703A" d="M235.269,293h-3.938v-6.727h-5.814V293h-3.938v-15.268h3.938v5.588h5.814v-5.588h3.938V293z"/>
		<path fill="#01703A" d="M254.013,285.371c0,2.434-0.697,4.366-2.092,5.799c-1.395,1.432-3.322,2.148-5.783,2.148
			c-2.454,0-4.378-0.717-5.773-2.148c-1.395-1.433-2.092-3.365-2.092-5.799c0-2.454,0.697-4.394,2.092-5.819
			c1.395-1.425,3.319-2.138,5.773-2.138c2.447,0,4.372,0.713,5.773,2.138C253.313,280.978,254.013,282.917,254.013,285.371z
			 M248.794,289.236c0.383-0.464,0.667-1.013,0.851-1.646c0.185-0.632,0.277-1.375,0.277-2.229c0-0.916-0.106-1.695-0.318-2.338
			s-0.489-1.162-0.831-1.559c-0.349-0.41-0.75-0.708-1.205-0.893s-0.928-0.277-1.42-0.277c-0.499,0-0.969,0.09-1.41,0.268
			c-0.44,0.178-0.846,0.471-1.215,0.881c-0.342,0.384-0.62,0.911-0.836,1.585c-0.215,0.673-0.323,1.454-0.323,2.343
			c0,0.909,0.104,1.684,0.313,2.322c0.208,0.64,0.483,1.161,0.825,1.564s0.742,0.7,1.2,0.892s0.94,0.287,1.446,0.287
			s0.988-0.098,1.446-0.292C248.052,289.949,248.452,289.646,248.794,289.236z"/>
		<path fill="#01703A" d="M271.127,293h-4.066l-1.063-3.086h-5.65L259.283,293h-3.968l5.64-15.268h4.532L271.127,293z
			 M265.051,287.114l-1.878-5.47l-1.879,5.47H265.051z"/>
	</g>
</g>
<g>
	<path fill="#ED1C24" d="M132.209,24.097h-7.024v2.84h6.511v2.953h-6.511v6.521h-3.917V21.144h10.941V24.097z"/>
	<path fill="#ED1C24" d="M145.97,36.412h-11.043V21.144h11.043v2.953h-7.126v2.635h6.614v2.953h-6.614v3.773h7.126V36.412z"/>
	<path fill="#01703A" d="M163.351,36.709c-1.135,0-2.183-0.167-3.143-0.502c-0.961-0.335-1.786-0.834-2.477-1.497
		s-1.226-1.49-1.604-2.481c-0.38-0.991-0.569-2.136-0.569-3.435c0-1.21,0.181-2.307,0.543-3.292s0.889-1.829,1.579-2.533
		c0.663-0.677,1.485-1.2,2.466-1.569c0.98-0.369,2.052-0.554,3.214-0.554c0.643,0,1.222,0.036,1.738,0.107
		c0.516,0.072,0.993,0.166,1.431,0.282c0.458,0.13,0.873,0.275,1.246,0.436c0.372,0.161,0.699,0.31,0.979,0.446v3.702h-0.451
		c-0.191-0.163-0.433-0.357-0.723-0.582c-0.291-0.224-0.62-0.445-0.989-0.663c-0.376-0.218-0.783-0.401-1.22-0.551
		c-0.438-0.15-0.906-0.225-1.405-0.225c-0.554,0-1.08,0.087-1.579,0.261c-0.499,0.174-0.96,0.462-1.384,0.864
		c-0.403,0.389-0.73,0.904-0.979,1.545c-0.25,0.641-0.375,1.419-0.375,2.333c0,0.955,0.135,1.753,0.405,2.395
		s0.61,1.146,1.021,1.514c0.417,0.375,0.882,0.643,1.395,0.803c0.513,0.161,1.019,0.241,1.518,0.241c0.479,0,0.952-0.071,1.42-0.214
		c0.468-0.143,0.901-0.336,1.297-0.582c0.335-0.197,0.646-0.408,0.933-0.632s0.523-0.418,0.708-0.582h0.41v3.65
		c-0.383,0.171-0.749,0.332-1.097,0.482s-0.714,0.28-1.097,0.39c-0.499,0.144-0.967,0.253-1.405,0.328
		S164.116,36.709,163.351,36.709z"/>
	<path fill="#01703A" d="M186.35,36.412h-4.809l-4.154-5.599h-1.824v5.599h-3.917V21.144h6.604c0.902,0,1.678,0.051,2.328,0.154
		s1.258,0.325,1.825,0.667c0.574,0.342,1.03,0.785,1.369,1.328c0.338,0.544,0.507,1.226,0.507,2.046
		c0,1.128-0.261,2.047-0.785,2.758c-0.522,0.711-1.27,1.302-2.24,1.774L186.35,36.412z M180.208,25.82
		c0-0.383-0.079-0.711-0.236-0.984s-0.427-0.489-0.81-0.646c-0.267-0.109-0.578-0.176-0.933-0.2
		c-0.355-0.023-0.769-0.036-1.241-0.036h-1.425v4.112h1.21c0.629,0,1.155-0.031,1.579-0.092s0.779-0.202,1.066-0.42
		c0.273-0.212,0.473-0.446,0.6-0.702C180.145,26.594,180.208,26.25,180.208,25.82z"/>
	<path fill="#01703A" d="M199.116,36.412h-11.043V21.144h11.043v2.953h-7.126v2.635h6.614v2.953h-6.614v3.773h7.126V36.412z"/>
	<path fill="#01703A" d="M216.845,28.793c0,1.422-0.325,2.695-0.974,3.82s-1.47,1.987-2.461,2.589
		c-0.745,0.451-1.562,0.766-2.451,0.943s-1.941,0.267-3.158,0.267h-5.383V21.144h5.537c1.244,0,2.317,0.104,3.22,0.313
		s1.661,0.504,2.276,0.887c1.053,0.643,1.882,1.509,2.486,2.6C216.543,26.034,216.845,27.317,216.845,28.793z M212.774,28.763
		c0-1.005-0.183-1.864-0.549-2.579c-0.366-0.714-0.945-1.273-1.738-1.676c-0.403-0.198-0.815-0.333-1.236-0.405
		c-0.42-0.072-1.054-0.108-1.902-0.108h-0.995v9.557h0.995c0.937,0,1.624-0.042,2.061-0.128c0.438-0.085,0.865-0.241,1.282-0.466
		c0.718-0.41,1.244-0.958,1.579-1.646C212.607,30.624,212.774,29.774,212.774,28.763z"/>
	<path fill="#01703A" d="M228.104,36.412h-8.941v-2.707h2.502v-9.854h-2.502v-2.707h8.941v2.707h-2.502v9.854h2.502V36.412z"/>
	<path fill="#01703A" d="M243.259,24.097h-4.768v12.315h-3.938V24.097h-4.768v-2.953h13.474V24.097z"/>
	<path fill="#01703A" d="M84.319,50.097h-4.768v12.315h-3.938V50.097h-4.768v-2.953h13.474V50.097z"/>
	<path fill="#01703A" d="M101.392,62.412h-4.809l-4.154-5.599h-1.824v5.599h-3.917V47.144h6.604c0.902,0,1.678,0.051,2.328,0.154
		s1.258,0.325,1.825,0.667c0.574,0.342,1.031,0.785,1.369,1.328c0.339,0.544,0.508,1.226,0.508,2.046
		c0,1.128-0.262,2.047-0.784,2.758c-0.523,0.711-1.27,1.302-2.241,1.774L101.392,62.412z M95.25,51.82
		c0-0.383-0.079-0.711-0.236-0.984s-0.427-0.489-0.81-0.646c-0.267-0.109-0.578-0.176-0.933-0.2
		c-0.355-0.023-0.769-0.036-1.241-0.036h-1.425v4.112h1.21c0.629,0,1.155-0.031,1.579-0.092s0.779-0.202,1.066-0.42
		c0.273-0.212,0.473-0.446,0.6-0.702C95.186,52.594,95.25,52.25,95.25,51.82z"/>
	<path fill="#01703A" d="M117.224,62.412h-4.066l-1.063-3.086h-5.65l-1.064,3.086h-3.968l5.64-15.268h4.532L117.224,62.412z
		 M111.147,56.526l-1.878-5.47l-1.879,5.47H111.147z"/>
	<path fill="#01703A" d="M127.672,62.412h-8.941v-2.707h2.502v-9.854h-2.502v-2.707h8.941v2.707h-2.502v9.854h2.502V62.412z"/>
	<path fill="#01703A" d="M144.766,62.412h-3.794l-6.48-10.479v10.479h-3.609V47.144h4.707l5.568,8.747v-8.747h3.609V62.412z"/>
	<path fill="#01703A" d="M156.917,62.412h-8.941v-2.707h2.502v-9.854h-2.502v-2.707h8.941v2.707h-2.502v9.854h2.502V62.412z"/>
	<path fill="#01703A" d="M174.01,62.412h-3.794l-6.48-10.479v10.479h-3.609V47.144h4.707l5.568,8.747v-8.747h3.609V62.412z"/>
	<path fill="#01703A" d="M191.411,61.541c-0.684,0.267-1.589,0.532-2.717,0.794c-1.128,0.263-2.252,0.395-3.374,0.395
		c-2.598,0-4.631-0.706-6.101-2.118c-1.47-1.411-2.205-3.361-2.205-5.85c0-2.372,0.742-4.284,2.225-5.737
		c1.483-1.452,3.551-2.179,6.204-2.179c1.005,0,1.962,0.091,2.871,0.271c0.909,0.182,1.921,0.542,3.035,1.082v3.579h-0.441
		c-0.191-0.144-0.472-0.347-0.841-0.61s-0.725-0.487-1.066-0.672c-0.396-0.219-0.86-0.407-1.39-0.564s-1.092-0.236-1.687-0.236
		c-0.697,0-1.33,0.103-1.897,0.308s-1.077,0.52-1.528,0.943c-0.431,0.41-0.771,0.932-1.021,1.563
		c-0.25,0.633-0.374,1.362-0.374,2.189c0,1.688,0.448,2.98,1.343,3.876s2.218,1.343,3.968,1.343c0.15,0,0.316-0.003,0.497-0.01
		s0.347-0.017,0.498-0.031v-2.994h-3.045v-2.881h7.044V61.541z"/>
	<path fill="#01703A" d="M209.017,62.709c-1.135,0-2.183-0.167-3.143-0.502c-0.961-0.335-1.786-0.834-2.477-1.497
		s-1.226-1.49-1.604-2.481c-0.38-0.991-0.569-2.136-0.569-3.435c0-1.21,0.181-2.307,0.543-3.292s0.889-1.829,1.579-2.533
		c0.663-0.677,1.485-1.2,2.466-1.569c0.98-0.369,2.052-0.554,3.214-0.554c0.643,0,1.222,0.036,1.738,0.107
		c0.516,0.072,0.993,0.166,1.431,0.282c0.458,0.13,0.873,0.275,1.246,0.436c0.372,0.161,0.699,0.31,0.979,0.446v3.702h-0.451
		c-0.191-0.163-0.433-0.357-0.723-0.582c-0.291-0.224-0.62-0.445-0.989-0.663c-0.376-0.218-0.783-0.401-1.22-0.551
		c-0.438-0.15-0.906-0.225-1.405-0.225c-0.554,0-1.08,0.087-1.579,0.261c-0.499,0.174-0.96,0.462-1.384,0.864
		c-0.403,0.389-0.73,0.904-0.979,1.545c-0.25,0.641-0.375,1.419-0.375,2.333c0,0.955,0.135,1.753,0.405,2.395
		s0.61,1.146,1.021,1.514c0.417,0.375,0.882,0.643,1.395,0.803c0.513,0.161,1.019,0.241,1.518,0.241c0.479,0,0.952-0.071,1.42-0.214
		c0.468-0.143,0.901-0.336,1.297-0.582c0.335-0.197,0.646-0.408,0.933-0.632s0.523-0.418,0.708-0.582h0.41v3.65
		c-0.383,0.171-0.749,0.332-1.097,0.482s-0.714,0.28-1.097,0.39c-0.499,0.144-0.967,0.253-1.405,0.328
		S209.782,62.709,209.017,62.709z"/>
	<path fill="#01703A" d="M228.355,62.412h-11.043V47.144h11.043v2.953h-7.126v2.635h6.614v2.953h-6.614v3.773h7.126V62.412z"/>
	<path fill="#01703A" d="M245.541,62.412h-3.794l-6.48-10.479v10.479h-3.609V47.144h4.707l5.568,8.747v-8.747h3.609V62.412z"/>
	<path fill="#01703A" d="M261.383,50.097h-4.768v12.315h-3.938V50.097h-4.768v-2.953h13.474V50.097z"/>
	<path fill="#01703A" d="M274.795,62.412h-11.043V47.144h11.043v2.953h-7.126v2.635h6.614v2.953h-6.614v3.773h7.126V62.412z"/>
	<path fill="#01703A" d="M292.801,62.412h-4.809l-4.154-5.599h-1.824v5.599h-3.917V47.144h6.604c0.902,0,1.678,0.051,2.328,0.154
		s1.258,0.325,1.825,0.667c0.574,0.342,1.03,0.785,1.369,1.328c0.338,0.544,0.507,1.226,0.507,2.046
		c0,1.128-0.261,2.047-0.785,2.758c-0.522,0.711-1.27,1.302-2.24,1.774L292.801,62.412z M286.659,51.82
		c0-0.383-0.079-0.711-0.236-0.984s-0.427-0.489-0.81-0.646c-0.267-0.109-0.578-0.176-0.933-0.2
		c-0.355-0.023-0.769-0.036-1.241-0.036h-1.425v4.112h1.21c0.629,0,1.155-0.031,1.579-0.092s0.779-0.202,1.066-0.42
		c0.273-0.212,0.473-0.446,0.6-0.702C286.596,52.594,286.659,52.25,286.659,51.82z"/>
	<path fill="#01703A" d="M73.711,88.709c-1.135,0-2.183-0.167-3.143-0.502c-0.961-0.335-1.786-0.834-2.477-1.497
		s-1.226-1.49-1.604-2.481c-0.38-0.991-0.569-2.136-0.569-3.435c0-1.21,0.181-2.307,0.543-3.292s0.889-1.829,1.579-2.533
		c0.663-0.677,1.485-1.2,2.466-1.569c0.98-0.369,2.052-0.554,3.214-0.554c0.643,0,1.222,0.036,1.738,0.107
		c0.516,0.072,0.993,0.166,1.431,0.282c0.458,0.13,0.873,0.275,1.246,0.436c0.372,0.161,0.699,0.31,0.979,0.446v3.702h-0.451
		c-0.191-0.163-0.433-0.357-0.723-0.582c-0.291-0.224-0.62-0.445-0.989-0.663c-0.376-0.218-0.783-0.401-1.22-0.551
		c-0.438-0.15-0.906-0.225-1.405-0.225c-0.554,0-1.08,0.087-1.579,0.261c-0.499,0.174-0.96,0.462-1.384,0.864
		c-0.403,0.389-0.73,0.904-0.979,1.545c-0.25,0.641-0.375,1.419-0.375,2.333c0,0.955,0.135,1.753,0.405,2.395
		s0.61,1.146,1.021,1.514c0.417,0.375,0.882,0.643,1.395,0.803c0.513,0.161,1.019,0.241,1.518,0.241c0.479,0,0.952-0.071,1.42-0.214
		c0.468-0.143,0.901-0.336,1.297-0.582c0.335-0.197,0.646-0.408,0.933-0.632s0.523-0.418,0.708-0.582h0.41v3.65
		c-0.383,0.171-0.749,0.332-1.097,0.482s-0.714,0.28-1.097,0.39c-0.499,0.144-0.967,0.253-1.405,0.328S74.477,88.709,73.711,88.709z
		"/>
	<path fill="#01703A" d="M96.854,80.783c0,2.434-0.697,4.367-2.092,5.799s-3.322,2.148-5.783,2.148
		c-2.454,0-4.378-0.716-5.773-2.148s-2.092-3.365-2.092-5.799c0-2.454,0.697-4.394,2.092-5.819c1.395-1.425,3.319-2.138,5.773-2.138
		c2.447,0,4.372,0.713,5.773,2.138C96.153,76.39,96.854,78.329,96.854,80.783z M91.635,84.649c0.383-0.465,0.667-1.013,0.851-1.646
		c0.185-0.632,0.277-1.375,0.277-2.23c0-0.916-0.106-1.695-0.318-2.338s-0.489-1.162-0.831-1.559
		c-0.349-0.41-0.75-0.708-1.205-0.892s-0.928-0.277-1.42-0.277c-0.499,0-0.969,0.089-1.41,0.267
		c-0.44,0.178-0.846,0.472-1.215,0.882c-0.342,0.383-0.62,0.911-0.836,1.584c-0.215,0.673-0.323,1.454-0.323,2.343
		c0,0.909,0.104,1.684,0.313,2.322c0.208,0.64,0.483,1.161,0.825,1.564s0.742,0.701,1.2,0.892s0.94,0.287,1.446,0.287
		s0.988-0.098,1.446-0.292C90.893,85.361,91.293,85.059,91.635,84.649z"/>
	<path fill="#01703A" d="M113.742,88.412h-3.794l-6.48-10.479v10.479h-3.609V73.144h4.707l5.568,8.747v-8.747h3.609V88.412z"/>
	<path fill="#01703A" d="M131.143,87.541c-0.684,0.267-1.589,0.532-2.717,0.794c-1.128,0.263-2.252,0.395-3.374,0.395
		c-2.598,0-4.631-0.706-6.101-2.118c-1.47-1.411-2.205-3.361-2.205-5.85c0-2.372,0.742-4.284,2.225-5.737
		c1.483-1.452,3.551-2.179,6.204-2.179c1.005,0,1.962,0.091,2.871,0.271c0.909,0.182,1.921,0.542,3.035,1.082v3.579h-0.441
		c-0.191-0.144-0.472-0.347-0.841-0.61s-0.725-0.487-1.066-0.672c-0.396-0.219-0.86-0.407-1.39-0.564s-1.092-0.236-1.687-0.236
		c-0.697,0-1.33,0.103-1.897,0.308s-1.077,0.52-1.528,0.943c-0.431,0.41-0.771,0.932-1.021,1.563
		c-0.25,0.633-0.374,1.362-0.374,2.189c0,1.688,0.448,2.98,1.343,3.876s2.218,1.343,3.968,1.343c0.15,0,0.316-0.003,0.497-0.01
		s0.347-0.017,0.498-0.031v-2.994h-3.045v-2.881h7.044V87.541z"/>
	<path fill="#01703A" d="M155.537,88.412H151.6v-6.727h-5.814v6.727h-3.938V73.144h3.938v5.588h5.814v-5.588h3.938V88.412z"/>
	<path fill="#01703A" d="M174.281,80.783c0,2.434-0.697,4.367-2.092,5.799s-3.322,2.148-5.783,2.148
		c-2.454,0-4.378-0.716-5.773-2.148s-2.092-3.365-2.092-5.799c0-2.454,0.697-4.394,2.092-5.819c1.395-1.425,3.319-2.138,5.773-2.138
		c2.447,0,4.372,0.713,5.773,2.138C173.581,76.39,174.281,78.329,174.281,80.783z M169.062,84.649
		c0.383-0.465,0.667-1.013,0.851-1.646c0.185-0.632,0.277-1.375,0.277-2.23c0-0.916-0.106-1.695-0.318-2.338
		s-0.489-1.162-0.831-1.559c-0.349-0.41-0.75-0.708-1.205-0.892c-0.455-0.185-0.928-0.277-1.42-0.277
		c-0.499,0-0.969,0.089-1.41,0.267c-0.441,0.178-0.846,0.472-1.215,0.882c-0.342,0.383-0.621,0.911-0.835,1.584
		c-0.216,0.673-0.323,1.454-0.323,2.343c0,0.909,0.104,1.684,0.313,2.322c0.208,0.64,0.484,1.161,0.826,1.564s0.742,0.701,1.2,0.892
		s0.94,0.287,1.446,0.287s0.988-0.098,1.446-0.292C168.32,85.361,168.72,85.059,169.062,84.649z"/>
	<path fill="#01703A" d="M191.395,88.412h-4.066l-1.063-3.086h-5.65l-1.064,3.086h-3.968l5.64-15.268h4.532L191.395,88.412z
		 M185.319,82.526l-1.878-5.47l-1.879,5.47H185.319z"/>
	<path fill="#01703A" d="M214.271,87.541c-0.684,0.267-1.589,0.532-2.717,0.794c-1.128,0.263-2.252,0.395-3.374,0.395
		c-2.598,0-4.631-0.706-6.101-2.118c-1.47-1.411-2.205-3.361-2.205-5.85c0-2.372,0.742-4.284,2.225-5.737
		c1.483-1.452,3.551-2.179,6.204-2.179c1.005,0,1.962,0.091,2.871,0.271c0.909,0.182,1.921,0.542,3.035,1.082v3.579h-0.441
		c-0.191-0.144-0.472-0.347-0.841-0.61s-0.725-0.487-1.066-0.672c-0.396-0.219-0.86-0.407-1.389-0.564
		c-0.53-0.157-1.092-0.236-1.687-0.236c-0.697,0-1.33,0.103-1.897,0.308s-1.077,0.52-1.528,0.943
		c-0.431,0.41-0.771,0.932-1.02,1.563c-0.25,0.633-0.375,1.362-0.375,2.189c0,1.688,0.448,2.98,1.343,3.876s2.218,1.343,3.968,1.343
		c0.15,0,0.316-0.003,0.498-0.01c0.181-0.007,0.347-0.017,0.497-0.031v-2.994h-3.045v-2.881h7.044V87.541z"/>
	<path fill="#01703A" d="M231.908,88.412h-4.066l-1.063-3.086h-5.65l-1.064,3.086h-3.968l5.64-15.268h4.532L231.908,88.412z
		 M225.832,82.526l-1.878-5.47l-1.879,5.47H225.832z"/>
	<path fill="#01703A" d="M248.807,88.412h-4.809l-4.154-5.599h-1.824v5.599h-3.917V73.144h6.604c0.902,0,1.678,0.051,2.328,0.154
		s1.258,0.325,1.825,0.667c0.574,0.342,1.031,0.785,1.369,1.328c0.339,0.544,0.508,1.226,0.508,2.046
		c0,1.128-0.262,2.047-0.784,2.758c-0.523,0.711-1.27,1.302-2.241,1.774L248.807,88.412z M242.665,77.82
		c0-0.383-0.079-0.711-0.236-0.984s-0.427-0.489-0.81-0.646c-0.267-0.109-0.578-0.176-0.933-0.2
		c-0.355-0.023-0.769-0.036-1.241-0.036h-1.425v4.112h1.21c0.629,0,1.155-0.031,1.579-0.092s0.779-0.202,1.066-0.42
		c0.273-0.212,0.473-0.446,0.6-0.702C242.601,78.594,242.665,78.25,242.665,77.82z"/>
	<path fill="#01703A" d="M264.957,80.793c0,1.422-0.325,2.695-0.974,3.82s-1.47,1.987-2.461,2.589
		c-0.745,0.451-1.562,0.766-2.451,0.943s-1.941,0.267-3.158,0.267h-5.383V73.144h5.537c1.244,0,2.317,0.104,3.22,0.313
		s1.661,0.504,2.276,0.887c1.053,0.643,1.882,1.509,2.486,2.6C264.654,78.034,264.957,79.317,264.957,80.793z M260.886,80.763
		c0-1.005-0.183-1.864-0.549-2.579c-0.366-0.714-0.945-1.273-1.738-1.676c-0.403-0.198-0.815-0.333-1.236-0.405
		c-0.42-0.072-1.054-0.108-1.902-0.108h-0.995v9.557h0.995c0.937,0,1.624-0.042,2.061-0.128c0.438-0.085,0.865-0.241,1.282-0.466
		c0.718-0.41,1.244-0.958,1.579-1.646C260.718,82.624,260.886,81.774,260.886,80.763z"/>
	<path fill="#01703A" d="M279.004,88.412h-11.043V73.144h11.043v2.953h-7.126v2.635h6.614v2.953h-6.614v3.773h7.126V88.412z"/>
	<path fill="#01703A" d="M296.19,88.412h-3.794l-6.48-10.479v10.479h-3.609V73.144h4.707l5.568,8.747v-8.747h3.609V88.412z"/>
</g>
<g>
	<g>
		<path fill="#01703A" d="M261.538,380.841c-1.135,0-2.183-0.168-3.143-0.503s-1.786-0.834-2.476-1.497s-1.225-1.49-1.605-2.481
			c-0.379-0.991-0.569-2.136-0.569-3.435c0-1.211,0.181-2.308,0.543-3.292s0.889-1.828,1.579-2.532
			c0.663-0.678,1.485-1.2,2.466-1.569s2.053-0.554,3.215-0.554c0.643,0,1.222,0.036,1.738,0.107c0.516,0.072,0.993,0.166,1.43,0.282
			c0.458,0.13,0.873,0.275,1.246,0.436c0.373,0.161,0.699,0.31,0.979,0.446v3.701h-0.451c-0.191-0.163-0.433-0.356-0.723-0.581
			c-0.291-0.225-0.621-0.445-0.99-0.663c-0.376-0.218-0.783-0.401-1.22-0.551s-0.906-0.225-1.405-0.225
			c-0.554,0-1.08,0.087-1.579,0.261s-0.96,0.463-1.384,0.865c-0.403,0.389-0.73,0.903-0.979,1.545s-0.374,1.419-0.374,2.333
			c0,0.955,0.135,1.753,0.405,2.395c0.27,0.642,0.61,1.146,1.02,1.515c0.417,0.375,0.882,0.643,1.395,0.803s1.019,0.241,1.518,0.241
			c0.479,0,0.952-0.072,1.42-0.215c0.468-0.143,0.9-0.337,1.297-0.581c0.335-0.197,0.646-0.408,0.933-0.633s0.523-0.418,0.708-0.581
			h0.41v3.65c-0.383,0.171-0.749,0.331-1.097,0.481s-0.714,0.28-1.097,0.39c-0.499,0.144-0.967,0.253-1.405,0.328
			S262.303,380.841,261.538,380.841z"/>
		<path fill="#01703A" d="M284.681,372.914c0,2.434-0.697,4.366-2.092,5.799c-1.395,1.432-3.322,2.147-5.783,2.147
			c-2.454,0-4.378-0.716-5.773-2.147c-1.395-1.433-2.092-3.365-2.092-5.799c0-2.454,0.697-4.394,2.092-5.819
			c1.395-1.425,3.319-2.138,5.773-2.138c2.447,0,4.372,0.713,5.773,2.138C283.98,368.521,284.681,370.46,284.681,372.914z
			 M279.461,376.78c0.383-0.465,0.667-1.014,0.851-1.646c0.185-0.632,0.277-1.375,0.277-2.23c0-0.915-0.106-1.694-0.318-2.338
			c-0.212-0.642-0.489-1.161-0.831-1.559c-0.349-0.41-0.75-0.707-1.205-0.892c-0.455-0.185-0.928-0.276-1.42-0.276
			c-0.499,0-0.969,0.089-1.41,0.266c-0.441,0.179-0.846,0.473-1.215,0.883c-0.342,0.383-0.621,0.91-0.835,1.584
			c-0.216,0.673-0.323,1.454-0.323,2.343c0,0.909,0.104,1.684,0.313,2.322c0.208,0.64,0.484,1.161,0.826,1.563
			c0.342,0.404,0.742,0.701,1.2,0.893s0.94,0.287,1.446,0.287s0.988-0.098,1.446-0.292C278.72,377.492,279.12,377.19,279.461,376.78
			z"/>
		<path fill="#01703A" d="M301.569,380.543h-3.795l-6.48-10.479v10.479h-3.609v-15.269h4.707l5.568,8.747v-8.747h3.609V380.543z"/>
		<path fill="#01703A" d="M318.97,379.671c-0.685,0.268-1.59,0.532-2.718,0.795c-1.128,0.264-2.253,0.395-3.374,0.395
			c-2.598,0-4.631-0.705-6.101-2.117c-1.47-1.411-2.204-3.361-2.204-5.85c0-2.372,0.741-4.284,2.225-5.737
			c1.483-1.452,3.551-2.179,6.203-2.179c1.006,0,1.962,0.091,2.871,0.271c0.909,0.182,1.921,0.542,3.035,1.082v3.578h-0.44
			c-0.191-0.143-0.472-0.347-0.841-0.609c-0.369-0.264-0.725-0.487-1.066-0.672c-0.396-0.219-0.859-0.406-1.39-0.564
			c-0.529-0.156-1.092-0.235-1.687-0.235c-0.697,0-1.33,0.103-1.896,0.308c-0.568,0.205-1.077,0.52-1.528,0.943
			c-0.431,0.41-0.771,0.932-1.021,1.563c-0.249,0.633-0.374,1.362-0.374,2.189c0,1.688,0.447,2.98,1.343,3.876
			s2.219,1.344,3.969,1.344c0.15,0,0.316-0.004,0.497-0.011c0.182-0.007,0.347-0.017,0.497-0.03v-2.994h-3.045v-2.882h7.045V379.671
			z"/>
		<path fill="#01703A" d="M343.364,380.543h-3.938v-6.727h-5.814v6.727h-3.938v-15.269h3.938v5.589h5.814v-5.589h3.938V380.543z"/>
		<path fill="#01703A" d="M362.107,372.914c0,2.434-0.697,4.366-2.092,5.799c-1.395,1.432-3.322,2.147-5.783,2.147
			c-2.454,0-4.378-0.716-5.772-2.147c-1.395-1.433-2.092-3.365-2.092-5.799c0-2.454,0.697-4.394,2.092-5.819
			c1.395-1.425,3.318-2.138,5.772-2.138c2.447,0,4.371,0.713,5.772,2.138C361.406,368.521,362.107,370.46,362.107,372.914z
			 M356.888,376.78c0.383-0.465,0.667-1.014,0.852-1.646c0.185-0.632,0.277-1.375,0.277-2.23c0-0.915-0.106-1.694-0.318-2.338
			c-0.212-0.642-0.489-1.161-0.83-1.559c-0.35-0.41-0.751-0.707-1.205-0.892c-0.455-0.185-0.928-0.276-1.42-0.276
			c-0.5,0-0.97,0.089-1.41,0.266c-0.441,0.179-0.846,0.473-1.215,0.883c-0.343,0.383-0.621,0.91-0.836,1.584
			c-0.216,0.673-0.323,1.454-0.323,2.343c0,0.909,0.104,1.684,0.313,2.322c0.209,0.64,0.483,1.161,0.825,1.563
			c0.342,0.404,0.742,0.701,1.2,0.893s0.939,0.287,1.446,0.287c0.505,0,0.987-0.098,1.445-0.292
			C356.146,377.492,356.546,377.19,356.888,376.78z"/>
		<path fill="#01703A" d="M379.222,380.543h-4.066l-1.063-3.087h-5.65l-1.063,3.087h-3.968l5.64-15.269h4.532L379.222,380.543z
			 M373.146,374.657l-1.879-5.47l-1.879,5.47H373.146z"/>
		<path fill="#01703A" d="M400.816,375.744c0,1.504-0.638,2.726-1.912,3.666c-1.275,0.939-3.007,1.409-5.194,1.409
			c-1.265,0-2.366-0.11-3.307-0.333c-0.939-0.222-1.82-0.504-2.641-0.846v-3.661h0.432c0.813,0.65,1.724,1.148,2.732,1.498
			c1.008,0.348,1.977,0.522,2.906,0.522c0.239,0,0.555-0.021,0.943-0.062c0.391-0.041,0.708-0.109,0.954-0.205
			c0.301-0.123,0.549-0.277,0.743-0.461c0.195-0.186,0.293-0.458,0.293-0.82c0-0.335-0.143-0.624-0.426-0.867
			c-0.284-0.242-0.699-0.429-1.246-0.559c-0.574-0.137-1.181-0.265-1.82-0.385c-0.639-0.119-1.239-0.271-1.799-0.456
			c-1.286-0.417-2.21-0.982-2.774-1.697c-0.563-0.714-0.846-1.601-0.846-2.661c0-1.421,0.638-2.582,1.912-3.48
			c1.275-0.899,2.914-1.349,4.917-1.349c1.005,0,1.998,0.098,2.979,0.292c0.981,0.195,1.83,0.439,2.549,0.733v3.517h-0.421
			c-0.615-0.492-1.369-0.903-2.261-1.235c-0.893-0.331-1.804-0.497-2.732-0.497c-0.328,0-0.655,0.022-0.979,0.066
			c-0.325,0.045-0.638,0.129-0.938,0.252c-0.267,0.102-0.496,0.258-0.688,0.466c-0.191,0.209-0.287,0.446-0.287,0.713
			c0,0.403,0.154,0.713,0.462,0.928c0.308,0.216,0.889,0.412,1.743,0.59c0.561,0.116,1.099,0.229,1.615,0.339
			c0.516,0.109,1.071,0.26,1.666,0.451c1.169,0.383,2.032,0.903,2.589,1.563C400.538,373.835,400.816,374.691,400.816,375.744z"/>
		<path fill="#01703A" d="M415.46,368.228h-4.769v12.315h-3.938v-12.315h-4.769v-2.953h13.475V368.228z"/>
		<path fill="#01703A" d="M432.532,380.543h-4.81l-4.153-5.599h-1.824v5.599h-3.917v-15.269h6.604c0.902,0,1.678,0.052,2.327,0.154
			s1.258,0.325,1.826,0.666c0.574,0.343,1.03,0.785,1.368,1.328c0.339,0.544,0.508,1.226,0.508,2.046
			c0,1.128-0.262,2.048-0.784,2.759c-0.523,0.711-1.271,1.302-2.24,1.773L432.532,380.543z M426.39,369.95
			c0-0.382-0.078-0.71-0.235-0.984c-0.157-0.272-0.428-0.488-0.81-0.646c-0.268-0.109-0.578-0.176-0.934-0.2
			c-0.355-0.023-0.77-0.035-1.24-0.035h-1.426v4.111h1.21c0.629,0,1.155-0.031,1.579-0.092c0.424-0.063,0.779-0.202,1.066-0.421
			c0.273-0.212,0.474-0.446,0.6-0.702C426.327,370.725,426.39,370.382,426.39,369.95z"/>
		<path fill="#01703A" d="M445.298,380.543h-11.044v-15.269h11.044v2.953h-7.127v2.636h6.613v2.953h-6.613v3.773h7.127V380.543z"/>
		<path fill="#01703A" d="M459.644,380.543H448.6v-15.269h11.044v2.953h-7.127v2.636h6.613v2.953h-6.613v3.773h7.127V380.543z"/>
		<path fill="#01703A" d="M474.892,368.228h-4.769v12.315h-3.938v-12.315h-4.769v-2.953h13.475V368.228z"/>
	</g>
</g>
</svg>
